<svg xmlns="http://www.w3.org/2000/svg" xmlns:xlink="http://www.w3.org/1999/xlink" width="479.684" height="347.392" viewBox="0 0 479.684 347.392">
  <defs>
    <linearGradient id="linear-gradient" x1="0.382" y1="0.67" x2="0.812" y2="0.368" gradientUnits="objectBoundingBox">
      <stop offset="0" stop-color="#dcece7"/>
      <stop offset="1" stop-color="#f6f6f6" stop-opacity="0"/>
    </linearGradient>
  </defs>
  <g id="_404_svg" data-name="404_svg" transform="translate(-643.16 -829.755)">
    <path id="Path_129977" data-name="Path 129977" d="M16581.715,8102.233l-74.1,178.747H16342l244.387,168.646,235.3-168.646H16659.1Z" transform="translate(-15698.845 -7272.479)" fill="url(#linear-gradient)"/>
    <g id="Group_56609" data-name="Group 56609" transform="translate(-5)">
      <path id="Path_108627" data-name="Path 108627" d="M-190.806-11.682a1.043,1.043,0,0,1-.885-.3,1.043,1.043,0,0,1-.295-.885V-24.9a3.287,3.287,0,0,1,.236-1.416L-167.678-79.3a1.69,1.69,0,0,1,1.652-.944h14.986q1.18,0,.826,1.18l-24.072,52.746v.354h14.75a.626.626,0,0,0,.531-.177.626.626,0,0,0,.177-.531V-44.014a1.043,1.043,0,0,1,.3-.885,1.043,1.043,0,0,1,.885-.3h13.688a1.043,1.043,0,0,1,.885.3,1.043,1.043,0,0,1,.295.885v17.346a.626.626,0,0,0,.177.531.626.626,0,0,0,.531.177h5.31a1.043,1.043,0,0,1,.885.3,1.043,1.043,0,0,1,.295.885v11.918a1.043,1.043,0,0,1-.295.885,1.043,1.043,0,0,1-.885.3h-5.31a.626.626,0,0,0-.531.177.626.626,0,0,0-.177.531V-1.18a1.043,1.043,0,0,1-.295.885,1.043,1.043,0,0,1-.885.3h-13.688a1.043,1.043,0,0,1-.885-.3,1.043,1.043,0,0,1-.295-.885v-9.794a.626.626,0,0,0-.177-.531.626.626,0,0,0-.531-.177Zm68.2-3.422a18.069,18.069,0,0,1-.766-2.9q-.294-1.593-.529-4.248t-.353-6.9q-.118-4.248-.118-10.974t.118-10.974q.118-4.248.353-6.9t.529-4.248a18.07,18.07,0,0,1,.766-2.891,22.78,22.78,0,0,1,8.536-12.1q6.063-4.307,15.6-4.307t15.6,4.307a22.78,22.78,0,0,1,8.536,12.1,18.07,18.07,0,0,1,.766,2.891q.294,1.593.529,4.248t.353,6.9q.118,4.248.118,10.974t-.118,10.974q-.118,4.248-.353,6.9T-73.57-18a18.068,18.068,0,0,1-.766,2.891,22.78,22.78,0,0,1-8.536,12.1Q-88.935,1.3-98.471,1.3t-15.6-4.307A22.78,22.78,0,0,1-122.606-15.1Zm15.939-2.95q1.783,5.428,8.2,5.428t8.2-5.428a17.06,17.06,0,0,0,.416-1.888,32.876,32.876,0,0,0,.3-3.363q.119-2.3.178-6.254t.059-10.561q0-6.608-.059-10.561t-.178-6.254a32.875,32.875,0,0,0-.3-3.363,17.063,17.063,0,0,0-.416-1.888q-1.783-5.428-8.2-5.428t-8.2,5.428a17.063,17.063,0,0,0-.416,1.888,32.875,32.875,0,0,0-.3,3.363q-.119,2.3-.178,6.254t-.059,10.561q0,6.608.059,10.561t.178,6.254a32.873,32.873,0,0,0,.3,3.363,17.06,17.06,0,0,0,.417,1.888Zm47.076,6.372a1.043,1.043,0,0,1-.885-.3,1.043,1.043,0,0,1-.3-.885V-24.9a3.287,3.287,0,0,1,.236-1.416L-36.462-79.3a1.69,1.69,0,0,1,1.652-.944h14.986q1.18,0,.826,1.18L-43.07-26.314v.354h14.75a.626.626,0,0,0,.531-.177.626.626,0,0,0,.177-.531V-44.014a1.043,1.043,0,0,1,.3-.885,1.043,1.043,0,0,1,.885-.3h13.688a1.043,1.043,0,0,1,.885.3,1.043,1.043,0,0,1,.3.885v17.346a.626.626,0,0,0,.177.531.626.626,0,0,0,.531.177h5.31a1.043,1.043,0,0,1,.885.3,1.043,1.043,0,0,1,.3.885v11.918a1.043,1.043,0,0,1-.3.885,1.043,1.043,0,0,1-.885.3h-5.31a.626.626,0,0,0-.531.177.626.626,0,0,0-.177.531V-1.18a1.043,1.043,0,0,1-.3.885,1.043,1.043,0,0,1-.885.3H-26.432a1.043,1.043,0,0,1-.885-.3,1.043,1.043,0,0,1-.3-.885v-9.794a.626.626,0,0,0-.177-.531.626.626,0,0,0-.531-.177Z" transform="translate(1004.687 1087.602)" fill="#06b490"/>
      <g id="Group_56608" data-name="Group 56608" transform="translate(908.793 922.485)">
        <rect id="Rectangle_14329" data-name="Rectangle 14329" width="16" height="69" rx="8" transform="translate(115.894 80.966)" fill="#06b490"/>
        <circle id="Ellipse_11142" data-name="Ellipse 11142" cx="8" cy="8" r="8" transform="translate(115.894 158.966)" fill="#06b490"/>
      </g>
    </g>
  </g>
</svg>
