<svg xmlns="http://www.w3.org/2000/svg" width="602.179" height="370.475" viewBox="0 0 602.179 370.475">
  <g id="B-card2" transform="translate(26.503 0.5)">
    <rect id="shade" width="482.179" height="217.975" transform="translate(33.497 92)" fill="#44677a" opacity="0.5"/>
    <rect id="bg" width="547.929" height="309.975" transform="translate(0.997)" fill="#fff" stroke="#49bb95" stroke-miterlimit="10" stroke-width="1"/>
    <g id="Group_128783" data-name="Group 128783">
      <g id="WCBLogo" transform="translate(29.858 25.34)">
        <path id="Path_129837" data-name="Path 129837" d="M-504.944,182.877l-2.291,11.985,13.96-19.211Z" transform="translate(551.908 -175.651)" fill="#50b691"/>
        <path id="Path_129838" data-name="Path 129838" d="M-493.275,175.651l-13.96,19.211,10.7-5.88Z" transform="translate(551.908 -175.651)" fill="#1a494d"/>
        <path id="Path_129839" data-name="Path 129839" d="M-496.541,188.982l-10.7,5.883h20.2Z" transform="translate(551.908 -175.651)" fill="#038470"/>
        <path id="Path_129840" data-name="Path 129840" d="M-513.476,175.651l6.243,19.211,2.291-11.985Z" transform="translate(551.908 -175.651)" fill="#038470"/>
        <path id="Path_129841" data-name="Path 129841" d="M-520.862,231.392l5.192,12.706V220.347Z" transform="translate(551.908 -175.651)" fill="#50b691"/>
        <path id="Path_129842" data-name="Path 129842" d="M-515.67,244.1l5.194-12.706-5.194-11.043Z" transform="translate(551.908 -175.651)" fill="#1a494d"/>
        <path id="Path_129843" data-name="Path 129843" d="M-515.67,220.349l5.194,11.045,11.151.831Z" transform="translate(551.908 -175.651)" fill="#038470"/>
        <path id="Path_129844" data-name="Path 129844" d="M-532.013,232.222l11.151-.83,5.194-11.045Z" transform="translate(551.908 -175.651)" fill="#038470"/>
        <path id="Path_129845" data-name="Path 129845" d="M-541.429,209.073l-10.479,8.864,22.586-7.339Z" transform="translate(551.908 -175.651)" fill="#50b691"/>
        <path id="Path_129846" data-name="Path 129846" d="M-551.906,217.939l13.681,1.012,8.9-8.353Z" transform="translate(551.908 -175.651)" fill="#1a494d"/>
        <path id="Path_129847" data-name="Path 129847" d="M-538.22,218.951l2.657,10.861,6.241-19.211Z" transform="translate(551.908 -175.651)" fill="#038470"/>
        <path id="Path_129848" data-name="Path 129848" d="M-545.665,198.725l4.229,10.348,12.109,1.528Z" transform="translate(551.908 -175.651)" fill="#038470"/>
        <path id="Path_129849" data-name="Path 129849" d="M-534.8,188.982l10.7,5.883-13.958-19.214Z" transform="translate(551.908 -175.651)" fill="#50b691"/>
        <path id="Path_129850" data-name="Path 129850" d="M-538.065,175.651l13.957,19.211-2.288-11.985Z" transform="translate(551.908 -175.651)" fill="#1a494d"/>
        <path id="Path_129851" data-name="Path 129851" d="M-526.4,182.877l2.291,11.985,6.243-19.211Z" transform="translate(551.908 -175.651)" fill="#038470"/>
        <path id="Path_129852" data-name="Path 129852" d="M-544.309,194.865h20.2l-10.7-5.883Z" transform="translate(551.908 -175.651)" fill="#038470"/>
        <path id="Path_129853" data-name="Path 129853" d="M-489.907,209.073l-12.107,1.525,22.585,7.339Z" transform="translate(551.908 -175.651)" fill="#50b691"/>
        <path id="Path_129854" data-name="Path 129854" d="M-502.021,210.6l8.9,8.351,13.681-1.01Z" transform="translate(551.908 -175.651)" fill="#1a494d"/>
        <path id="Path_129855" data-name="Path 129855" d="M-495.778,229.812l2.657-10.861-8.9-8.353Z" transform="translate(551.908 -175.651)" fill="#038470"/>
        <path id="Path_129856" data-name="Path 129856" d="M-485.678,198.725-502.021,210.6l12.109-1.527Z" transform="translate(551.908 -175.651)" fill="#038470"/>
        <path id="Path_129857" data-name="Path 129857" d="M-502.409,205.255l-12.46,6.925c0-3.194,0-11.194.017-11.179.995,1.321,3.008,4.8,3.042,4.814a13.3,13.3,0,0,0-1.2-4.814,30.749,30.749,0,0,1,4.7,2.786,13.276,13.276,0,0,0-4.754-4.947,15.332,15.332,0,0,1,4.709-.421,11.751,11.751,0,0,0-4.918-1.059,8.231,8.231,0,0,1,2.2-1.408,6.264,6.264,0,0,0-3.8.771c-.291-.709-.814-2.152-.814-2.152s-.52,1.443-.811,2.152a6.264,6.264,0,0,0-3.8-.771,8.23,8.23,0,0,1,2.2,1.408,11.742,11.742,0,0,0-4.916,1.059,15.316,15.316,0,0,1,4.707.421,13.276,13.276,0,0,0-4.754,4.947A30.7,30.7,0,0,1-518.334,201a13.19,13.19,0,0,0-1.2,4.814c.035,0,2.045-3.483,3.04-4.814,0,0,.022,7.985.02,11.179l-12.463-6.925a126.082,126.082,0,0,0,11.585,8.3l-7.316,4.068a9.606,9.606,0,0,0,1.117.5,3.23,3.23,0,0,0,2.748-.219l5.127-3.271,5.129,3.271a3.234,3.234,0,0,0,2.737.219,10.078,10.078,0,0,0,1.119-.5l-7.318-4.068a125.552,125.552,0,0,0,11.584-8.3" transform="translate(551.908 -175.651)" fill="#1b2444"/>
      </g>
      <g id="Group_128726" data-name="Group 128726" transform="translate(0 114.481)">
        <g id="Group_128728" data-name="Group 128728" transform="translate(19.559)">
          <rect id="Rectangle_14513" data-name="Rectangle 14513" width="2.714" height="16.962" fill="#3fc298"/>
          <rect id="Rectangle_14514" data-name="Rectangle 14514" width="2.714" height="16.962" transform="translate(12.194)" fill="#3fc298"/>
          <rect id="Rectangle_14515" data-name="Rectangle 14515" width="2.714" height="16.962" transform="translate(24.385)" fill="#3fc298"/>
          <rect id="Rectangle_14516" data-name="Rectangle 14516" width="2.714" height="16.962" transform="translate(36.576)" fill="#3fc298"/>
          <rect id="Rectangle_14517" data-name="Rectangle 14517" width="2.714" height="16.962" transform="translate(48.77)" fill="#3fc298"/>
          <rect id="Rectangle_14518" data-name="Rectangle 14518" width="2.714" height="16.962" transform="translate(60.964 0.003)" fill="#3fc298"/>
          <rect id="Rectangle_14519" data-name="Rectangle 14519" width="2.714" height="16.962" transform="translate(73.156)" fill="#3fc298"/>
          <rect id="Rectangle_14520" data-name="Rectangle 14520" width="2.714" height="16.962" transform="translate(85.347)" fill="#3fc298"/>
          <rect id="Rectangle_14521" data-name="Rectangle 14521" width="2.714" height="16.962" transform="translate(97.541 0.003)" fill="#3fc298"/>
          <rect id="Rectangle_14522" data-name="Rectangle 14522" width="2.714" height="16.962" transform="translate(109.732)" fill="#3fc298"/>
          <rect id="Rectangle_14523" data-name="Rectangle 14523" width="2.714" height="16.962" transform="translate(121.926)" fill="#3fc298"/>
        </g>
      </g>
    </g>
    <g id="card-footer" transform="translate(31.497 233.351)">
      <g id="Group_128727" data-name="Group 128727">
        <g id="Group_128732" data-name="Group 128732" transform="translate(354)">
          <text id="n.surname_gami.gov.sa" data-name="n.surname@gami.gov.sa" transform="translate(0 13)" fill="#004a4d" font-size="12" font-family="Roboto-Regular, Roboto" style="isolation: isolate"><tspan x="0" y="0">n.surname@gami.gov.sa</tspan></text>
          <text id="M_966_50_222_2528" data-name="M +966 50 222 2528" transform="translate(22 29.842)" fill="#004a4d" font-size="12" font-family="Roboto-Regular, Roboto" style="isolation: isolate"><tspan x="0" y="0">M +966 50 222 2528</tspan></text>
        </g>
      </g>
      <g id="imgLocation">
        <g id="social" transform="translate(0 34.902)">
          <text id="WWW.GAMI.GOV.SA" transform="translate(75.473 9.047)" fill="#004a4d" font-size="8" font-family="Roboto-Medium, Roboto" font-weight="500" style="isolation: isolate"><tspan x="0" y="0">WWW.GAMI.GOV.SA</tspan></text>
          <text id="GAMI_KSA" transform="translate(28.703 8.826)" fill="#004a4d" font-size="8" font-family="Roboto-Light, Roboto" font-weight="300" style="isolation: isolate"><tspan x="0" y="0">GAMI_KSA</tspan></text>
          <g id="Group_128729" data-name="Group 128729" transform="translate(13.376)">
            <path id="Path_129832" data-name="Path 129832" d="M-535.019,423.214h1.1v3.53h-1.1Zm.549-1.756a.637.637,0,0,1,.633.638.637.637,0,0,1-.639.633.637.637,0,0,1-.632-.633.637.637,0,0,1,.633-.638h0" transform="translate(538.45 -418.114)" fill="#004a4d"/>
            <path id="Path_129833" data-name="Path 129833" d="M-533.485,422.989h1.053v.482h.014a1.151,1.151,0,0,1,1.038-.574c1.115,0,1.32.73,1.32,1.685v1.934h-1.1V424.79c0-.408,0-.934-.575-.934s-.659.445-.659.9v1.745h-1.1Z" transform="translate(538.702 -417.89)" fill="#004a4d"/>
            <path id="Path_129834" data-name="Path 129834" d="M-526.117,424.59v-.043a5.942,5.942,0,0,0-5.9-5.983,5.941,5.941,0,0,0-5.982,5.9,5.94,5.94,0,0,0,5.9,5.983,5.942,5.942,0,0,0,5.955-5.356l-.417.288h0A5.521,5.521,0,0,1-532.855,430a5.52,5.52,0,0,1-4.625-6.292,5.52,5.52,0,0,1,6.292-4.625,5.521,5.521,0,0,1,4.688,5.455v.315Z" transform="translate(538 -418.564)" fill="#004a4d"/>
          </g>
          <g id="Group_128730" data-name="Group 128730">
            <path id="Path_129835" data-name="Path 129835" d="M-540.911,422.152a2.478,2.478,0,0,1-.627.178c.1-.017.251-.2.311-.269a1.189,1.189,0,0,0,.2-.383v-.032a.045.045,0,0,0-.035,0,3.2,3.2,0,0,1-.74.288.051.051,0,0,1-.054-.014.5.5,0,0,0-.064-.066,1.275,1.275,0,0,0-.911-.309,1.278,1.278,0,0,0-.523.147,1.316,1.316,0,0,0-.419.346,1.249,1.249,0,0,0-.255.506,1.371,1.371,0,0,0,0,.532c0,.029,0,.035-.027.029a3.954,3.954,0,0,1-2.549-1.3c-.029-.035-.046-.035-.073,0a1.3,1.3,0,0,0,.222,1.526c.052.045.1.095.155.138a1.274,1.274,0,0,1-.489-.138c-.031-.017-.045,0-.049.025a1.052,1.052,0,0,0,0,.147,1.311,1.311,0,0,0,.805,1.043.8.8,0,0,0,.163.049,1.5,1.5,0,0,1-.482.015c-.035,0-.05,0-.035.045a1.355,1.355,0,0,0,1.011.863.826.826,0,0,1,.141.02h0a1.56,1.56,0,0,1-.692.367,2.453,2.453,0,0,1-1.053.135h-.083c-.014,0,0,.023,0,.038.075.049.147.089.218.129a3.3,3.3,0,0,0,.7.287,3.733,3.733,0,0,0,3.635-.862,3.809,3.809,0,0,0,1.006-2.783c0-.04.046-.06.078-.08a2.49,2.49,0,0,0,.492-.518.152.152,0,0,0,.034-.1h0c0-.014,0,0-.025,0" transform="translate(549.966 -418.1)" fill="#004a4d"/>
            <path id="Path_129836" data-name="Path 129836" d="M-537.692,424.59v-.043a5.941,5.941,0,0,0-5.9-5.983,5.941,5.941,0,0,0-5.984,5.9,5.942,5.942,0,0,0,5.9,5.983,5.941,5.941,0,0,0,5.955-5.356l-.416.288h0A5.522,5.522,0,0,1-544.429,430a5.522,5.522,0,0,1-4.626-6.292,5.52,5.52,0,0,1,6.292-4.625,5.52,5.52,0,0,1,4.688,5.455v.315Z" transform="translate(549.575 -418.564)" fill="#004a4d"/>
          </g>
          <rect id="Rectangle_14525" data-name="Rectangle 14525" width="0.213" height="10.512" transform="translate(70.718 1.376)" fill="#004a4d"/>
        </g>
        <text id="Eastern_Ring_Road_King_Abdullah_District" data-name="Eastern Ring Road, King Abdullah District" transform="translate(0 13)" fill="#004a4d" font-size="11.958" font-family="Roboto-Regular, Roboto" style="isolation: isolate"><tspan x="0" y="0">Eastern Ring Road, King Abdullah District</tspan></text>
        <text id="Saudi_Arabia_12426_Riyadh" data-name="Saudi Arabia ,12426 Riyadh" transform="translate(0 28.937)" fill="#004a4d" font-size="12" font-family="Roboto-Regular, Roboto" style="isolation: isolate"><tspan x="0" y="0">Saudi Arabia ,12426 Riyadh</tspan></text>
      </g>
    </g>
  </g>
</svg>
