<svg xmlns="http://www.w3.org/2000/svg" width="18.513" height="20.404" viewBox="0 0 18.513 20.404">
  <g id="calendar" transform="translate(-2.25 -1.25)">
    <path id="Path_484" data-name="Path 484" d="M8,2V4.836" transform="translate(-0.274)" fill="none" stroke="#7aa0a2" stroke-linecap="round" stroke-linejoin="round" stroke-miterlimit="10" stroke-width="1.5"/>
    <path id="Path_485" data-name="Path 485" d="M16,2V4.836" transform="translate(-0.713)" fill="none" stroke="#7aa0a2" stroke-linecap="round" stroke-linejoin="round" stroke-miterlimit="10" stroke-width="1.5"/>
    <path id="Path_486" data-name="Path 486" d="M3.5,9.09H19.568" transform="translate(-0.027 -0.389)" fill="none" stroke="#7aa0a2" stroke-linecap="round" stroke-linejoin="round" stroke-miterlimit="10" stroke-width="1.5"/>
    <path id="Path_487" data-name="Path 487" d="M3,12.489V8.226C3,5.39,4.418,3.5,7.726,3.5h7.561c3.308,0,4.726,1.89,4.726,4.726V16.26c0,2.836-1.418,4.726-4.726,4.726H7.726C4.418,20.986,3,19.1,3,16.26" transform="translate(0 -0.082)" fill="none" stroke="#7aa0a2" stroke-linecap="round" stroke-linejoin="round" stroke-miterlimit="10" stroke-width="1.5"/>
    <path id="Path_488" data-name="Path 488" d="M15.694,13.7H15.7" transform="translate(-0.696 -0.641)" fill="none" stroke="#7aa0a2" stroke-linecap="round" stroke-linejoin="round" stroke-width="1.5"/>
    <path id="Path_489" data-name="Path 489" d="M15.694,16.7H15.7" transform="translate(-0.696 -0.806)" fill="none" stroke="#7aa0a2" stroke-linecap="round" stroke-linejoin="round" stroke-width="1.5"/>
    <path id="Path_490" data-name="Path 490" d="M11.994,13.7H12" transform="translate(-0.493 -0.641)" fill="none" stroke="#7aa0a2" stroke-linecap="round" stroke-linejoin="round" stroke-width="1.5"/>
    <path id="Path_491" data-name="Path 491" d="M11.994,16.7H12" transform="translate(-0.493 -0.806)" fill="none" stroke="#7aa0a2" stroke-linecap="round" stroke-linejoin="round" stroke-width="1.5"/>
    <path id="Path_492" data-name="Path 492" d="M8.3,13.7H8.3" transform="translate(-0.29 -0.641)" fill="none" stroke="#7aa0a2" stroke-linecap="round" stroke-linejoin="round" stroke-width="1.5"/>
    <path id="Path_493" data-name="Path 493" d="M8.3,16.7H8.3" transform="translate(-0.29 -0.806)" fill="none" stroke="#7aa0a2" stroke-linecap="round" stroke-linejoin="round" stroke-width="1.5"/>
  </g>
</svg>
