<svg xmlns="http://www.w3.org/2000/svg" xmlns:xlink="http://www.w3.org/1999/xlink" width="479.684" height="347.392" viewBox="0 0 479.684 347.392">
  <defs>
    <linearGradient id="linear-gradient" x1="0.382" y1="0.67" x2="0.812" y2="0.368" gradientUnits="objectBoundingBox">
      <stop offset="0" stop-color="#dcece7"/>
      <stop offset="1" stop-color="#f6f6f6" stop-opacity="0"/>
    </linearGradient>
  </defs>
  <g id="exclamation_svg" transform="translate(-643.16 -829.755)">
    <path id="Path_129977" data-name="Path 129977" d="M16581.715,8102.233l-74.1,178.747H16342l244.387,168.646,235.3-168.646H16659.1Z" transform="translate(-15698.845 -7272.479)" fill="url(#linear-gradient)"/>
    <g id="Group_56604" data-name="Group 56604" transform="translate(795.447 918.852)">
      <g id="Polygon_35" data-name="Polygon 35" transform="translate(-3.605 7.059)" fill="none">
        <path d="M83.637,45.252a34,34,0,0,1,57.419,0l50.51,79.615c14.361,22.637-1.9,52.214-28.71,52.214H61.836c-26.808,0-43.071-29.578-28.71-52.214Z" stroke="none"/>
        <path d="M 112.346321105957 41.466552734375 C 104.658821105957 41.466552734375 97.8878173828125 45.18951416015625 93.76953125 51.68080139160156 L 43.25932312011719 131.29541015625 C 38.89521789550781 138.1741638183594 38.63307189941406 146.5426330566406 42.55807495117188 153.6810302734375 C 46.4830322265625 160.8194122314453 53.68978881835938 165.0811614990234 61.83607482910156 165.0811614990234 L 162.8565368652344 165.0811614990234 C 171.0028533935547 165.0811614990234 178.2096099853516 160.8194122314453 182.1345672607422 153.6810302734375 C 186.0595703125 146.5425872802734 185.7974243164062 138.1741638183594 181.4333190917969 131.29541015625 L 130.923095703125 51.68084716796875 C 126.8047866821289 45.18951416015625 120.033821105957 41.466552734375 112.346321105957 41.466552734375 M 112.346321105957 29.466552734375 C 123.3627777099609 29.466552734375 134.3792419433594 34.72845458984375 141.0558929443359 45.25222778320312 L 191.5661010742188 124.8668441772461 C 205.9275665283203 147.5035247802734 189.6645660400391 177.0811614990234 162.8565368652344 177.0811614990234 L 61.83607482910156 177.0811614990234 C 35.028076171875 177.0811614990234 18.76507568359375 147.5035247802734 33.12654113769531 124.8668441772461 L 83.63674926757812 45.25222778320312 C 90.31341552734375 34.72845458984375 101.3298645019531 29.466552734375 112.346321105957 29.466552734375 Z" stroke="none" fill="#06b490"/>
      </g>
      <rect id="Rectangle_14329" data-name="Rectangle 14329" width="10.742" height="61.768" rx="5.371" transform="translate(103.369 73.219)" fill="#06b490"/>
      <circle id="Ellipse_11142" data-name="Ellipse 11142" cx="5.371" cy="5.371" r="5.371" transform="translate(103.369 143.044)" fill="#06b490"/>
    </g>
  </g>
</svg>
