<svg id="fav" xmlns="http://www.w3.org/2000/svg" width="34.997" height="33.877" viewBox="0 0 34.997 33.877">
  <path id="Path_129837" data-name="Path 129837" d="M1227.6,1709.356a2.128,2.128,0,0,0-1.819-1.525l-9.2-1.055-4.434-9.149a2.158,2.158,0,0,0-1.942-1.222,2.133,2.133,0,0,0-1.942,1.222l-4.434,9.149-9.2,1.055a2.142,2.142,0,0,0-1.83,1.525,2.111,2.111,0,0,0,.7,2.269l3.581,2.985,1.493-1.044-3.951-3.288a.4.4,0,0,1-.135-.427.407.407,0,0,1,.348-.281l9.676-1.1a.871.871,0,0,0,.7-.494l4.647-9.586a.361.361,0,0,1,.359-.224.378.378,0,0,1,.359.224l4.647,9.586a.854.854,0,0,0,.685.494l9.687,1.1a.4.4,0,0,1,.213.707l-7.667,6.375a.864.864,0,0,0-.292.865l2.278,10.518a.358.358,0,0,1-.157.4.39.39,0,0,1-.438.024l-8.868-5.332a.9.9,0,0,0-.449-.123.975.975,0,0,0-.46.123l-8.868,5.332a.393.393,0,0,1-.438-.024.375.375,0,0,1-.157-.4l2.29-10.518a.871.871,0,0,0-.3-.865l-2.267-1.885-1.493,1.043,2.234,1.853-2.178,9.989a2.146,2.146,0,0,0,.853,2.212,2.113,2.113,0,0,0,2.369.1l8.419-5.051,8.419,5.051a2.153,2.153,0,0,0,3.21-2.312l-2.166-9.989,7.251-6.039A2.106,2.106,0,0,0,1227.6,1709.356Z" transform="translate(-1192.7 -1696.404)" fill="#06b490"/>
  <path id="Path_129838" data-name="Path 129838" d="M16.864,6.92H15.152V10.1H11.968v1.712h3.184V15h1.712V11.816h3.184V10.1H16.864Z" transform="translate(2.031 6.871)" fill="#06b490"/>
</svg>
