<svg id="imgLocation" xmlns="http://www.w3.org/2000/svg" width="217" height="46.79" viewBox="0 0 217 46.79">
  <g id="social" transform="translate(0 34.902)">
    <text id="WWW.GAMI.GOV.SA" transform="translate(75.473 9.047)" fill="#004a4d" font-size="8" font-family="Roboto-Medium, Roboto" font-weight="500" style="isolation: isolate"><tspan x="0" y="0">WWW.GAMI.GOV.SA</tspan></text>
    <text id="GAMI_KSA" transform="translate(28.703 8.826)" fill="#004a4d" font-size="8" font-family="Roboto-Light, Roboto" font-weight="300" style="isolation: isolate"><tspan x="0" y="0">GAMI_KSA</tspan></text>
    <g id="Group_128729" data-name="Group 128729" transform="translate(13.376)">
      <path id="Path_129832" data-name="Path 129832" d="M-535.019,423.214h1.1v3.53h-1.1Zm.549-1.756a.637.637,0,0,1,.633.638.637.637,0,0,1-.639.633.637.637,0,0,1-.632-.633.637.637,0,0,1,.633-.638h0" transform="translate(538.45 -418.114)" fill="#004a4d"/>
      <path id="Path_129833" data-name="Path 129833" d="M-533.485,422.989h1.053v.482h.014a1.151,1.151,0,0,1,1.038-.574c1.115,0,1.32.73,1.32,1.685v1.934h-1.1V424.79c0-.408,0-.934-.575-.934s-.659.445-.659.9v1.745h-1.1Z" transform="translate(538.702 -417.89)" fill="#004a4d"/>
      <path id="Path_129834" data-name="Path 129834" d="M-526.117,424.59v-.043a5.942,5.942,0,0,0-5.9-5.983,5.941,5.941,0,0,0-5.982,5.9,5.94,5.94,0,0,0,5.9,5.983,5.942,5.942,0,0,0,5.955-5.356l-.417.288h0A5.521,5.521,0,0,1-532.855,430a5.52,5.52,0,0,1-4.625-6.292,5.52,5.52,0,0,1,6.292-4.625,5.521,5.521,0,0,1,4.688,5.455v.315Z" transform="translate(538 -418.564)" fill="#004a4d"/>
    </g>
    <g id="Group_128730" data-name="Group 128730">
      <path id="Path_129835" data-name="Path 129835" d="M-540.911,422.152a2.478,2.478,0,0,1-.627.178c.1-.017.251-.2.311-.269a1.189,1.189,0,0,0,.2-.383v-.032a.045.045,0,0,0-.035,0,3.2,3.2,0,0,1-.74.288.051.051,0,0,1-.054-.014.5.5,0,0,0-.064-.066,1.275,1.275,0,0,0-.911-.309,1.278,1.278,0,0,0-.523.147,1.316,1.316,0,0,0-.419.346,1.249,1.249,0,0,0-.255.506,1.371,1.371,0,0,0,0,.532c0,.029,0,.035-.027.029a3.954,3.954,0,0,1-2.549-1.3c-.029-.035-.046-.035-.073,0a1.3,1.3,0,0,0,.222,1.526c.052.045.1.095.155.138a1.274,1.274,0,0,1-.489-.138c-.031-.017-.045,0-.049.025a1.052,1.052,0,0,0,0,.147,1.311,1.311,0,0,0,.805,1.043.8.8,0,0,0,.163.049,1.5,1.5,0,0,1-.482.015c-.035,0-.05,0-.035.045a1.355,1.355,0,0,0,1.011.863.826.826,0,0,1,.141.02h0a1.56,1.56,0,0,1-.692.367,2.453,2.453,0,0,1-1.053.135h-.083c-.014,0,0,.023,0,.038.075.049.147.089.218.129a3.3,3.3,0,0,0,.7.287,3.733,3.733,0,0,0,3.635-.862,3.809,3.809,0,0,0,1.006-2.783c0-.04.046-.06.078-.08a2.49,2.49,0,0,0,.492-.518.152.152,0,0,0,.034-.1h0c0-.014,0,0-.025,0" transform="translate(549.966 -418.1)" fill="#004a4d"/>
      <path id="Path_129836" data-name="Path 129836" d="M-537.692,424.59v-.043a5.941,5.941,0,0,0-5.9-5.983,5.941,5.941,0,0,0-5.984,5.9,5.942,5.942,0,0,0,5.9,5.983,5.941,5.941,0,0,0,5.955-5.356l-.416.288h0A5.522,5.522,0,0,1-544.429,430a5.522,5.522,0,0,1-4.626-6.292,5.52,5.52,0,0,1,6.292-4.625,5.52,5.52,0,0,1,4.688,5.455v.315Z" transform="translate(549.575 -418.564)" fill="#004a4d"/>
    </g>
    <rect id="Rectangle_14525" data-name="Rectangle 14525" width="0.213" height="10.512" transform="translate(70.718 1.376)" fill="#004a4d"/>
  </g>
  <text id="Eastern_Ring_Road_King_Abdullah_District" data-name="Eastern Ring Road, King Abdullah District" transform="translate(0 13)" fill="#004a4d" font-size="11.958" font-family="Roboto-Regular, Roboto" style="isolation: isolate"><tspan x="0" y="0">Eastern Ring Road, King Abdullah District</tspan></text>
  <text id="Saudi_Arabia_12426_Riyadh" data-name="Saudi Arabia ,12426 Riyadh" transform="translate(0 28.937)" fill="#004a4d" font-size="12" font-family="Roboto-Regular, Roboto" style="isolation: isolate"><tspan x="0" y="0">Saudi Arabia ,12426 Riyadh</tspan></text>
</svg>
