<svg xmlns="http://www.w3.org/2000/svg" width="24.007" height="24.051" viewBox="0 0 24.007 24.051">
  <g id="phoneEmp" transform="translate(-2.323 -2.53)" opacity="0.98">
    <path id="phone" d="M2.113,18.508v3.319A2.213,2.213,0,0,0,4.525,24.04a21.9,21.9,0,0,0,9.549-3.4A21.575,21.575,0,0,0,20.712,14a21.9,21.9,0,0,0,3.4-9.593A2.213,2.213,0,0,0,21.907,2H18.587a2.213,2.213,0,0,0-2.213,1.9A14.206,14.206,0,0,1,15.6,7.012a2.213,2.213,0,0,0,.5,2.335L17.5,10.752a17.7,17.7,0,0,1-6.639,6.639L9.459,15.985a2.213,2.213,0,0,0-2.335-.5,14.207,14.207,0,0,1-3.109.774,2.213,2.213,0,0,0-1.9,2.246Z" transform="translate(1.212 1.53)" fill="none" stroke="#004a4d" stroke-linecap="round" stroke-linejoin="round" stroke-width="2"/>
  </g>
</svg>
