<svg xmlns="http://www.w3.org/2000/svg" xmlns:xlink="http://www.w3.org/1999/xlink" width="684.294" height="312" viewBox="0 0 684.294 312">
  <defs>
    <clipPath id="clip-path">
      <rect id="Rectangle_47" data-name="Rectangle 47" width="127.265" height="71.492" fill="none"/>
    </clipPath>
    <clipPath id="clip-path-2">
      <rect id="Rectangle_14495" data-name="Rectangle 14495" width="156" height="112" fill="#fff" stroke="#707070" stroke-width="1"/>
    </clipPath>
  </defs>
  <g id="Signature" transform="translate(0.5 0.5)">
    <rect id="bg" width="683.294" height="311" fill="#fff" stroke="#49bb95" stroke-miterlimit="10" stroke-width="1"/>
    <rect id="bg-2" data-name="bg" width="681.147" height="147" transform="translate(1 163)" fill="#f6f6f6"/>
    <g id="logo" transform="translate(520.007 202.39)">
      <path id="Path_398" data-name="Path 398" d="M446.446,4.92l-1.559,8.159L454.389,0Z" transform="translate(-375.511 0)" fill="#49bb95"/>
      <path id="Path_399" data-name="Path 399" d="M444.886,13.079l7.278-4L454.389,0Z" transform="translate(-375.511 0)" fill="#10484c"/>
      <path id="Path_400" data-name="Path 400" d="M452.165,58.193l-7.278,4h13.752Z" transform="translate(-375.511 -49.118)" fill="#0e8674"/>
      <path id="Path_401" data-name="Path 401" d="M417.634,0l4.25,13.079,1.559-8.159Z" transform="translate(-352.508 0)" fill="#0e8674"/>
      <path id="Path_402" data-name="Path 402" d="M385.394,202.639l3.534,8.649V195.121Z" transform="translate(-325.296 -164.694)" fill="#49bb95"/>
      <path id="Path_403" data-name="Path 403" d="M408.06,211.288l3.534-8.649-3.534-7.518Z" transform="translate(-344.427 -164.694)" fill="#10484c"/>
      <path id="Path_404" data-name="Path 404" d="M408.06,195.121l3.534,7.518,7.591.566Z" transform="translate(-344.427 -164.694)" fill="#0e8674"/>
      <path id="Path_405" data-name="Path 405" d="M336.713,203.2l7.591-.566,3.534-7.518Z" transform="translate(-284.206 -164.694)" fill="#0e8674"/>
      <path id="Path_406" data-name="Path 406" d="M257.008,145.906l-7.133,6.034,15.375-5Z" transform="translate(-210.909 -123.153)" fill="#49bb95"/>
      <path id="Path_407" data-name="Path 407" d="M249.875,157.56l9.318.689,6.057-5.684Z" transform="translate(-210.91 -128.774)" fill="#10484c"/>
      <path id="Path_408" data-name="Path 408" d="M309.628,158.248l1.808,7.395,4.25-13.079Z" transform="translate(-261.344 -128.773)" fill="#0e8674"/>
      <path id="Path_409" data-name="Path 409" d="M277.127,100.728l2.884,7.045,8.242,1.038Z" transform="translate(-233.912 -85.021)" fill="#0e8674"/>
      <path id="Path_410" data-name="Path 410" d="M310.3,0l2.224,9.074,7.278,4Z" transform="translate(-261.909 0)" fill="#49bb95"/>
      <path id="Path_411" data-name="Path 411" d="M310.3,0l9.5,13.079L318.24,4.92Z" transform="translate(-261.909 0)" fill="#10484c"/>
      <path id="Path_412" data-name="Path 412" d="M361.233,4.92l1.559,8.159L367.042,0Z" transform="translate(-304.902 0)" fill="#0e8674"/>
      <path id="Path_413" data-name="Path 413" d="M283.045,62.2H296.8l-7.278-4Z" transform="translate(-238.907 -49.118)" fill="#0e8674"/>
      <path id="Path_414" data-name="Path 414" d="M475.888,145.906l-8.242,1.038,15.375,5Z" transform="translate(-394.721 -123.153)" fill="#49bb95"/>
      <path id="Path_415" data-name="Path 415" d="M467.646,152.564l6.058,5.685,9.318-.689Z" transform="translate(-394.721 -128.773)" fill="#10484c"/>
      <path id="Path_416" data-name="Path 416" d="M471.9,165.643l1.808-7.395-6.058-5.685Z" transform="translate(-394.721 -128.773)" fill="#0e8674"/>
      <path id="Path_417" data-name="Path 417" d="M478.772,100.728l-11.126,8.083,8.242-1.038Z" transform="translate(-394.722 -85.02)" fill="#0e8674"/>
      <g id="Group_11" data-name="Group 11">
        <g id="Group_10" data-name="Group 10" clip-path="url(#clip-path)">
          <path id="Path_418" data-name="Path 418" d="M3.266,399.267v.323h.621v-2.553H1.953v.6H3.2v.339a1.182,1.182,0,0,1-.075.423,1.07,1.07,0,0,1-.211.345.951.951,0,0,1-.329.23,1.091,1.091,0,0,1-.433.083,1.374,1.374,0,0,1-.727-.172,1.3,1.3,0,0,1-.446-.459,2.012,2.012,0,0,1-.234-.664,4.466,4.466,0,0,1-.067-.771,3.557,3.557,0,0,1,.1-.876,2.143,2.143,0,0,1,.276-.653,1.244,1.244,0,0,1,.415-.4,1.069,1.069,0,0,1,.538-.136,1.15,1.15,0,0,1,.444.08,1.07,1.07,0,0,1,.336.22,1.213,1.213,0,0,1,.239.333,1.974,1.974,0,0,1,.15.419l.025.106.648-.115-.022-.114a2.2,2.2,0,0,0-.214-.613,1.736,1.736,0,0,0-.379-.486,1.709,1.709,0,0,0-.531-.317,1.94,1.94,0,0,0-1.466.066,1.9,1.9,0,0,0-.651.523,2.552,2.552,0,0,0-.433.835A3.733,3.733,0,0,0,0,396.993a3.981,3.981,0,0,0,.145,1.126,2.484,2.484,0,0,0,.415.836,1.822,1.822,0,0,0,.646.524,1.863,1.863,0,0,0,.813.18,2.2,2.2,0,0,0,.867-.144,1.388,1.388,0,0,0,.379-.248" transform="translate(0 -332.837)" fill="#102145"/>
          <path id="Path_419" data-name="Path 419" d="M32.727,407.172a2.063,2.063,0,0,0,.481-.051,1.332,1.332,0,0,0,.4-.166,1.5,1.5,0,0,0,.335-.29,2.921,2.921,0,0,0,.3-.422l.062-.1-.536-.285-.057.088a3.755,3.755,0,0,1-.243.34,1.044,1.044,0,0,1-.21.2.679.679,0,0,1-.218.1,1.112,1.112,0,0,1-.277.031.943.943,0,0,1-.466-.109.911.911,0,0,1-.319-.294,1.363,1.363,0,0,1-.187-.444,2.33,2.33,0,0,1-.06-.436h2.487v-.115a3.244,3.244,0,0,0-.089-.784,1.836,1.836,0,0,0-.283-.63,1.364,1.364,0,0,0-.488-.42,1.614,1.614,0,0,0-1.351,0,1.429,1.429,0,0,0-.5.411,1.91,1.91,0,0,0-.311.625,2.749,2.749,0,0,0-.108.789,2.152,2.152,0,0,0,.442,1.476,1.541,1.541,0,0,0,1.2.5m-.07-3.383a.756.756,0,0,1,.633.285,1.536,1.536,0,0,1,.269.7H31.734a1.456,1.456,0,0,1,.051-.245h0a1.23,1.23,0,0,1,.173-.362.967.967,0,0,1,.289-.27.771.771,0,0,1,.409-.1" transform="translate(-26.238 -340.35)" fill="#102145"/>
          <path id="Path_420" data-name="Path 420" d="M60.29,407.1v-2.556a1.5,1.5,0,0,0-.276-.966,1.092,1.092,0,0,0-.9-.352,1.372,1.372,0,0,0-.723.182,2.584,2.584,0,0,0-.386.293V403.3h-.642v3.8h.642v-2.7q.15-.132.273-.246a2.215,2.215,0,0,1,.255-.206,1.068,1.068,0,0,1,.238-.124.777.777,0,0,1,.261-.041.532.532,0,0,1,.476.183,1.116,1.116,0,0,1,.139.617V407.1Z" transform="translate(-48.42 -340.35)" fill="#102145"/>
          <path id="Path_421" data-name="Path 421" d="M84.682,405.944a3.815,3.815,0,0,1-.243.34,1.052,1.052,0,0,1-.21.2.679.679,0,0,1-.218.1,1.112,1.112,0,0,1-.277.031.942.942,0,0,1-.466-.109.91.91,0,0,1-.319-.294,1.36,1.36,0,0,1-.187-.444,2.331,2.331,0,0,1-.06-.436h2.487v-.115a3.243,3.243,0,0,0-.089-.784,1.827,1.827,0,0,0-.283-.63,1.361,1.361,0,0,0-.487-.42,1.614,1.614,0,0,0-1.351,0,1.431,1.431,0,0,0-.5.411,1.91,1.91,0,0,0-.311.625,2.749,2.749,0,0,0-.108.789,2.152,2.152,0,0,0,.442,1.476,1.541,1.541,0,0,0,1.2.5,2.063,2.063,0,0,0,.481-.051,1.333,1.333,0,0,0,.4-.166,1.5,1.5,0,0,0,.335-.29,2.921,2.921,0,0,0,.3-.422l.062-.1-.536-.285Zm-1.054-2.154a.756.756,0,0,1,.633.285,1.534,1.534,0,0,1,.269.7H82.706a1.473,1.473,0,0,1,.051-.245h0a1.234,1.234,0,0,1,.173-.362.966.966,0,0,1,.289-.27.771.771,0,0,1,.409-.1" transform="translate(-69.262 -340.35)" fill="#102145"/>
          <path id="Path_422" data-name="Path 422" d="M109.049,403.463a1.433,1.433,0,0,0-.245.241V403.3h-.642v3.8h.642v-2.136a1.05,1.05,0,0,1,.09-.431,1.279,1.279,0,0,1,.233-.357,1.171,1.171,0,0,1,.307-.238.648.648,0,0,1,.3-.083h.3v-.628h-.3a1.1,1.1,0,0,0-.686.234" transform="translate(-91.295 -340.35)" fill="#102145"/>
          <path id="Path_423" data-name="Path 423" d="M125.68,406.635q-.01-.164-.01-.3v-1.87a1.215,1.215,0,0,0-.331-.945,1.441,1.441,0,0,0-.981-.29,1.508,1.508,0,0,0-1.428.872l-.052.1.464.279.06-.093a1.482,1.482,0,0,1,.424-.444.918.918,0,0,1,.519-.15.8.8,0,0,1,.558.145.625.625,0,0,1,.145.455v.156c-.33.074-.632.146-.9.214a3.349,3.349,0,0,0-.744.275,1.255,1.255,0,0,0-.48.428,1.22,1.22,0,0,0-.165.659.978.978,0,0,0,.321.778,1.15,1.15,0,0,0,.776.272,2.2,2.2,0,0,0,.4-.033,1.727,1.727,0,0,0,.342-.1,1.915,1.915,0,0,0,.319-.168c.05-.033.1-.068.154-.106l.043.338h.638l-.026-.136a2.62,2.62,0,0,1-.043-.333m-.652-1.523v.978a1.979,1.979,0,0,1-.533.377.882.882,0,0,1-.954.017.461.461,0,0,1-.14-.368.754.754,0,0,1,.05-.278.59.59,0,0,1,.215-.238,2.215,2.215,0,0,1,.535-.257,8.082,8.082,0,0,1,.827-.232" transform="translate(-103.616 -340.35)" fill="#102145"/>
          <path id="Path_424" data-name="Path 424" d="M150.076,393.294l-.642.229v5.194h.642Z" transform="translate(-126.132 -331.964)" fill="#102145"/>
          <path id="Path_425" data-name="Path 425" d="M176.592,399.958h.722l-1.64-5.194h-.862l-1.662,5.194h.722l.509-1.623h1.708Zm-.677-2.223H174.57l.669-2.126Z" transform="translate(-146.149 -333.205)" fill="#102145"/>
          <path id="Path_426" data-name="Path 426" d="M207.364,406.37c-.1.092-.19.174-.272.247a2.49,2.49,0,0,1-.256.2,1.057,1.057,0,0,1-.239.124.773.773,0,0,1-.26.041.531.531,0,0,1-.476-.184,1.111,1.111,0,0,1-.138-.616v-2.514h-.642v2.556a1.5,1.5,0,0,0,.277.966,1.092,1.092,0,0,0,.9.352,1.373,1.373,0,0,0,.723-.182,2.572,2.572,0,0,0,.386-.293v.406h.642v-3.8h-.642Z" transform="translate(-173.101 -340.723)" fill="#102145"/>
          <path id="Path_427" data-name="Path 427" d="M230.589,399.9v-.606l-.153.054a1.248,1.248,0,0,1-.189.05,1.042,1.042,0,0,1-.192.019c-.18,0-.25-.07-.25-.25v-2.505h.784V396.1h-.784v-1.4l-.642.229V396.1h-.536v.559h.536v2.574a.714.714,0,0,0,.208.564,1.029,1.029,0,0,0,.684.176,1.073,1.073,0,0,0,.235-.027c.068-.015.134-.027.2-.036Z" transform="translate(-192.975 -333.155)" fill="#102145"/>
          <path id="Path_428" data-name="Path 428" d="M247.674,395.444a.772.772,0,0,1,.261-.042.532.532,0,0,1,.476.183,1.115,1.115,0,0,1,.139.617v2.514h.642v-2.556a1.5,1.5,0,0,0-.276-.966,1.092,1.092,0,0,0-.9-.352,1.372,1.372,0,0,0-.723.182,2.594,2.594,0,0,0-.386.294v-2.025l-.642.229v5.194h.642v-2.7q.15-.132.273-.246a2.223,2.223,0,0,1,.255-.206,1.07,1.07,0,0,1,.238-.124" transform="translate(-207.863 -331.964)" fill="#102145"/>
          <path id="Path_429" data-name="Path 429" d="M273.3,407a1.386,1.386,0,0,0,.494-.449,1.831,1.831,0,0,0,.261-.631,3.528,3.528,0,0,0,0-1.444,1.833,1.833,0,0,0-.261-.631,1.388,1.388,0,0,0-.494-.449,1.776,1.776,0,0,0-1.513,0,1.389,1.389,0,0,0-.494.449,1.832,1.832,0,0,0-.261.631,3.53,3.53,0,0,0,0,1.444,1.832,1.832,0,0,0,.261.63,1.388,1.388,0,0,0,.494.449,1.779,1.779,0,0,0,1.513,0m-.756-.39a.77.77,0,0,1-.711-.345,2.555,2.555,0,0,1,0-2.133.9.9,0,0,1,1.422,0,2.555,2.555,0,0,1,0,2.133.77.77,0,0,1-.711.345" transform="translate(-228.706 -340.35)" fill="#102145"/>
          <path id="Path_430" data-name="Path 430" d="M298.936,403.857v-.628h-.3a1.1,1.1,0,0,0-.686.234,1.435,1.435,0,0,0-.245.241V403.3h-.642v3.8h.642v-2.136a1.05,1.05,0,0,1,.09-.431,1.273,1.273,0,0,1,.233-.357,1.173,1.173,0,0,1,.307-.238.647.647,0,0,1,.3-.083Z" transform="translate(-250.739 -340.35)" fill="#102145"/>
          <rect id="Rectangle_38" data-name="Rectangle 38" width="0.642" height="3.805" transform="translate(48.978 62.949)" fill="#102145"/>
          <rect id="Rectangle_39" data-name="Rectangle 39" width="0.642" height="0.834" transform="translate(48.978 61.559)" fill="#102145"/>
          <path id="Path_431" data-name="Path 431" d="M324.608,399.95h0c.068-.015.134-.027.2-.036l.1-.013v-.607l-.153.054a1.261,1.261,0,0,1-.189.05,1.042,1.042,0,0,1-.192.019c-.18,0-.25-.07-.25-.25v-2.505h.784V396.1h-.784v-1.4l-.642.229V396.1h-.536v.559h.536v2.574a.714.714,0,0,0,.208.564,1.029,1.029,0,0,0,.684.176,1.089,1.089,0,0,0,.235-.027" transform="translate(-272.585 -333.155)" fill="#102145"/>
          <path id="Path_432" data-name="Path 432" d="M339.72,403.672l-.921,2.688-.909-2.688h-.7l1.286,3.639a2.5,2.5,0,0,1-.151.41,1.192,1.192,0,0,1-.181.279.508.508,0,0,1-.549.167l-.2-.031-.131-.019v.556l.084.023a1.191,1.191,0,0,0,.178.034,2.038,2.038,0,0,0,.237.011,1.442,1.442,0,0,0,.452-.064.93.93,0,0,0,.349-.208,1.3,1.3,0,0,0,.254-.347,3.482,3.482,0,0,0,.2-.469l1.387-3.982Z" transform="translate(-284.61 -340.723)" fill="#102145"/>
          <path id="Path_433" data-name="Path 433" d="M378.163,394.342a1.54,1.54,0,0,0-.242-.019.923.923,0,0,0-.748.282,1.2,1.2,0,0,0-.226.781v.394h-.591v.559h.591v3.246h.642V396.34h.729v-.559h-.729v-.442a.543.543,0,0,1,.092-.361.369.369,0,0,1,.281-.095,1.017,1.017,0,0,1,.367.062l.153.055v-.6l-.094-.017-.225-.038" transform="translate(-317.667 -332.832)" fill="#102145"/>
          <path id="Path_434" data-name="Path 434" d="M394.8,403.849a1.387,1.387,0,0,0-.494-.45,1.778,1.778,0,0,0-1.513,0,1.387,1.387,0,0,0-.494.45,1.828,1.828,0,0,0-.261.631,3.522,3.522,0,0,0,0,1.444,1.829,1.829,0,0,0,.261.63,1.389,1.389,0,0,0,.494.45,1.78,1.78,0,0,0,1.513,0,1.39,1.39,0,0,0,.494-.45,1.834,1.834,0,0,0,.261-.631,3.529,3.529,0,0,0,0-1.444,1.835,1.835,0,0,0-.261-.63M394.5,405.2a2.024,2.024,0,0,1-.233,1.067.9.9,0,0,1-1.422,0,2.555,2.555,0,0,1,0-2.133.9.9,0,0,1,1.422,0,2.024,2.024,0,0,1,.233,1.067" transform="translate(-330.842 -340.35)" fill="#102145"/>
          <path id="Path_435" data-name="Path 435" d="M418.956,403.463a1.432,1.432,0,0,0-.245.241V403.3h-.642v3.8h.642v-2.136a1.05,1.05,0,0,1,.09-.431,1.278,1.278,0,0,1,.233-.357,1.17,1.17,0,0,1,.307-.238.648.648,0,0,1,.3-.083h.3v-.628h-.3a1.1,1.1,0,0,0-.686.234" transform="translate(-352.875 -340.35)" fill="#102145"/>
          <path id="Path_436" data-name="Path 436" d="M452.678,398.738l-1.292-3.974h-1v5.194h.683v-4.026l1.308,4.026h.6l1.308-4.026v4.026h.683v-5.194h-1Z" transform="translate(-380.157 -333.205)" fill="#102145"/>
          <rect id="Rectangle_40" data-name="Rectangle 40" width="0.642" height="3.805" transform="translate(76.175 62.949)" fill="#102145"/>
          <rect id="Rectangle_41" data-name="Rectangle 41" width="0.642" height="0.834" transform="translate(76.175 61.559)" fill="#102145"/>
          <path id="Path_437" data-name="Path 437" d="M500.48,398.717h.642v-5.423l-.642.229Z" transform="translate(-422.436 -331.964)" fill="#102145"/>
          <rect id="Rectangle_42" data-name="Rectangle 42" width="0.642" height="3.805" transform="translate(79.915 62.949)" fill="#102145"/>
          <rect id="Rectangle_43" data-name="Rectangle 43" width="0.642" height="0.834" transform="translate(79.915 61.559)" fill="#102145"/>
          <path id="Path_438" data-name="Path 438" d="M522.514,394.705l-.642.229V396.1h-.536v.559h.536v2.574a.715.715,0,0,0,.208.564,1.029,1.029,0,0,0,.684.176,1.086,1.086,0,0,0,.235-.027c.068-.015.134-.027.2-.036l.1-.013v-.607l-.153.054a1.262,1.262,0,0,1-.189.05,1.043,1.043,0,0,1-.192.019c-.18,0-.25-.07-.25-.25v-2.505h.784V396.1h-.784Z" transform="translate(-440.039 -333.155)" fill="#102145"/>
          <path id="Path_439" data-name="Path 439" d="M539.427,406.635q-.01-.164-.01-.3v-1.87a1.215,1.215,0,0,0-.331-.945,1.441,1.441,0,0,0-.981-.29,1.508,1.508,0,0,0-1.428.872l-.052.1.464.279.06-.093a1.481,1.481,0,0,1,.424-.444.917.917,0,0,1,.518-.15.8.8,0,0,1,.558.145.625.625,0,0,1,.145.455v.156c-.33.074-.632.146-.9.214a3.35,3.35,0,0,0-.744.275,1.254,1.254,0,0,0-.479.428,1.22,1.22,0,0,0-.165.659.978.978,0,0,0,.321.778,1.15,1.15,0,0,0,.776.272,2.2,2.2,0,0,0,.4-.033,1.725,1.725,0,0,0,.342-.1,1.921,1.921,0,0,0,.319-.168c.05-.033.1-.068.154-.106l.043.338h.638l-.026-.136a2.648,2.648,0,0,1-.043-.333m-.652-1.523v.978a1.978,1.978,0,0,1-.533.377.882.882,0,0,1-.954.017.461.461,0,0,1-.14-.368.754.754,0,0,1,.05-.278.591.591,0,0,1,.215-.238,2.215,2.215,0,0,1,.535-.257,8.09,8.09,0,0,1,.827-.232" transform="translate(-452.843 -340.35)" fill="#102145"/>
          <path id="Path_440" data-name="Path 440" d="M563.936,403.463a1.434,1.434,0,0,0-.245.241V403.3h-.642v3.8h.642v-2.136a1.051,1.051,0,0,1,.09-.431,1.279,1.279,0,0,1,.233-.357,1.17,1.17,0,0,1,.307-.238.647.647,0,0,1,.3-.083h.3v-.628h-.3a1.1,1.1,0,0,0-.686.234" transform="translate(-475.247 -340.35)" fill="#102145"/>
          <path id="Path_441" data-name="Path 441" d="M578.33,406.36l-.909-2.688h-.7l1.286,3.639a2.512,2.512,0,0,1-.151.41,1.19,1.19,0,0,1-.181.279.508.508,0,0,1-.549.167l-.2-.031-.131-.019v.556l.084.023a1.2,1.2,0,0,0,.178.034,2.036,2.036,0,0,0,.237.011,1.443,1.443,0,0,0,.452-.064.927.927,0,0,0,.349-.208,1.3,1.3,0,0,0,.254-.347,3.478,3.478,0,0,0,.2-.469l1.387-3.982h-.683Z" transform="translate(-486.789 -340.723)" fill="#102145"/>
          <path id="Path_442" data-name="Path 442" d="M617.417,398.717h.683v-5.423l-.683.229Z" transform="translate(-521.137 -331.964)" fill="#102145"/>
          <path id="Path_443" data-name="Path 443" d="M632.573,403.23a1.372,1.372,0,0,0-.723.182,2.583,2.583,0,0,0-.386.293V403.3h-.642v3.8h.642v-2.7q.15-.132.273-.246a2.236,2.236,0,0,1,.255-.206,1.065,1.065,0,0,1,.238-.124.773.773,0,0,1,.261-.041.532.532,0,0,1,.476.183,1.116,1.116,0,0,1,.138.617V407.1h.642v-2.556a1.505,1.505,0,0,0-.276-.966,1.093,1.093,0,0,0-.9-.352" transform="translate(-532.452 -340.35)" fill="#102145"/>
          <path id="Path_444" data-name="Path 444" d="M658.044,395.227a1.811,1.811,0,0,0-.345-.239,1.422,1.422,0,0,0-.661-.144,1.322,1.322,0,0,0-.624.151,1.447,1.447,0,0,0-.486.418,2.01,2.01,0,0,0-.307.62,2.615,2.615,0,0,0-.108.763,2.383,2.383,0,0,0,.392,1.469,1.382,1.382,0,0,0,1.16.523,1.745,1.745,0,0,0,.706-.137,1.235,1.235,0,0,0,.365-.248l.047.316h.5v-5.423l-.642.229Zm-.358.385a1.764,1.764,0,0,1,.229.2,1.237,1.237,0,0,1,.129.154v1.689a1.95,1.95,0,0,1-.4.413.908.908,0,0,1-.557.163.8.8,0,0,1-.407-.1.86.86,0,0,1-.288-.277,1.323,1.323,0,0,1-.177-.43,2.458,2.458,0,0,1-.059-.552,2.661,2.661,0,0,1,.066-.613,1.454,1.454,0,0,1,.191-.462.888.888,0,0,1,.3-.29.868.868,0,0,1,.432-.1.694.694,0,0,1,.265.057,1.331,1.331,0,0,1,.272.152" transform="translate(-553.293 -331.965)" fill="#102145"/>
          <path id="Path_445" data-name="Path 445" d="M686.547,406.37c-.1.092-.19.174-.271.247a2.494,2.494,0,0,1-.256.2,1.06,1.06,0,0,1-.239.124.773.773,0,0,1-.26.041.531.531,0,0,1-.476-.184,1.112,1.112,0,0,1-.138-.616v-2.514h-.642v2.556a1.5,1.5,0,0,0,.277.966,1.092,1.092,0,0,0,.9.352,1.373,1.373,0,0,0,.723-.182,2.569,2.569,0,0,0,.386-.293v.406h.642v-3.8h-.642Z" transform="translate(-577.56 -340.723)" fill="#102145"/>
          <path id="Path_446" data-name="Path 446" d="M710.483,405.069a2.475,2.475,0,0,0-.533-.2c-.18-.045-.349-.094-.5-.145a1.257,1.257,0,0,1-.356-.179.283.283,0,0,1-.109-.245.442.442,0,0,1,.156-.385.728.728,0,0,1,.438-.126.828.828,0,0,1,.472.125,1.485,1.485,0,0,1,.363.364l.066.091.5-.346-.057-.092a1.5,1.5,0,0,0-.525-.517,1.6,1.6,0,0,0-.8-.184,1.713,1.713,0,0,0-.465.063,1.172,1.172,0,0,0-.4.2,1.014,1.014,0,0,0-.279.341,1.068,1.068,0,0,0-.105.489.845.845,0,0,0,.183.57,1.238,1.238,0,0,0,.428.315,2.718,2.718,0,0,0,.531.176,3.945,3.945,0,0,1,.494.143,1.07,1.07,0,0,1,.351.2.4.4,0,0,1,.117.318.482.482,0,0,1-.05.217.6.6,0,0,1-.141.182.662.662,0,0,1-.214.123,1.2,1.2,0,0,1-.579.02.912.912,0,0,1-.247-.086,1,1,0,0,1-.232-.167,1.76,1.76,0,0,1-.232-.278l-.066-.1-.489.344.062.093a1.664,1.664,0,0,0,.657.589,1.873,1.873,0,0,0,.82.183,1.7,1.7,0,0,0,.5-.074,1.411,1.411,0,0,0,.43-.214,1.08,1.08,0,0,0,.308-.354,1.119,1.119,0,0,0-.061-1.1,1.234,1.234,0,0,0-.428-.36" transform="translate(-597.761 -340.35)" fill="#102145"/>
          <path id="Path_447" data-name="Path 447" d="M730.77,394.705l-.642.229V396.1h-.536v.559h.536v2.574a.714.714,0,0,0,.208.564,1.029,1.029,0,0,0,.684.176,1.086,1.086,0,0,0,.235-.027c.068-.015.134-.027.2-.036l.1-.013v-.607l-.153.054a1.263,1.263,0,0,1-.189.05,1.042,1.042,0,0,1-.192.019c-.18,0-.25-.07-.25-.25v-2.505h.784V396.1h-.784Z" transform="translate(-615.819 -333.155)" fill="#102145"/>
          <path id="Path_448" data-name="Path 448" d="M747.941,403.463a1.432,1.432,0,0,0-.245.241V403.3h-.642v3.8h.642v-2.136a1.05,1.05,0,0,1,.09-.431,1.278,1.278,0,0,1,.233-.357,1.172,1.172,0,0,1,.307-.238.648.648,0,0,1,.3-.083h.3v-.628h-.3a1.1,1.1,0,0,0-.686.234" transform="translate(-630.559 -340.35)" fill="#102145"/>
          <rect id="Rectangle_44" data-name="Rectangle 44" width="0.642" height="3.805" transform="translate(119.15 62.949)" fill="#102145"/>
          <rect id="Rectangle_45" data-name="Rectangle 45" width="0.642" height="0.834" transform="translate(119.15 61.559)" fill="#102145"/>
          <path id="Path_449" data-name="Path 449" d="M776.708,405.944a3.719,3.719,0,0,1-.243.34,1.046,1.046,0,0,1-.21.2.68.68,0,0,1-.218.1,1.112,1.112,0,0,1-.277.031.943.943,0,0,1-.466-.109.912.912,0,0,1-.319-.294,1.363,1.363,0,0,1-.187-.444,2.334,2.334,0,0,1-.06-.436h2.487v-.115a3.245,3.245,0,0,0-.089-.784,1.831,1.831,0,0,0-.283-.63,1.362,1.362,0,0,0-.487-.42,1.614,1.614,0,0,0-1.351,0,1.427,1.427,0,0,0-.5.411,1.909,1.909,0,0,0-.311.625,2.75,2.75,0,0,0-.108.789,2.151,2.151,0,0,0,.442,1.476,1.541,1.541,0,0,0,1.2.5,2.063,2.063,0,0,0,.481-.051,1.333,1.333,0,0,0,.4-.166,1.5,1.5,0,0,0,.335-.29,2.918,2.918,0,0,0,.3-.422l.062-.1-.536-.285Zm-1.054-2.154a.756.756,0,0,1,.633.285,1.534,1.534,0,0,1,.269.7h-1.824a1.452,1.452,0,0,1,.051-.245h0a1.231,1.231,0,0,1,.173-.362.967.967,0,0,1,.289-.27.774.774,0,0,1,.409-.1" transform="translate(-653.373 -340.35)" fill="#102145"/>
          <path id="Path_450" data-name="Path 450" d="M800.288,405.428a1.238,1.238,0,0,0-.428-.36,2.491,2.491,0,0,0-.534-.2c-.18-.045-.349-.094-.5-.145a1.257,1.257,0,0,1-.356-.179.282.282,0,0,1-.109-.246.442.442,0,0,1,.155-.385.729.729,0,0,1,.438-.126.828.828,0,0,1,.472.125,1.482,1.482,0,0,1,.363.364l.066.091.5-.346-.057-.093a1.5,1.5,0,0,0-.525-.517,1.6,1.6,0,0,0-.8-.184,1.714,1.714,0,0,0-.465.063,1.17,1.17,0,0,0-.4.2,1.012,1.012,0,0,0-.279.341,1.067,1.067,0,0,0-.105.489.844.844,0,0,0,.183.57,1.236,1.236,0,0,0,.427.315,2.708,2.708,0,0,0,.531.176,3.935,3.935,0,0,1,.494.143,1.065,1.065,0,0,1,.351.2.4.4,0,0,1,.117.317.48.48,0,0,1-.05.217.591.591,0,0,1-.141.182.661.661,0,0,1-.214.123,1.2,1.2,0,0,1-.579.02.91.91,0,0,1-.248-.086,1,1,0,0,1-.232-.167,1.772,1.772,0,0,1-.232-.278l-.066-.1-.489.345.063.093a1.666,1.666,0,0,0,.657.589,1.874,1.874,0,0,0,.82.183,1.7,1.7,0,0,0,.5-.074,1.415,1.415,0,0,0,.43-.213,1.081,1.081,0,0,0,.308-.354,1.12,1.12,0,0,0-.061-1.1" transform="translate(-673.201 -340.35)" fill="#102145"/>
          <path id="Path_451" data-name="Path 451" d="M458.591,351.156h3.78a1.007,1.007,0,0,0,.953-.542,1.665,1.665,0,0,0,1.47.542h1.585v-1.791c0-1.156-.545-1.742-1.621-1.742a1.738,1.738,0,0,0-1.791,1.912c0,.87-.287.987-.568.987h-2.393V347.89l-.037-.014a4.439,4.439,0,0,0-1.449-.253,1.722,1.722,0,0,0-1.848,1.82c0,1.153.628,1.713,1.919,1.713m-.142-2.9a2.249,2.249,0,0,1,.8.144v2.122h-.568c-.866,0-1.236-.344-1.236-1.151a.986.986,0,0,1,1-1.115m7.176,2.266h-.746c-.8,0-1.144-.315-1.144-1.051,0-.76.364-1.215.973-1.215.634,0,.916.375.916,1.215Z" transform="translate(-385.459 -293.415)" fill="#102145"/>
          <path id="Path_452" data-name="Path 452" d="M469.143,339.93a.438.438,0,0,0,0-.875.437.437,0,1,0,0,.875" transform="translate(-395.613 -286.183)" fill="#102145"/>
          <path id="Path_453" data-name="Path 453" d="M462.438,339.93a.437.437,0,1,0-.434-.441.428.428,0,0,0,.434.441" transform="translate(-389.959 -286.183)" fill="#102145"/>
          <path id="Path_454" data-name="Path 454" d="M538.057,340.665h-3.715a1.652,1.652,0,0,1-.926-.288,1.968,1.968,0,0,0,.813-1.467c0-.56-.375-1.159-1.429-1.159a3.938,3.938,0,0,0-2.088.865l-.019.014-.066.526.045.015a3.941,3.941,0,0,1,1.492,1.04l.129.124a4.762,4.762,0,0,1-1.838.33h-3.3v-4.491l-.768-.229V341.3H530.4a5.315,5.315,0,0,0,2.4-.516,2.291,2.291,0,0,0,1.449.516h4.575v-5.125l-.768-.229Zm-5.328-2.309c.458,0,.732.239.732.639a1.284,1.284,0,0,1-.558.977c-.088-.08-.175-.163-.263-.246a4.221,4.221,0,0,0-1.162-.872,2.572,2.572,0,0,1,1.252-.5" transform="translate(-444.299 -283.558)" fill="#102145"/>
          <path id="Path_455" data-name="Path 455" d="M615.042,336.174l-.768-.229V341.3h.768Z" transform="translate(-518.483 -283.557)" fill="#102145"/>
          <path id="Path_456" data-name="Path 456" d="M648.615,339.93a.435.435,0,0,0,.427-.441.426.426,0,0,0-.427-.434.438.438,0,1,0,0,.875" transform="translate(-547.098 -286.183)" fill="#102145"/>
          <path id="Path_457" data-name="Path 457" d="M641.909,339.93a.437.437,0,0,0,0-.875.437.437,0,0,0,0,.875" transform="translate(-541.444 -286.183)" fill="#102145"/>
          <path id="Path_458" data-name="Path 458" d="M680.9,335.689h-.441c-.33,0-.5-.088-.5-.263,0-.2.214-.234.341-.234a2.418,2.418,0,0,1,.293.023l.1.011.081-.507-.055-.01a2.511,2.511,0,0,0-.394-.029c-.709,0-.96.41-.96.761a.5.5,0,0,0,.076.261c-.1-.008-.208-.013-.318-.013h-.057v.52H680.9Z" transform="translate(-573.17 -282.49)" fill="#102145"/>
          <path id="Path_459" data-name="Path 459" d="M662.184,341.3v-5.125l-.768-.229v4.721h-3.849v-.085c0-2.047-.893-3.042-2.729-3.042a6.069,6.069,0,0,0-1.687.265l-.047.015.089.592.065-.022a5.136,5.136,0,0,1,1.488-.246c1.454,0,2.075.729,2.075,2.437v.085H656v-.255c0-.985-.474-1.55-1.3-1.55a1.221,1.221,0,0,0-1.336,1.237.939.939,0,0,0,.191.573c-.036,0-.077,0-.119,0h-3.914v-2.821h-.768v2.821H644.3v-2.821h-.769v2.821h-4.055v-2.633l-.037-.014a4.441,4.441,0,0,0-1.449-.253,1.722,1.722,0,0,0-1.848,1.82c0,1.153.628,1.713,1.919,1.713Zm-24.264-2.9a2.247,2.247,0,0,1,.8.144v2.122h-.568c-.866,0-1.236-.344-1.236-1.151a.986.986,0,0,1,1-1.115m16.732,1.023c.575,0,.661.632.661,1.009v.248h-.526a.656.656,0,0,1-.739-.653.561.561,0,0,1,.6-.6" transform="translate(-536.943 -283.557)" fill="#102145"/>
          <path id="Path_460" data-name="Path 460" d="M716.839,374.353a.426.426,0,0,0-.427-.434.437.437,0,1,0,0,.875.429.429,0,0,0,.427-.441" transform="translate(-604.323 -315.61)" fill="#102145"/>
          <path id="Path_461" data-name="Path 461" d="M709.271,374.353a.428.428,0,0,0,.434.441.438.438,0,0,0,.434-.441.43.43,0,0,0-.434-.434.434.434,0,0,0-.434.434" transform="translate(-598.667 -315.61)" fill="#102145"/>
          <path id="Path_462" data-name="Path 462" d="M811.06,335.945V341.3h.768v-5.125Z" transform="translate(-684.583 -283.558)" fill="#102145"/>
          <path id="Path_463" data-name="Path 463" d="M5.9,339.913a.438.438,0,0,0,0-.875.438.438,0,0,0,0,.875" transform="translate(-4.613 -286.168)" fill="#102145"/>
          <path id="Path_464" data-name="Path 464" d="M12.6,339.913a.435.435,0,0,0,.427-.441.426.426,0,0,0-.427-.434.438.438,0,1,0,0,.875" transform="translate(-10.266 -286.168)" fill="#102145"/>
          <path id="Path_465" data-name="Path 465" d="M7.047,347.684H6.278v2.821H3.466v-2.633l-.037-.014a4.443,4.443,0,0,0-1.449-.253,1.722,1.722,0,0,0-1.848,1.82c0,1.153.628,1.713,1.919,1.713h5Zm-5.137.555a2.248,2.248,0,0,1,.8.144v2.122H2.144c-.867,0-1.236-.344-1.236-1.151a.986.986,0,0,1,1-1.115" transform="translate(-0.111 -293.4)" fill="#102145"/>
          <path id="Path_466" data-name="Path 466" d="M36.045,373.9a.437.437,0,1,0,0,.875.438.438,0,0,0,0-.875" transform="translate(-30.052 -315.596)" fill="#102145"/>
          <path id="Path_467" data-name="Path 467" d="M29.339,373.9a.434.434,0,0,0-.434.434.428.428,0,0,0,.434.441.438.438,0,0,0,.434-.441.429.429,0,0,0-.434-.434" transform="translate(-24.398 -315.596)" fill="#102145"/>
          <path id="Path_468" data-name="Path 468" d="M68.209,340.648h-2.9a1.652,1.652,0,0,1-.926-.288,1.968,1.968,0,0,0,.813-1.467c0-.56-.375-1.159-1.429-1.159a3.938,3.938,0,0,0-2.088.865l-.019.014-.066.526.045.015a3.941,3.941,0,0,1,1.492,1.04l.129.124a4.763,4.763,0,0,1-1.838.33H58.929c.022-.275.045-.651.045-.987a8.134,8.134,0,0,0-.251-2.033l-.014-.051-.753.134.016.06a7.793,7.793,0,0,1,.233,1.947c0,.234-.017.62-.051.93h-.276c-.7,0-.881-.187-.881-.909v-1.77h-.747v1.8c0,.652-.18.93-.6.93s-.611-.269-.611-.93v-1.514h-.768v1.457c0,.784-.247.938-.675.938H51.22a2.731,2.731,0,0,0-1.679-2.709l1.866-1.146V336L48.6,337.76v.558l.041.012a2.176,2.176,0,0,1,1.819,2.318H46.8v-2.821h-.768v3.49c0,1.02-.449,1.158-.888,1.158a1.969,1.969,0,0,1-.691-.117l-.066-.024-.1.661.049.013a3,3,0,0,0,.754.1c1.141,0,1.7-.6,1.706-1.827h6.792a.973.973,0,0,0,.955-.474,1.031,1.031,0,0,0,1.006.531,1.087,1.087,0,0,0,1-.542c.184.334.559.485,1.192.485h3.623a5.314,5.314,0,0,0,2.4-.516,2.291,2.291,0,0,0,1.449.516h3.758v-5.125l-.768-.229ZM63.7,338.339c.458,0,.732.239.732.639a1.283,1.283,0,0,1-.558.977c-.088-.08-.175-.163-.263-.246a4.22,4.22,0,0,0-1.162-.872,2.571,2.571,0,0,1,1.252-.5" transform="translate(-37.38 -283.543)" fill="#102145"/>
          <path id="Path_469" data-name="Path 469" d="M210.544,341.281h.768v-5.125l-.768-.229Z" transform="translate(-177.712 -283.543)" fill="#102145"/>
          <path id="Path_470" data-name="Path 470" d="M236.787,350.674h-1.151c-1.544,0-1.854-.6-1.854-1.57a2.989,2.989,0,0,1,.264-1.2l.049-.1-.836.145-.013.027a3.21,3.21,0,0,0-.24,1.2c0,1.45.811,2.125,2.552,2.125h2v-3.455h-.768Z" transform="translate(-196.671 -293.569)" fill="#102145"/>
          <path id="Path_471" data-name="Path 471" d="M249.854,339.913a.435.435,0,0,0,.427-.441.426.426,0,0,0-.427-.434.438.438,0,1,0,0,.875" transform="translate(-210.52 -286.168)" fill="#102145"/>
          <path id="Path_472" data-name="Path 472" d="M242.714,339.472a.428.428,0,0,0,.434.441.438.438,0,0,0,0-.875.429.429,0,0,0-.434.434" transform="translate(-204.865 -286.168)" fill="#102145"/>
          <path id="Path_473" data-name="Path 473" d="M274.073,339.419a.959.959,0,0,1,1-1.044,2.328,2.328,0,0,1,.823.166l.063.028.148-.642-.048-.017a3.02,3.02,0,0,0-.944-.16,1.647,1.647,0,0,0-1.813,1.7,1.448,1.448,0,0,0,.6,1.2h-3.4v-4.491l-.768-.229v5.354h6.815v-.633h-.64c-1.165,0-1.833-.448-1.833-1.229" transform="translate(-227.669 -283.543)" fill="#102145"/>
          <path id="Path_474" data-name="Path 474" d="M344.9,339.154a.445.445,0,1,0-.441-.441.445.445,0,0,0,.441.441" transform="translate(-290.741 -285.516)" fill="#102145"/>
          <path id="Path_475" data-name="Path 475" d="M337.4,340.649H334.21v-4.491l-.768-.229v4.721H331.1c.025-.353.038-.727.038-1.087,0-1.169-.512-1.813-1.443-1.813a2.114,2.114,0,0,0-1.848,1.306c.023-.275.036-.587.036-.893v-.335h-.768v2.821h-3.182v-2.821h-.768v2.821h-3.232v-4.491l-.768-.229v5.354h19v-5.125l-.768-.229Zm-7.815-2.259c.523,0,.767.395.767,1.243,0,.334-.014.693-.038,1.016h-2.427c.145-1.121.809-2.259,1.7-2.259" transform="translate(-269.396 -283.543)" fill="#102145"/>
          <rect id="Rectangle_46" data-name="Rectangle 46" width="127.245" height="0.608" transform="translate(0.021 70.884)" fill="#102145"/>
          <path id="Path_476" data-name="Path 476" d="M368.223,89.863l-8.483,4.715c0-2.175.007-7.619.013-7.611.676.9,2.047,3.268,2.07,3.276a9.028,9.028,0,0,0-.814-3.276,20.855,20.855,0,0,1,3.2,1.9,9.04,9.04,0,0,0-3.236-3.369,10.489,10.489,0,0,1,3.2-.287,8.015,8.015,0,0,0-3.346-.721,5.61,5.61,0,0,1,1.5-.959,4.275,4.275,0,0,0-2.586.526c-.2-.483-.552-1.466-.552-1.466s-.355.983-.552,1.466a4.275,4.275,0,0,0-2.586-.526,5.611,5.611,0,0,1,1.5.959,8.015,8.015,0,0,0-3.346.721,10.49,10.49,0,0,1,3.2.287,9.038,9.038,0,0,0-3.236,3.369,20.853,20.853,0,0,1,3.2-1.9,9.03,9.03,0,0,0-.814,3.276c.023-.008,1.393-2.377,2.07-3.276.007-.009.014,5.436.013,7.611l-8.483-4.715a85.888,85.888,0,0,0,7.886,5.653l-4.982,2.769a6.884,6.884,0,0,0,.761.334,2.2,2.2,0,0,0,1.871-.149l3.491-2.227,3.491,2.227a2.2,2.2,0,0,0,1.871.149,6.886,6.886,0,0,0,.761-.334l-4.982-2.769a85.884,85.884,0,0,0,7.886-5.653" transform="translate(-295.562 -69.71)" fill="#102145"/>
        </g>
      </g>
    </g>
    <g id="pattern" transform="translate(0.146 175.999)" opacity="0.5">
      <g id="Mask_Group_3" data-name="Mask Group 3" clip-path="url(#clip-path-2)">
        <g id="Group_128684" data-name="Group 128684" transform="matrix(0.819, 0.574, -0.574, 0.819, 47.553, -41.561)">
          <path id="Path_160" data-name="Path 160" d="M1.341,0,0,3.267V117.585l1.341,2.88Z" transform="translate(81.491 0)" fill="#747474"/>
          <path id="Path_161" data-name="Path 161" d="M1.341,0V111.387L0,108.507V3.267Z" transform="translate(79.51 4.826)" fill="#747474"/>
          <path id="Path_162" data-name="Path 162" d="M1.341,0V102.305L0,99.425V3.267Z" transform="translate(77.529 9.654)" fill="#747474"/>
          <path id="Path_163" data-name="Path 163" d="M1.341,0V93.217L0,90.337V3.269Z" transform="translate(75.546 14.484)" fill="#747474"/>
          <path id="Path_164" data-name="Path 164" d="M1.341,0V84.137L0,81.258V3.267Z" transform="translate(73.565 19.312)" fill="#747474"/>
          <path id="Path_165" data-name="Path 165" d="M1.341,0V75.057L0,72.178V3.269Z" transform="translate(71.583 24.139)" fill="#747474"/>
          <path id="Path_166" data-name="Path 166" d="M1.341,0V65.967L0,63.087V3.269Z" transform="translate(69.6 28.971)" fill="#747474"/>
          <path id="Path_167" data-name="Path 167" d="M1.341,0V56.885L0,54.008V3.267Z" transform="translate(67.618 33.799)" fill="#747474"/>
          <path id="Path_168" data-name="Path 168" d="M1.341,0V47.807L0,44.928V3.267Z" transform="translate(65.637 38.625)" fill="#747474"/>
          <path id="Path_169" data-name="Path 169" d="M1.341,0V38.717L0,35.838V3.267Z" transform="translate(63.654 43.457)" fill="#747474"/>
          <path id="Path_170" data-name="Path 170" d="M1.341,0V29.637L0,26.758V3.269Z" transform="translate(61.672 48.283)" fill="#747474"/>
          <path id="Path_171" data-name="Path 171" d="M1.341,0V20.557l-.033-.072L0,17.678V3.267L1.308.08Z" transform="translate(59.692 53.111)" fill="#747474"/>
          <path id="Path_172" data-name="Path 172" d="M1.341,0V20.406L.033,17.6,0,17.526V3.267l.033-.08Z" transform="translate(59.658 53.191)" fill="#747474"/>
          <path id="Path_173" data-name="Path 173" d="M1.341,0V11.328L0,8.448V3.269Z" transform="translate(57.678 58.017)" fill="#747474"/>
          <path id="Path_174" data-name="Path 174" d="M7.064,0,0,4.892.964,2.831,5.051,0Z" transform="translate(108.235 64.039)" fill="#747474"/>
          <path id="Path_175" data-name="Path 175" d="M18.049,0,0,12.5l.966-2.065L16.033,0Z" transform="translate(104.674 64.037)" fill="#747474"/>
          <path id="Path_176" data-name="Path 176" d="M29.008,0,0,20.09l.964-2.061L27,0Z" transform="translate(101.122 64.037)" fill="#747474"/>
          <path id="Path_177" data-name="Path 177" d="M39.966,0,0,27.677l.966-2.061L37.954,0Z" transform="translate(97.569 64.037)" fill="#747474"/>
          <path id="Path_178" data-name="Path 178" d="M50.931,0,0,35.272.966,33.21,48.919,0Z" transform="translate(94.015 64.035)" fill="#747474"/>
          <path id="Path_179" data-name="Path 179" d="M61.923,0,0,42.883.966,40.82,59.906,0Z" transform="translate(90.453 64.035)" fill="#747474"/>
          <path id="Path_180" data-name="Path 180" d="M72.875,0,0,50.472l.966-2.065L70.863,0Z" transform="translate(86.903 64.033)" fill="#747474"/>
          <path id="Path_181" data-name="Path 181" d="M81.717,0,.837,56.013,0,57.8,83.563,0Z" transform="translate(83.47 64.033)" fill="#747474"/>
          <path id="Path_182" data-name="Path 182" d="M0,0V120.042l2.6-5.558V6.926Z" transform="translate(84.31 0)" fill="#bcbcbc"/>
          <path id="Path_183" data-name="Path 183" d="M2.6,6.321V97.645L0,103.2V0Z" transform="translate(87.864 9.244)" fill="#bcbcbc"/>
          <path id="Path_184" data-name="Path 184" d="M2.6,6.315v75.1L0,86.969V0Z" transform="translate(91.419 17.883)" fill="#bcbcbc"/>
          <path id="Path_185" data-name="Path 185" d="M2.6,6.315V65.182L0,70.733V0Z" transform="translate(94.973 26.522)" fill="#bcbcbc"/>
          <path id="Path_186" data-name="Path 186" d="M2.6,6.315V48.948L0,54.5V0Z" transform="translate(98.527 35.161)" fill="#bcbcbc"/>
          <path id="Path_187" data-name="Path 187" d="M2.6,6.315v26.4L0,38.266V0Z" transform="translate(102.082 43.799)" fill="#bcbcbc"/>
          <path id="Path_188" data-name="Path 188" d="M2.6,6.321V16.484L0,22.042V0Z" transform="translate(105.634 52.432)" fill="#bcbcbc"/>
          <path id="Path_189" data-name="Path 189" d="M1.272,3.091,0,5.808V0Z" transform="translate(109.189 61.071)" fill="#bcbcbc"/>
          <path id="Path_190" data-name="Path 190" d="M3.491,2.416,0,0H1.325L2.859,1.062Z" transform="translate(54.19 64.054)" fill="#747474"/>
          <path id="Path_191" data-name="Path 191" d="M9.613,6.656,0,0H1.325L8.983,5.3Z" transform="translate(50.041 64.053)" fill="#747474"/>
          <path id="Path_192" data-name="Path 192" d="M15.865,10.981,0,0H1.325l13.91,9.628Z" transform="translate(45.806 64.053)" fill="#747474"/>
          <path id="Path_193" data-name="Path 193" d="M22.022,15.243,0,0H1.325L21.39,13.89Z" transform="translate(41.634 64.053)" fill="#747474"/>
          <path id="Path_194" data-name="Path 194" d="M28.161,19.493,0,0H1.325L27.531,18.139Z" transform="translate(37.474 64.053)" fill="#747474"/>
          <path id="Path_195" data-name="Path 195" d="M34.305,23.747,0,0H1.325L33.674,22.391Z" transform="translate(33.311 64.053)" fill="#747474"/>
          <path id="Path_196" data-name="Path 196" d="M40.45,28,0,0H1.323l38.5,26.647Z" transform="translate(29.147 64.054)" fill="#747474"/>
          <path id="Path_197" data-name="Path 197" d="M46.6,32.256,0,0H1.325L45.972,30.9Z" transform="translate(24.98 64.054)" fill="#747474"/>
          <path id="Path_198" data-name="Path 198" d="M52.748,36.512,0,0H1.327L52.119,35.156Z" transform="translate(20.814 64.053)" fill="#747474"/>
          <path id="Path_199" data-name="Path 199" d="M58.879,40.756,0,0H1.323L58.249,39.4Z" transform="translate(16.66 64.053)" fill="#747474"/>
          <path id="Path_200" data-name="Path 200" d="M65.032,45.014,0,0H1.325L64.4,43.662Z" transform="translate(12.491 64.053)" fill="#747474"/>
          <path id="Path_201" data-name="Path 201" d="M71.181,49.27,0,0H1.323L70.551,47.918Z" transform="translate(8.325 64.053)" fill="#747474"/>
          <path id="Path_202" data-name="Path 202" d="M77.326,53.523,0,0H1.325L76.7,52.17Z" transform="translate(4.162 64.053)" fill="#747474"/>
          <path id="Path_203" data-name="Path 203" d="M0,0,83.468,57.775l-.63-1.352L1.323,0Z" transform="translate(0 64.054)" fill="#747474"/>
        </g>
      </g>
    </g>
    <g id="pattern-2" data-name="pattern" transform="translate(542.578 152)">
      <rect id="Rectangle_48" data-name="Rectangle 48" width="3.63" height="22.694" transform="translate(65.242)" fill="#4abc96"/>
      <rect id="Rectangle_49" data-name="Rectangle 49" width="3.63" height="22.694" transform="translate(48.931)" fill="#4abc96"/>
      <rect id="Rectangle_50" data-name="Rectangle 50" width="3.629" height="22.694" transform="translate(32.621)" fill="#4abc96"/>
      <rect id="Rectangle_51" data-name="Rectangle 51" width="3.628" height="22.694" transform="translate(16.312)" fill="#4abc96"/>
      <rect id="Rectangle_52" data-name="Rectangle 52" width="3.629" height="22.694" fill="#4abc96"/>
    </g>
    <text id="gami_KSA" transform="translate(229 265)" fill="#09484d" font-size="11" font-family="Roboto-Medium, Roboto" font-weight="500"><tspan x="0" y="0">GAMI_KSA</tspan></text>
    <g id="icons" transform="translate(188.778 251.909)">
      <path id="Path_479" data-name="Path 479" d="M8.684,73.7h1.57v5.04H8.684Zm.783-2.506a.909.909,0,1,1-.91.907.907.907,0,0,1,.91-.907" transform="translate(15.61 -66.543)" fill="#09484d"/>
      <path id="Path_480" data-name="Path 480" d="M9.486,72.144h1.5v.688h.02a1.652,1.652,0,0,1,1.483-.815c1.587,0,1.878,1.045,1.878,2.4v2.765H12.8V74.733c0-.585-.009-1.336-.812-1.336s-.939.636-.939,1.293v2.494H9.486Z" transform="translate(17.357 -64.99)" fill="#09484d"/>
      <path id="Path_481" data-name="Path 481" d="M23.786,78.065V78a8.441,8.441,0,1,0-.037.775l-.6.42v0a7.889,7.889,0,1,1,.089-1.2c0,.153,0,.305-.014.455Z" transform="translate(12.581 -69.577)" fill="#15484d"/>
      <path id="Path_482" data-name="Path 482" d="M10.5,72.109a3.745,3.745,0,0,1-.9.256c.144-.026.354-.285.438-.392a1.618,1.618,0,0,0,.3-.539.036.036,0,0,0,0-.049.051.051,0,0,0-.046.006,4.674,4.674,0,0,1-1.06.4.076.076,0,0,1-.075-.017.727.727,0,0,0-.092-.1,1.847,1.847,0,0,0-.513-.314,1.754,1.754,0,0,0-.786-.127,1.881,1.881,0,0,0-.746.21,1.849,1.849,0,0,0-.6.492,1.885,1.885,0,0,0-.36.72,1.931,1.931,0,0,0-.017.76c0,.04,0,.049-.04.04a5.651,5.651,0,0,1-3.638-1.849c-.043-.049-.066-.049-.1,0A1.847,1.847,0,0,0,2.58,73.8c.072.066.147.135.225.2a1.79,1.79,0,0,1-.7-.2c-.043-.026-.063-.011-.066.037a1.276,1.276,0,0,0,.009.207A1.876,1.876,0,0,0,3.2,75.534a.985.985,0,0,0,.233.069,2.04,2.04,0,0,1-.688.023c-.052-.009-.072.014-.052.063A1.936,1.936,0,0,0,4.138,76.9c.066.012.132.012.2.026l-.009.012a2.319,2.319,0,0,1-.991.524,3.542,3.542,0,0,1-1.5.193c-.084-.012-.1-.012-.121,0s0,.032.026.055c.1.066.2.127.311.184a4.817,4.817,0,0,0,1.005.4,5.345,5.345,0,0,0,5.187-1.213,5.447,5.447,0,0,0,1.434-3.972c0-.058.069-.089.109-.118a3.616,3.616,0,0,0,.7-.734.22.22,0,0,0,.049-.141v-.009c0-.023,0-.014-.035,0" transform="translate(2.299 -66.453)" fill="#15484d"/>
      <path id="Path_483" data-name="Path 483" d="M17.154,78.065V78a8.441,8.441,0,1,0-.037.775l-.6.42v0a7.889,7.889,0,1,1,.089-1.2c0,.153,0,.305-.014.455Z" transform="translate(-0.314 -69.577)" fill="#15484d"/>
    </g>
    <text id="WWW.GAMI.GOV.SA" transform="translate(189 243)" fill="#4abc96" font-size="11" font-family="Roboto-Regular, Roboto"><tspan x="0" y="0">WWW.GAMI.GOV.SA</tspan></text>
    <text id="Riyadh_Saudi_Arabia" data-name="Riyadh, Saudi Arabia" transform="translate(189 224.348)" fill="#757678" font-size="13" font-family="Roboto-Light, Roboto" font-weight="300"><tspan x="0" y="0">Riyadh, Saudi Arabia</tspan></text>
    <text id="General_Authority_for_Military_Industries_-_GAMI" data-name="General Authority for Military Industries - GAMI" transform="translate(189 204.787)" fill="#757678" font-size="13" font-family="Roboto-Light, Roboto" font-weight="300"><tspan x="0" y="0">General Authority for Military Industries - GAMI</tspan></text>
  </g>
</svg>
