<svg xmlns="http://www.w3.org/2000/svg" width="124.64" height="106.105" viewBox="0 0 124.64 106.105">
  <g id="WCBLogo2" transform="translate(-19.559 -25.34)">
    <g id="WCBLogo" transform="translate(29.858 25.34)">
      <path id="Path_129837" data-name="Path 129837" d="M-504.944,182.877l-2.291,11.985,13.96-19.211Z" transform="translate(551.908 -175.651)" fill="#50b691"/>
      <path id="Path_129838" data-name="Path 129838" d="M-493.275,175.651l-13.96,19.211,10.7-5.88Z" transform="translate(551.908 -175.651)" fill="#1a494d"/>
      <path id="Path_129839" data-name="Path 129839" d="M-496.541,188.982l-10.7,5.883h20.2Z" transform="translate(551.908 -175.651)" fill="#038470"/>
      <path id="Path_129840" data-name="Path 129840" d="M-513.476,175.651l6.243,19.211,2.291-11.985Z" transform="translate(551.908 -175.651)" fill="#038470"/>
      <path id="Path_129841" data-name="Path 129841" d="M-520.862,231.392l5.192,12.706V220.347Z" transform="translate(551.908 -175.651)" fill="#50b691"/>
      <path id="Path_129842" data-name="Path 129842" d="M-515.67,244.1l5.194-12.706-5.194-11.043Z" transform="translate(551.908 -175.651)" fill="#1a494d"/>
      <path id="Path_129843" data-name="Path 129843" d="M-515.67,220.349l5.194,11.045,11.151.831Z" transform="translate(551.908 -175.651)" fill="#038470"/>
      <path id="Path_129844" data-name="Path 129844" d="M-532.013,232.222l11.151-.83,5.194-11.045Z" transform="translate(551.908 -175.651)" fill="#038470"/>
      <path id="Path_129845" data-name="Path 129845" d="M-541.429,209.073l-10.479,8.864,22.586-7.339Z" transform="translate(551.908 -175.651)" fill="#50b691"/>
      <path id="Path_129846" data-name="Path 129846" d="M-551.906,217.939l13.681,1.012,8.9-8.353Z" transform="translate(551.908 -175.651)" fill="#1a494d"/>
      <path id="Path_129847" data-name="Path 129847" d="M-538.22,218.951l2.657,10.861,6.241-19.211Z" transform="translate(551.908 -175.651)" fill="#038470"/>
      <path id="Path_129848" data-name="Path 129848" d="M-545.665,198.725l4.229,10.348,12.109,1.528Z" transform="translate(551.908 -175.651)" fill="#038470"/>
      <path id="Path_129849" data-name="Path 129849" d="M-534.8,188.982l10.7,5.883-13.958-19.214Z" transform="translate(551.908 -175.651)" fill="#50b691"/>
      <path id="Path_129850" data-name="Path 129850" d="M-538.065,175.651l13.957,19.211-2.288-11.985Z" transform="translate(551.908 -175.651)" fill="#1a494d"/>
      <path id="Path_129851" data-name="Path 129851" d="M-526.4,182.877l2.291,11.985,6.243-19.211Z" transform="translate(551.908 -175.651)" fill="#038470"/>
      <path id="Path_129852" data-name="Path 129852" d="M-544.309,194.865h20.2l-10.7-5.883Z" transform="translate(551.908 -175.651)" fill="#038470"/>
      <path id="Path_129853" data-name="Path 129853" d="M-489.907,209.073l-12.107,1.525,22.585,7.339Z" transform="translate(551.908 -175.651)" fill="#50b691"/>
      <path id="Path_129854" data-name="Path 129854" d="M-502.021,210.6l8.9,8.351,13.681-1.01Z" transform="translate(551.908 -175.651)" fill="#1a494d"/>
      <path id="Path_129855" data-name="Path 129855" d="M-495.778,229.812l2.657-10.861-8.9-8.353Z" transform="translate(551.908 -175.651)" fill="#038470"/>
      <path id="Path_129856" data-name="Path 129856" d="M-485.678,198.725-502.021,210.6l12.109-1.527Z" transform="translate(551.908 -175.651)" fill="#038470"/>
      <path id="Path_129857" data-name="Path 129857" d="M-502.409,205.255l-12.46,6.925c0-3.194,0-11.194.017-11.179.995,1.321,3.008,4.8,3.042,4.814a13.3,13.3,0,0,0-1.2-4.814,30.749,30.749,0,0,1,4.7,2.786,13.276,13.276,0,0,0-4.754-4.947,15.332,15.332,0,0,1,4.709-.421,11.751,11.751,0,0,0-4.918-1.059,8.231,8.231,0,0,1,2.2-1.408,6.264,6.264,0,0,0-3.8.771c-.291-.709-.814-2.152-.814-2.152s-.52,1.443-.811,2.152a6.264,6.264,0,0,0-3.8-.771,8.23,8.23,0,0,1,2.2,1.408,11.742,11.742,0,0,0-4.916,1.059,15.316,15.316,0,0,1,4.707.421,13.276,13.276,0,0,0-4.754,4.947A30.7,30.7,0,0,1-518.334,201a13.19,13.19,0,0,0-1.2,4.814c.035,0,2.045-3.483,3.04-4.814,0,0,.022,7.985.02,11.179l-12.463-6.925a126.082,126.082,0,0,0,11.585,8.3l-7.316,4.068a9.606,9.606,0,0,0,1.117.5,3.23,3.23,0,0,0,2.748-.219l5.127-3.271,5.129,3.271a3.234,3.234,0,0,0,2.737.219,10.078,10.078,0,0,0,1.119-.5l-7.318-4.068a125.552,125.552,0,0,0,11.584-8.3" transform="translate(551.908 -175.651)" fill="#1b2444"/>
    </g>
    <g id="Group_128726" data-name="Group 128726" transform="translate(0 114.481)">
      <g id="Group_128728" data-name="Group 128728" transform="translate(19.559)">
        <rect id="Rectangle_14513" data-name="Rectangle 14513" width="2.714" height="16.962" fill="#3fc298"/>
        <rect id="Rectangle_14514" data-name="Rectangle 14514" width="2.714" height="16.962" transform="translate(12.194)" fill="#3fc298"/>
        <rect id="Rectangle_14515" data-name="Rectangle 14515" width="2.714" height="16.962" transform="translate(24.385)" fill="#3fc298"/>
        <rect id="Rectangle_14516" data-name="Rectangle 14516" width="2.714" height="16.962" transform="translate(36.576)" fill="#3fc298"/>
        <rect id="Rectangle_14517" data-name="Rectangle 14517" width="2.714" height="16.962" transform="translate(48.77)" fill="#3fc298"/>
        <rect id="Rectangle_14518" data-name="Rectangle 14518" width="2.714" height="16.962" transform="translate(60.964 0.003)" fill="#3fc298"/>
        <rect id="Rectangle_14519" data-name="Rectangle 14519" width="2.714" height="16.962" transform="translate(73.156)" fill="#3fc298"/>
        <rect id="Rectangle_14520" data-name="Rectangle 14520" width="2.714" height="16.962" transform="translate(85.347)" fill="#3fc298"/>
        <rect id="Rectangle_14521" data-name="Rectangle 14521" width="2.714" height="16.962" transform="translate(97.541 0.003)" fill="#3fc298"/>
        <rect id="Rectangle_14522" data-name="Rectangle 14522" width="2.714" height="16.962" transform="translate(109.732)" fill="#3fc298"/>
        <rect id="Rectangle_14523" data-name="Rectangle 14523" width="2.714" height="16.962" transform="translate(121.926)" fill="#3fc298"/>
      </g>
    </g>
  </g>
</svg>
