<svg xmlns="http://www.w3.org/2000/svg" width="22.145" height="24.439" viewBox="0 0 22.145 24.439">
  <g id="calendar" transform="translate(-2.25 -1.25)">
    <path id="Path_484" data-name="Path 484" d="M8,2V5.441" transform="translate(0.735)" fill="none" stroke="#7aa0a2" stroke-linecap="round" stroke-linejoin="round" stroke-miterlimit="10" stroke-width="1.5"/>
    <path id="Path_485" data-name="Path 485" d="M16,2V5.441" transform="translate(1.91)" fill="none" stroke="#7aa0a2" stroke-linecap="round" stroke-linejoin="round" stroke-miterlimit="10" stroke-width="1.5"/>
    <path id="Path_486" data-name="Path 486" d="M3.5,9.09H23" transform="translate(0.073 1.042)" fill="none" stroke="#7aa0a2" stroke-linecap="round" stroke-linejoin="round" stroke-miterlimit="10" stroke-width="1.5"/>
    <path id="Path_487" data-name="Path 487" d="M3,14.407V9.235C3,5.794,4.72,3.5,8.735,3.5H17.91c4.014,0,5.735,2.294,5.735,5.735v9.749c0,3.441-1.72,5.735-5.735,5.735H8.735C4.72,24.718,3,22.424,3,18.984" transform="translate(0 0.22)" fill="none" stroke="#7aa0a2" stroke-linecap="round" stroke-linejoin="round" stroke-miterlimit="10" stroke-width="1.5"/>
    <path id="Path_488" data-name="Path 488" d="M15.694,13.7h.01" transform="translate(1.865 1.719)" fill="none" stroke="#7aa0a2" stroke-linecap="round" stroke-linejoin="round" stroke-width="1.5"/>
    <path id="Path_489" data-name="Path 489" d="M15.694,16.7h.01" transform="translate(1.865 2.16)" fill="none" stroke="#7aa0a2" stroke-linecap="round" stroke-linejoin="round" stroke-width="1.5"/>
    <path id="Path_490" data-name="Path 490" d="M11.994,13.7H12" transform="translate(1.322 1.719)" fill="none" stroke="#7aa0a2" stroke-linecap="round" stroke-linejoin="round" stroke-width="1.5"/>
    <path id="Path_491" data-name="Path 491" d="M11.994,16.7H12" transform="translate(1.322 2.16)" fill="none" stroke="#7aa0a2" stroke-linecap="round" stroke-linejoin="round" stroke-width="1.5"/>
    <path id="Path_492" data-name="Path 492" d="M8.3,13.7h.01" transform="translate(0.778 1.719)" fill="none" stroke="#7aa0a2" stroke-linecap="round" stroke-linejoin="round" stroke-width="1.5"/>
    <path id="Path_493" data-name="Path 493" d="M8.3,16.7h.01" transform="translate(0.778 2.16)" fill="none" stroke="#7aa0a2" stroke-linecap="round" stroke-linejoin="round" stroke-width="1.5"/>
  </g>
</svg>
