<svg xmlns="http://www.w3.org/2000/svg" xmlns:xlink="http://www.w3.org/1999/xlink" width="173.004" height="165" viewBox="0 0 173.004 165">
  <defs>
    <filter id="Rectangle_15926" x="4.5" y="0" width="164" height="165" filterUnits="userSpaceOnUse">
      <feOffset dy="3" input="SourceAlpha"/>
      <feGaussianBlur stdDeviation="25" result="blur"/>
      <feFlood flood-opacity="0.102"/>
      <feComposite operator="in" in2="blur"/>
      <feComposite in="SourceGraphic"/>
    </filter>
    <filter id="Path_129950" x="18.448" y="0" width="154.556" height="154.656" filterUnits="userSpaceOnUse">
      <feOffset dy="3" input="SourceAlpha"/>
      <feGaussianBlur stdDeviation="25" result="blur-2"/>
      <feFlood flood-opacity="0.102"/>
      <feComposite operator="in" in2="blur-2"/>
      <feComposite in="SourceGraphic"/>
    </filter>
    <filter id="Path_129952" x="0" y="0" width="154.556" height="154.656" filterUnits="userSpaceOnUse">
      <feOffset dy="3" input="SourceAlpha"/>
      <feGaussianBlur stdDeviation="25" result="blur-3"/>
      <feFlood flood-opacity="0.102"/>
      <feComposite operator="in" in2="blur-3"/>
      <feComposite in="SourceGraphic"/>
    </filter>
  </defs>
  <g id="curve-top" transform="translate(12549.5 6447)">
    <g transform="matrix(1, 0, 0, 1, -12549.5, -6447)" filter="url(#Rectangle_15926)">
      <path id="Rectangle_15926-2" data-name="Rectangle 15926" d="M0,0H14a0,0,0,0,1,0,0V8a7,7,0,0,1-7,7H7A7,7,0,0,1,0,8V0A0,0,0,0,1,0,0Z" transform="translate(79.5 72)" fill="#f6f6f6"/>
    </g>
    <g transform="matrix(1, 0, 0, 1, -12549.5, -6447)" filter="url(#Path_129950)">
      <path id="Path_129950-2" data-name="Path 129950" d="M-12451.422-6375a5.014,5.014,0,0,0-4.556,4.656c.009-.281,0-4.656,0-4.656Z" transform="translate(12549.43 6447)" fill="#f6f6f6"/>
    </g>
    <g transform="matrix(1, 0, 0, 1, -12549.5, -6447)" filter="url(#Path_129952)">
      <path id="Path_129952-2" data-name="Path 129952" d="M-12455.977-6375a5.014,5.014,0,0,1,4.556,4.656c-.009-.281,0-4.656,0-4.656Z" transform="translate(12530.98 6447)" fill="#f6f6f6"/>
    </g>
  </g>
</svg>
