<svg xmlns="http://www.w3.org/2000/svg" width="24.313" height="24.313" viewBox="0 0 24.313 24.313">
  <g id="external-link-outline" transform="translate(-3 -3)">
    <path id="Path_129857" data-name="Path 129857" d="M25.962,13.806a1.351,1.351,0,0,0-1.351,1.351v8.1a1.351,1.351,0,0,1-1.351,1.351H7.052A1.351,1.351,0,0,1,5.7,23.26V7.052A1.351,1.351,0,0,1,7.052,5.7h8.1a1.351,1.351,0,0,0,0-2.7h-8.1A4.052,4.052,0,0,0,3,7.052V23.26a4.052,4.052,0,0,0,4.052,4.052H23.26a4.052,4.052,0,0,0,4.052-4.052v-8.1a1.351,1.351,0,0,0-1.351-1.351Z" transform="translate(0 0)" fill="#06b490"/>
    <path id="Path_129858" data-name="Path 129858" d="M17.755,5.7H19.89l-8.5,8.482A1.356,1.356,0,1,0,13.312,16.1l8.5-8.482V9.753a1.351,1.351,0,0,0,2.7,0v-5.4A1.351,1.351,0,0,0,23.158,3h-5.4a1.351,1.351,0,0,0,0,2.7Z" transform="translate(2.803 0)" fill="#06b490"/>
  </g>
</svg>
