<svg xmlns="http://www.w3.org/2000/svg" width="20.245" height="20.819" viewBox="0 0 20.245 20.819">
  <g id="folder-open" transform="translate(-1.563 -1.28)">
    <path id="Path_125162" data-name="Path 125162" d="M21.039,14.192l-.387,4.837c-.145,1.48-.261,2.612-2.883,2.612H5.6c-2.622,0-2.738-1.132-2.883-2.612L2.33,14.192a2.932,2.932,0,0,1,.629-2.119l.019-.019A2.878,2.878,0,0,1,5.212,11H18.157a2.868,2.868,0,0,1,2.215,1.035c.01.01.019.019.019.029A2.83,2.83,0,0,1,21.039,14.192Z" transform="translate(0 -0.292)" fill="none" stroke="#4ebca6" stroke-miterlimit="10" stroke-width="1.5"/>
    <path id="Path_125163" data-name="Path 125163" d="M3.5,11.124V6.142c0-3.289.822-4.112,4.112-4.112H8.84a1.951,1.951,0,0,1,1.974.987l1.229,1.645a1.308,1.308,0,0,0,1.316.658h2.467c3.289,0,4.112.822,4.112,4.112v1.732" transform="translate(-0.039 0)" fill="none" stroke="#4ebca6" stroke-linecap="round" stroke-linejoin="round" stroke-miterlimit="10" stroke-width="1.5"/>
    <path id="Path_125164" data-name="Path 125164" d="M9.43,17H14.4" transform="translate(-0.232 -0.488)" fill="none" stroke="#4ebca6" stroke-linecap="round" stroke-linejoin="round" stroke-miterlimit="10" stroke-width="1.5"/>
  </g>
</svg>
