<svg xmlns="http://www.w3.org/2000/svg" width="22.989" height="21.197" viewBox="0 0 22.989 21.197">
  <g id="folderIcom" transform="translate(0.25 0.25)">
    <path id="floder" d="M21.548,9.314H20.24V7.152a.987.987,0,0,0-1.024-.942H17.991V5.376l-.186-.171h0L15.07,2.688,12.149,0H3V3.794H1.024A.987.987,0,0,0,0,4.737v15.07H0a.832.832,0,0,0,.2.543.985.985,0,0,0,.763.347H17.738a.945.945,0,0,0,.918-.625L22.489,10.4v-.061A.953.953,0,0,0,21.548,9.314ZM19.216,6.9a.264.264,0,0,1,.274.253V9.314h-1.5V6.9ZM12.369,1.178l4.343,4H12.369ZM3.748.69h7.871V5.864h5.622v3.45H4.772a1.043,1.043,0,0,0-.158.012.923.923,0,0,0-.76.613l-.105.266V.69Zm-3,4.047a.264.264,0,0,1,.274-.253H3v7.6L.75,17.73ZM17.942,19.863a.21.21,0,0,1-.2.144H.961a.213.213,0,0,1-.168-.077.177.177,0,0,1-.046-.141L3,14.108v0l1.559-3.934.01-.028a.21.21,0,0,1,.2-.144H21.548c.142,0,.179.188.188.283Z" fill="#18b495" stroke="#0fbc99" stroke-width="0.5"/>
    <path id="Path_124963" data-name="Path 124963" d="M15.345,11.1h3.45a.345.345,0,1,0,0-.69h-3.45a.345.345,0,0,0,0,.69Zm0-2.415h3.45a.345.345,0,1,0,0-.69h-3.45a.345.345,0,0,0,0,.69Zm0,4.829h8.279a.345.345,0,0,0,0-.69H15.345a.345.345,0,0,0,0,.69Z" transform="translate(-9.035 -5.24)" fill="#18b495" stroke="#0fbc99" stroke-width="0.5"/>
  </g>
</svg>
