<svg id="iconPn002" xmlns="http://www.w3.org/2000/svg" width="46.282" height="56.123" viewBox="0 0 46.282 56.123">
  <g id="Group_3685" data-name="Group 3685" transform="translate(1 1)">
    <path id="Path_9374" data-name="Path 9374" d="M26.364,10.275A12.917,12.917,0,1,1,16.247,24.931" transform="translate(-6.87 -4.466)" fill="none" stroke="#004a4d" stroke-linecap="round" stroke-width="2"/>
    <circle id="Ellipse_79" data-name="Ellipse 79" cx="7.767" cy="7.767" r="7.767" fill="none" stroke="#06b490" stroke-width="2"/>
    <path id="Path_9375" data-name="Path 9375" d="M8.24,12.688l2.413,2.428,4.674-4.524" transform="translate(-3.787 -4.693)" fill="none" stroke="#06b490" stroke-linecap="round" stroke-width="2"/>
    <path id="Path_9376" data-name="Path 9376" d="M34.244,29.646a4.4,4.4,0,1,0-4.4-4.4h0a4.4,4.4,0,0,0,4.4,4.4Z" transform="translate(-12.103 -8.638)" fill="none" stroke="#004a4d" stroke-linecap="round" stroke-linejoin="round" stroke-width="2"/>
    <path id="Path_9377" data-name="Path 9377" d="M40.055,43.373c-.327-2.948-3.01-5.266-6.393-5.53a20.692,20.692,0,0,0-3.546,0c-3.383.285-6.066,2.583-6.393,5.53" transform="translate(-9.748 -15.154)" fill="none" stroke="#004a4d" stroke-linecap="round" stroke-linejoin="round" stroke-width="2"/>
    <line id="Line_177" data-name="Line 177" x1="16.606" transform="translate(15.617 37.825)" fill="none" stroke="#004a4d" stroke-linecap="round" stroke-width="2"/>
    <line id="Line_178" data-name="Line 178" x2="0.029" transform="translate(12.06 37.825)" fill="none" stroke="#004a4d" stroke-linecap="round" stroke-width="2"/>
    <line id="Line_179" data-name="Line 179" x1="16.606" transform="translate(15.617 43.975)" fill="none" stroke="#004a4d" stroke-linecap="round" stroke-width="2"/>
    <line id="Line_180" data-name="Line 180" x2="0.029" transform="translate(12.06 43.975)" fill="none" stroke="#004a4d" stroke-linecap="round" stroke-width="2"/>
    <path id="Path_9378" data-name="Path 9378" d="M20.083,2h22.74a2.46,2.46,0,0,1,2.46,2.46V53.048a2.46,2.46,0,0,1-2.46,2.46H3.46A2.46,2.46,0,0,1,1,53.048V22.393" transform="translate(-1 -1.385)" fill="none" stroke="#004a4d" stroke-linecap="round" stroke-width="2"/>
  </g>
</svg>
