<svg xmlns="http://www.w3.org/2000/svg" width="26.496" height="25.42" viewBox="0 0 26.496 25.42">
  <g id="IconSetting" transform="translate(-1 -1.406)">
    <path id="Path_124942" data-name="Path 124942" d="M12.673,16.345A3.673,3.673,0,1,0,9,12.673,3.673,3.673,0,0,0,12.673,16.345Z" transform="translate(1.569 1.444)" fill="none" stroke="#004a4d" stroke-linecap="round" stroke-linejoin="round" stroke-width="2"/>
    <path id="Path_124943" data-name="Path 124943" d="M2,15.193V13.039a2.333,2.333,0,0,1,2.326-2.326c2.216,0,3.122-1.567,2.008-3.489a2.325,2.325,0,0,1,.857-3.171L9.308,2.841a2.043,2.043,0,0,1,2.791.735l.135.233c1.1,1.922,2.914,1.922,4.028,0l.135-.233a2.043,2.043,0,0,1,2.791-.735l2.118,1.212a2.325,2.325,0,0,1,.857,3.171c-1.114,1.922-.208,3.489,2.008,3.489A2.333,2.333,0,0,1,26.5,13.039v2.155a2.333,2.333,0,0,1-2.326,2.326c-2.216,0-3.122,1.567-2.008,3.489a2.322,2.322,0,0,1-.857,3.171l-2.118,1.212a2.043,2.043,0,0,1-2.791-.735l-.135-.233c-1.1-1.922-2.914-1.922-4.028,0l-.135.233a2.043,2.043,0,0,1-2.791.735L7.191,24.179a2.325,2.325,0,0,1-.857-3.171c1.114-1.922.208-3.489-2.008-3.489A2.333,2.333,0,0,1,2,15.193Z" transform="translate(0 0)" fill="none" stroke="#004a4d" stroke-linecap="round" stroke-linejoin="round" stroke-width="2"/>
  </g>
</svg>
