<svg xmlns="http://www.w3.org/2000/svg" width="41.307" height="46.72" viewBox="0 0 41.307 46.72">
  <g id="iconPn000500" transform="translate(0.25)">
    <g id="Group_3678" data-name="Group 3678">
      <path id="Path_9334" data-name="Path 9334" d="M7.825,16.161,9.95,18.325l4.381-4.3" transform="translate(0.793 5.164)" fill="none" stroke="#004a4d" stroke-miterlimit="10" stroke-width="2"/>
      <path id="Path_9335" data-name="Path 9335" d="M7.825,26.065,9.95,28.229l4.381-4.3" transform="translate(0.793 6.168)" fill="none" stroke="#004a4d" stroke-miterlimit="10" stroke-width="2"/>
      <path id="Path_9336" data-name="Path 9336" d="M7.825,35.969,9.95,38.133l4.381-4.3" transform="translate(0.793 7.173)" fill="none" stroke="#004a4d" stroke-miterlimit="10" stroke-width="2"/>
      <path id="Path_9343" data-name="Path 9343" d="M1.718,19.384V1.616h37.36V6.124l1.729-1.255V0H0V16.949Z" transform="translate(0 3.742)" fill="#004a4d" stroke="#004a4d" stroke-width="0.5"/>
      <g id="Group_128628" data-name="Group 128628" transform="translate(10.692 3.742)">
        <path id="Path_9333" data-name="Path 9333" d="M23.882,0H5.588C5.279,0,5.02.385,5.02.87v5.1c0,.485.259.87.568.87H23.882c.309,0,.561-.385.561-.87V.87c0-.485-.252-.87-.561-.87" transform="translate(-5.02 0)" fill="#004a4d"/>
        <path id="Path_9344" data-name="Path 9344" d="M5.02,6.328H6.1L5.02,5.043" transform="translate(-5.02 0.511)" fill="#18484c"/>
        <path id="Path_9345" data-name="Path 9345" d="M32.129,6.328h-1.08l1.08-1.285" transform="translate(-12.707 0.511)" fill="#18484c"/>
      </g>
      <g id="Group_128630" data-name="Group 128630" transform="translate(13.804)">
        <path id="Path_9333-2" data-name="Path 9333" d="M17.839,0H5.406C5.2,0,5.02.385,5.02.87v5.1c0,.485.176.87.386.87H17.839c.21,0,.381-.385.381-.87V.87c0-.485-.171-.87-.381-.87" transform="translate(-5.02 0)" fill="#004a4d"/>
        <path id="Path_9344-2" data-name="Path 9344" d="M5.02,6.328H6.1L5.02,5.043" transform="translate(-5.02 0.511)" fill="#18484c"/>
        <path id="Path_9345-2" data-name="Path 9345" d="M32.129,6.328h-1.08l1.08-1.285" transform="translate(-18.93 0.511)" fill="#18484c"/>
      </g>
      <path id="Path_9346" data-name="Path 9346" d="M15.124,43.322l-.013,1.308H25l1.17-1.308Z" transform="translate(3.944 -20.335)" fill="#06b490" stroke="#06b490" stroke-width="0.5"/>
      <path id="Path_9349" data-name="Path 9349" d="M15.124,43.322l-.013,1.308H25l1.17-1.308Z" transform="translate(3.944 -10.232)" fill="#06b490" stroke="#06b490" stroke-width="0.5"/>
      <path id="Path_9350" data-name="Path 9350" d="M15.124,43.322l-.013,1.308H25l1.17-1.308Z" transform="translate(3.944 0.728)" fill="#06b490" stroke="#06b490" stroke-width="0.5"/>
      <path id="Path_9347" data-name="Path 9347" d="M40.155,44.63l.013-1.308H38.284l-1.17,1.308Z" transform="translate(-5.43 -20.335)" fill="#06b490" stroke="#06b490" stroke-width="0.5"/>
      <path id="Path_9348" data-name="Path 9348" d="M40.155,44.63l.013-1.308H38.284l-1.17,1.308Z" transform="translate(-5.43 -10.232)" fill="#06b490" stroke="#06b490" stroke-width="0.5"/>
      <path id="Path_9351" data-name="Path 9351" d="M40.155,44.63l.013-1.308H38.284l-1.17,1.308Z" transform="translate(-5.43 0.728)" fill="#06b490" stroke="#06b490" stroke-width="0.5"/>
    </g>
  </g>
</svg>
