<svg xmlns="http://www.w3.org/2000/svg" width="54.739" height="47.274" viewBox="0 0 54.739 47.274">
  <g id="iconPn001" transform="translate(0 -34.909)">
    <g id="Group_124949" data-name="Group 124949" transform="translate(1.244 61.034)">
      <g id="Group_124948" data-name="Group 124948">
        <path id="Path_124959" data-name="Path 124959" d="M62.643,279.273a1.175,1.175,0,0,0-1.244,1.244V296.69a1.175,1.175,0,0,1-1.244,1.244H15.369a1.175,1.175,0,0,1-1.244-1.244V280.517a1.175,1.175,0,0,0-1.244-1.244,1.175,1.175,0,0,0-1.244,1.244V296.69a3.666,3.666,0,0,0,3.732,3.732H60.155a3.666,3.666,0,0,0,3.732-3.732V280.517A1.175,1.175,0,0,0,62.643,279.273Z" transform="translate(-11.637 -279.273)" fill="#06b490"/>
      </g>
    </g>
    <g id="Group_124951" data-name="Group 124951" transform="translate(0 43.617)">
      <g id="Group_124950" data-name="Group 124950" transform="translate(0 0)">
        <path id="Path_124960" data-name="Path 124960" d="M51.007,116.364H3.732A3.666,3.666,0,0,0,0,120.1v7.962a3.735,3.735,0,0,0,2.861,3.608l19.532,4.354V140a1.175,1.175,0,0,0,1.244,1.244H31.1A1.175,1.175,0,0,0,32.346,140V136.02l19.532-4.354a3.735,3.735,0,0,0,2.861-3.608V120.1A3.666,3.666,0,0,0,51.007,116.364ZM29.858,138.757H24.881v-4.976h4.976Zm22.393-10.7a1.211,1.211,0,0,1-1,1.244l-18.91,4.23v-1a1.175,1.175,0,0,0-1.244-1.244H23.637a1.175,1.175,0,0,0-1.244,1.244v1L3.483,129.3a1.212,1.212,0,0,1-1-1.244V120.1a1.175,1.175,0,0,1,1.244-1.244H51.007a1.175,1.175,0,0,1,1.244,1.244Z" transform="translate(0 -116.364)" fill="#004a4d"/>
      </g>
    </g>
    <g id="Group_124953" data-name="Group 124953" transform="translate(17.417 34.909)">
      <g id="Group_124952" data-name="Group 124952" transform="translate(0 0)">
        <path id="Path_124961" data-name="Path 124961" d="M179.082,34.909H166.641a3.666,3.666,0,0,0-3.732,3.732v1.244a1.244,1.244,0,0,0,2.488,0V38.641a1.175,1.175,0,0,1,1.244-1.244h12.441a1.175,1.175,0,0,1,1.244,1.244v1.244a1.244,1.244,0,0,0,2.488,0V38.641A3.665,3.665,0,0,0,179.082,34.909Z" transform="translate(-162.909 -34.909)" fill="#004a4d"/>
      </g>
    </g>
  </g>
</svg>
