<svg xmlns="http://www.w3.org/2000/svg" width="43.626" height="55.123" viewBox="0 0 43.626 55.123">
  <g id="iconPn06" transform="translate(1.849 2.274)">
    <path id="Path_9358" data-name="Path 9358" d="M39.1,35.121l-1.024-.766.383-.512A13.454,13.454,0,0,0,40.886,28.4c1.15-5.682-1.348-10.837-6.678-13.789a12.456,12.456,0,0,0-14.287,1.651l-.484.418-.836-.967.483-.418a13.723,13.723,0,0,1,15.743-1.8c5.757,3.188,8.559,9,7.313,15.161a14.739,14.739,0,0,1-2.657,5.955Z" transform="translate(-8.308 -6.279)" fill="#0e484c" stroke="#004a4d" stroke-width="0.5"/>
    <path id="Path_9359" data-name="Path 9359" d="M7.847,38.566,7.439,38.1c-.015-.018-1.607-1.848-3.121-3.358l-.581-.581,2.52-1.5L3.062,24.92H0V18.7l3.216-.456,3-7.271L4.194,8.691,8.543,4.349l2.344,2.064,7.529-3.177V0h6.29V3.236L32.48,6.517c.24-.322.547-.681.942-1.145.229-.269.49-.575.79-.935l.5-.593.49.6c.853,1.04,1.189,1.4,1.614,1.865.4.439.863.937,1.875,2.13l.488.576-.649.386a11.867,11.867,0,0,0-1.256.893c-.17.133-.335.262-.5.383l3.144,7.573,3.208.455v6.092H40.107l-2.491,6.049-1.183-.487,2.817-6.841h2.593v-3.7l-2.831-.4L35.175,10.17l.476-.283a8.5,8.5,0,0,0,.831-.6c.231-.181.481-.376.76-.573-.678-.79-1.042-1.183-1.369-1.539s-.63-.683-1.173-1.329c-.107.127-.208.246-.3.357a12.543,12.543,0,0,0-1.132,1.437l-.285.477L23.427,4.084V1.279H19.695V4.084L10.645,7.9,8.6,6.1,5.948,8.746,7.7,10.727,4.121,19.41l-2.842.4v3.828H3.917L7.86,33.189,5.8,34.418c.881.91,1.717,1.837,2.2,2.374l4.771-3.915a15.174,15.174,0,0,1-5.372-11.6V20.64l1.279,0v.639c.006,4.321,1.8,7.962,5.5,11.133l.577.5Z" transform="translate(-1.599 -2.024)" fill="#0e484c" stroke="#004a4d" stroke-width="0.5"/>
    <path id="Path_9360" data-name="Path 9360" d="M29.518,37.848H28.191V28.053l-1.124-1.266a6.015,6.015,0,0,1-1.446-5.248,8.068,8.068,0,0,1,2.5-3.928l.194-.2h.941l.019.663v5.307h3.355c0-1.255,0-1.7,0-2.451l0-3.519H33.7l.194.2a8.073,8.073,0,0,1,2.5,3.928,6.015,6.015,0,0,1-1.446,5.248l-1.292,1.454-.115-.1-.38.455L32.5,27.8v-.252l1.459-1.642A4.687,4.687,0,0,0,35.1,21.824a4.987,4.987,0,0,0-1.14-2.173l0,1.278c0,.875.007.666,0,2.454l-.421.88-.617.447h-3.9l-.709-.447-.367-.894V19.782a4.85,4.85,0,0,0-1.033,2.042,4.686,4.686,0,0,0,1.143,4.082l1.459,1.642Zm4.3-6.973L32.5,30.158V27.542h1.327Z" transform="translate(-10.996 -7.24)" fill="#06b490" stroke="#06b490" stroke-width="0.5"/>
    <path id="Path_9361" data-name="Path 9361" d="M19.547,80.066l-.192-.056S7.893,76.679,3.071,75.3C.547,74.579.964,72.736,1.333,71.11l.12-.532L20.864,71.82,20.782,73.1,2.465,71.924c-.311,1.542-.124,1.838.957,2.148C7.877,75.345,18,78.286,19.52,78.727c.893-.3,3.023-1.047,4.687-1.43l.623-.143.287,1.246-.623.144c-1.8.414-4.713,1.444-4.758,1.459Z" transform="translate(-1.98 -27.479)" fill="#0e484c" stroke="#004a4d" stroke-width="0.5"/>
    <path id="Path_9362" data-name="Path 9362" d="M24.632,64.523a2.5,2.5,0,0,1-1.859-4.183A29.851,29.851,0,0,1,29.228,55.4l.208-.117L37.6,56.956c.622-.2,2.9-.958,3.855-1.4l.581-.269.538,1.16-.58.269c-1.179.547-4.038,1.472-4.16,1.511l-.16.052-8.023-1.644A28.367,28.367,0,0,0,23.719,61.2a1.21,1.21,0,0,0-.315.878,1.2,1.2,0,0,0,.4.834,1.213,1.213,0,0,0,1.636.023l3.357-3,.852.953-3.356,3a2.483,2.483,0,0,1-1.658.634" transform="translate(-9.579 -21.963)" fill="#0e484c" stroke="#004a4d" stroke-width="0.5"/>
    <rect id="Rectangle_894" data-name="Rectangle 894" width="1.184" height="12.998" transform="translate(30.741 33.454) rotate(-1.435)" fill="#0e484c"/>
    <path id="Path_9363" data-name="Path 9363" d="M37.3,44.462H35.972V38.035L37.3,38.7Z" transform="translate(-14.524 -13.093)" fill="#06b490" stroke="#06b490" stroke-width="0.5"/>
    <path id="Path_9364" data-name="Path 9364" d="M42.092,79.92,41.719,78.7l.611-.187a59.739,59.739,0,0,1,5.838-1.578l.624-.142.321,1.237-.66.151A58.331,58.331,0,0,0,42.7,79.733Z" transform="translate(-16.646 -29.72)" fill="#0e484c" stroke="#004a4d" stroke-width="0.5"/>
    <path id="Path_9365" data-name="Path 9365" d="M66.482,53.177l-.038-.592v-.592h.038l.012,1.184-.012-.144Z" transform="translate(-27.113 -21.216)" fill="#0e484c"/>
    <path id="Path_9366" data-name="Path 9366" d="M63.88,71.122H57.575V51.981l.642,0c1.1,0,1.8.013,2.349.02.935.012,1.407.019,2.66-.019l.66-.019,0,.66c-.015,4.053-.005,6.067.006,8.035.012,2.325.024,4.522-.006,9.826Zm-5.026-1.279h3.755c.026-4.841.014-6.95,0-9.176-.011-1.862-.02-3.764-.009-7.388-.823.017-1.284.012-2.054,0-.428-.006-.954-.012-1.695-.017Z" transform="translate(-22.364 -20.766)" fill="#0e484c" stroke="#004a4d" stroke-width="0.5"/>
    <path id="Path_9367" data-name="Path 9367" d="M53.487,70.493H52.208V53.99h3.834V70.131Z" transform="translate(-20.429 -21.497)" fill="#0e484c" stroke="#004a4d" stroke-width="0.5"/>
    <rect id="Rectangle_895" data-name="Rectangle 895" width="4.076" height="1.184" transform="translate(30.904 46.368)" fill="#0e484c"/>
  </g>
</svg>
