<svg xmlns="http://www.w3.org/2000/svg" width="37.55" height="48.41" viewBox="0 0 37.55 48.41">
  <g id="iconPn01" transform="translate(0.25 0.25)">
    <path id="Path_9332" data-name="Path 9332" d="M0,47.91H37.05V32.04l-1.56,1.09V46.35H1.57V20.47L0,18.22Z" fill="#004a4d" stroke="#004a4d" stroke-width="0.5"/>
    <g id="Group_3676" data-name="Group 3676">
      <g id="Group_3678" data-name="Group 3678">
        <path id="Path_9333" data-name="Path 9333" d="M31.25,0H5.81a.792.792,0,0,0-.79.79V5.42a.792.792,0,0,0,.79.79H31.25a.783.783,0,0,0,.78-.79V.79A.783.783,0,0,0,31.25,0" fill="#004a4d"/>
        <path id="Path_9334" data-name="Path 9334" d="M7.825,15.964l1.93,1.965,3.978-3.906" fill="none" stroke="#004a4d" stroke-miterlimit="10" stroke-width="2"/>
        <path id="Path_9335" data-name="Path 9335" d="M7.825,25.868l1.93,1.965,3.978-3.906" fill="none" stroke="#004a4d" stroke-miterlimit="10" stroke-width="2"/>
        <path id="Path_9336" data-name="Path 9336" d="M7.825,35.772l1.93,1.965,3.978-3.906" fill="none" stroke="#004a4d" stroke-miterlimit="10" stroke-width="2"/>
        <path id="Path_9343" data-name="Path 9343" d="M1.56,17.6V1.468H35.48V30.06l1.57-1.139V0H0V15.388Z" fill="#004a4d" stroke="#004a4d" stroke-width="0.5"/>
        <path id="Path_9344" data-name="Path 9344" d="M5.02,6.21H6L5.02,5.043" fill="#18484c"/>
        <path id="Path_9345" data-name="Path 9345" d="M32.03,6.21h-.981l.981-1.167" fill="#18484c"/>
        <path id="Path_9346" data-name="Path 9346" d="M15.123,43.322l-.012,1.187H24.09l1.062-1.187Z" transform="translate(2.19 -25.849)" fill="#06b490" stroke="#06b490" stroke-width="0.5"/>
        <path id="Path_9349" data-name="Path 9349" d="M15.123,43.322l-.012,1.187H24.09l1.062-1.187Z" transform="translate(2.19 -16.676)" fill="#06b490" stroke="#06b490" stroke-width="0.5"/>
        <path id="Path_9350" data-name="Path 9350" d="M15.123,43.322l-.012,1.187H24.09l1.062-1.187Z" transform="translate(2.19 -6.725)" fill="#06b490" stroke="#06b490" stroke-width="0.5"/>
        <path id="Path_9347" data-name="Path 9347" d="M39.875,44.509l.012-1.187H38.176l-1.062,1.187Z" transform="translate(-8.347 -25.849)" fill="#06b490" stroke="#06b490" stroke-width="0.5"/>
        <path id="Path_9348" data-name="Path 9348" d="M39.875,44.509l.012-1.187H38.176l-1.062,1.187Z" transform="translate(-8.347 -16.676)" fill="#06b490" stroke="#06b490" stroke-width="0.5"/>
        <path id="Path_9351" data-name="Path 9351" d="M39.875,44.509l.012-1.187H38.176l-1.062,1.187Z" transform="translate(-8.347 -6.725)" fill="#06b490" stroke="#06b490" stroke-width="0.5"/>
      </g>
    </g>
  </g>
</svg>
