<svg xmlns="http://www.w3.org/2000/svg" width="56.654" height="28.027" viewBox="0 0 56.654 28.027">
  <g id="iconPn007" transform="translate(-5086.531 -1184.87)">
    <g id="SAP_2011_logo" transform="translate(5086.531 1184.87)">
      <path id="path3060" d="M0,0V28.027H28.63L56.654,0H0Z" fill="#004a4d"/>
      <path id="path3100" d="M34.41,16.319H33.182V11.828H34.41c1.639,0,2.944.54,2.944,2.217,0,1.732-1.3,2.274-2.944,2.274M21.193,19.53a5.1,5.1,0,0,1-1.786-.317l1.769-5.578h.038l1.732,5.593a5.207,5.207,0,0,1-1.75.3M34.084,8.18H28.508v13.26L23.636,8.18H18.808L14.646,19.265c-.44-2.794-3.334-3.762-5.61-4.483-1.5-.483-3.1-1.192-3.082-1.978.013-.642.858-1.238,2.524-1.149a9.053,9.053,0,0,1,4.081,1.1L14.5,9.38a15.067,15.067,0,0,0-6.316-1.5H8.168A7.678,7.678,0,0,0,2.59,9.923a4.718,4.718,0,0,0-1.335,3.254A4.369,4.369,0,0,0,3.17,17.069,13.161,13.161,0,0,0,6.962,18.8c1.549.478,2.814.895,2.8,1.784a1.293,1.293,0,0,1-.367.867,2.453,2.453,0,0,1-1.8.567,7.723,7.723,0,0,1-4.618-1.318L1.255,24.127a12.867,12.867,0,0,0,6.312,1.679h.291a7.645,7.645,0,0,0,4.8-1.611l.2-.179-.558,1.5h5.064l.851-2.587a9.685,9.685,0,0,0,5.884.025l.818,2.562h8.263V20.159h1.8c4.354,0,6.932-2.216,6.932-5.935,0-4.14-2.5-6.038-7.835-6.038" transform="translate(-0.463 -2.909)" fill="#fff" fill-rule="evenodd"/>
    </g>
  </g>
</svg>
