<svg xmlns="http://www.w3.org/2000/svg" width="47.982" height="49.686" viewBox="0 0 47.982 49.686">
  <g id="iconPn0005" transform="translate(-39.419 1.276)">
    <g id="Group_3689" data-name="Group 3689" transform="translate(40 0)">
      <path id="Path_9381" data-name="Path 9381" d="M22.374,42.567c-.161,0-.262,0-.4,0-.242,0-.594-.01-1.625-.011h-.619V0H48.376V.62c0,.358.006.669.011.978.012.617.024,1.256-.012,2.247l-.022.619-1.239-.045.022-.619c.034-.957.023-1.551.011-2.179,0-.126,0-.252-.006-.382H20.973V41.315c.583,0,.837.006,1.026.009.321,0,.448.007,1.72-.011l.62-.009.017,1.239-.62.009c-.769.011-1.128.014-1.362.014" transform="translate(-7.506 0)" fill="#004a4d" stroke="#004a4d" stroke-width="1"/>
      <path id="Path_9382" data-name="Path 9382" d="M7,8.211H.279l.364-.861c.47-1.113.748-1.782.951-2.268C2.059,3.965,2.13,3.794,3.2,1.409L3.812.046l.533,1.4c.5,1.309.826,2.122,1.165,2.964.325.808.661,1.643,1.168,2.964ZM2.147,6.972H5.2c-.333-.854-.587-1.487-.836-2.1-.2-.5-.4-1-.636-1.6-.511,1.146-.636,1.444-.986,2.285-.144.348-.327.787-.591,1.414" transform="translate(-0.106 -0.017)" fill="#004a4d" stroke="#004a4d" stroke-width="1"/>
      <path id="Path_9383" data-name="Path 9383" d="M6.967,45.484H0V38.876C0,31.2,0,22.865.006,15.8v-.586h6.96ZM1.24,44.312H5.727V16.387H1.244c-.006,6.937,0,15.025,0,22.489Z" transform="translate(0 -4.589)" fill="#004a4d" stroke="#004a4d" stroke-width="1"/>
      <rect id="Rectangle_896" data-name="Rectangle 896" width="6.707" height="3.793" transform="translate(0.156 43.652)" fill="#004a4d" stroke="#004a4d" stroke-width="1"/>
      <path id="Path_9384" data-name="Path 9384" d="M57.8,51.42H29.946l-.087-.517a5.914,5.914,0,0,1-.026-1.19c.009-.2.019-.405.018-.612l-.009-5.607c-.017-10.788-.037-23.014.009-33.65l0-.617H58.162v.62c0,4.573.029,10.625.058,16.67.115,24.367.068,24.414-.239,24.721ZM31.057,50.181H56.98c.1-2.49.048-13.682,0-23.658-.027-5.778-.055-11.563-.058-16.056H31.088c-.042,10.486-.023,22.448-.006,33.026L31.09,49.1c0,.224-.009.449-.019.667-.006.143-.012.283-.015.415" transform="translate(-11.342 -3.51)" fill="#004a4d" stroke="#004a4d" stroke-width="1"/>
      <g id="Group_3691" data-name="Group 3691" transform="translate(22.874 14.345)">
        <path id="Path_9287" data-name="Path 9287" d="M9.309,17.324,9.3,18.512h8.322l1.062-1.187Z" transform="translate(-9.297 -17.324)" fill="#06b490" stroke="#06b490" stroke-width="0.5"/>
        <path id="Path_9288" data-name="Path 9288" d="M28.819,18.512l.012-1.187H27.12l-1.062,1.187Z" transform="translate(-15.249 -17.324)" fill="#06b490" stroke="#06b490" stroke-width="0.5"/>
        <path id="Path_9289" data-name="Path 9289" d="M9.309,25.868,9.3,27.055H24.09l1.062-1.187Z" transform="translate(-9.297 -20.868)" fill="#06b490" stroke="#06b490" stroke-width="0.5"/>
        <path id="Path_9290" data-name="Path 9290" d="M39.875,27.055l.012-1.187H38.176l-1.062,1.187Z" transform="translate(-19.834 -20.868)" fill="#06b490" stroke="#06b490" stroke-width="0.5"/>
        <path id="Path_9291" data-name="Path 9291" d="M9.309,34.343,9.3,35.531H24.09l1.062-1.187Z" transform="translate(-9.297 -24.383)" fill="#06b490" stroke="#06b490" stroke-width="0.5"/>
        <path id="Path_9292" data-name="Path 9292" d="M39.875,35.531l.012-1.187H38.176l-1.062,1.187Z" transform="translate(-19.834 -24.383)" fill="#06b490" stroke="#06b490" stroke-width="0.5"/>
        <path id="Path_9293" data-name="Path 9293" d="M9.309,43.322,9.3,44.509H24.09l1.062-1.187Z" transform="translate(-9.297 -28.107)" fill="#06b490" stroke="#06b490" stroke-width="0.5"/>
        <path id="Path_9294" data-name="Path 9294" d="M39.875,44.509l.012-1.187H38.176l-1.062,1.187Z" transform="translate(-19.834 -28.107)" fill="#06b490" stroke="#06b490" stroke-width="0.5"/>
        <path id="Path_9295" data-name="Path 9295" d="M9.309,52.3,9.3,53.488h9.809L20.168,52.3Z" transform="translate(-9.297 -31.831)" fill="#06b490" stroke="#06b490" stroke-width="0.5"/>
      </g>
    </g>
  </g>
</svg>
