<svg xmlns="http://www.w3.org/2000/svg" width="52.013" height="40.945" viewBox="0 0 52.013 40.945">
  <g id="iconPn006" transform="translate(-4.5 -9.5)">
    <g id="icon_50_" transform="translate(4.5 9.5)">
      <g id="XMLID_2111_" transform="translate(9.986 6.495)">
        <path id="XMLID_10_" d="M40.244,38.554a1.1,1.1,0,0,1-.782-.323,2.774,2.774,0,0,1-.587-3.04,2.811,2.811,0,0,1,2.6-1.776h1.3a.574.574,0,0,0,.575-.571V29.8a.573.573,0,0,0-.575-.571h-1.3a2.845,2.845,0,0,1-2.01-4.816l.927-.923a.572.572,0,0,0,0-.809l-2.165-2.155a.577.577,0,0,0-.812,0l-.927.923a2.859,2.859,0,0,1-4.835-2v-1.3a.574.574,0,0,0-.575-.572H28.013a.574.574,0,0,0-.574.572v1.3a2.86,2.86,0,0,1-4.836,2l-.927-.923a.578.578,0,0,0-.812,0L18.7,22.676a.57.57,0,0,0,0,.809l.927.924a2.774,2.774,0,0,1,.585,3.042,2.809,2.809,0,0,1-2.594,1.774H16.312a.573.573,0,0,0-.574.571v3.049a.572.572,0,0,0,.574.571h1.306a2.845,2.845,0,0,1,2.01,4.816,1.1,1.1,0,0,1-1.566-1.558.577.577,0,0,0,.105-.642.61.61,0,0,0-.549-.412H16.312a2.785,2.785,0,0,1-2.788-2.775V29.8a2.785,2.785,0,0,1,2.788-2.775h1.306a.645.645,0,0,0,.444-1.054l-.926-.923a2.767,2.767,0,0,1,0-3.925L19.3,18.964a2.863,2.863,0,0,1,3.943,0l.927.923a.6.6,0,0,0,.645.1.606.606,0,0,0,.413-.547v-1.3a2.786,2.786,0,0,1,2.788-2.777h3.061a2.785,2.785,0,0,1,2.789,2.777v1.3a.648.648,0,0,0,1.058.442l.927-.923a2.8,2.8,0,0,1,3.943,0l2.165,2.156a2.773,2.773,0,0,1,0,3.925l-.927.923a.584.584,0,0,0-.105.644.61.61,0,0,0,.549.411h1.3A2.785,2.785,0,0,1,45.568,29.8v3.049a2.785,2.785,0,0,1-2.789,2.775h-1.3a.6.6,0,0,0-.521.345l-.038.087a.568.568,0,0,0,.115.621,1.1,1.1,0,0,1,0,1.558,1.131,1.131,0,0,1-.787.32Z" transform="translate(-13.524 -15.369)" fill="#3fc297"/>
        <path id="XMLID_7_" d="M28.524,35.723A5.419,5.419,0,1,1,33.966,30.3,5.437,5.437,0,0,1,28.524,35.723Zm0-8.633a3.215,3.215,0,1,0,3.228,3.215,3.225,3.225,0,0,0-3.228-3.215Z" transform="translate(-12.505 -14.354)" fill="#3fc297"/>
      </g>
      <g id="XMLID_2119_">
        <path id="XMLID_6_" d="M52.293,39.389a1.1,1.1,0,0,1-1.107-1.1V12.807a1.105,1.105,0,0,0-1.107-1.1H10.385a1.106,1.106,0,0,0-1.107,1.1V38.288a1.107,1.107,0,0,1-2.213,0V12.807A3.318,3.318,0,0,1,10.385,9.5H50.079a3.317,3.317,0,0,1,3.32,3.307V38.288A1.1,1.1,0,0,1,52.293,39.389Z" transform="translate(-4.226 -9.5)" fill="#0b4d51"/>
        <path id="XMLID_3_" d="M50.287,47.353H10.725a6.219,6.219,0,0,1-6.225-6.2V40.5a2,2,0,0,1,2.006-2h48a2,2,0,0,1,2.006,2v.655A6.221,6.221,0,0,1,50.287,47.353ZM6.713,40.705v.449a4.007,4.007,0,0,0,4.012,3.995H50.287A4.007,4.007,0,0,0,54.3,41.155v-.449Z" transform="translate(-4.5 -6.408)" fill="#0b4d51"/>
        <path id="XMLID_2_" d="M32.96,43.708H24.107a1.1,1.1,0,1,1,0-2.2H32.96a1.1,1.1,0,1,1,0,2.2Z" transform="translate(-2.527 -6.087)" fill="#0b4d51"/>
      </g>
    </g>
  </g>
</svg>
