<svg xmlns="http://www.w3.org/2000/svg" width="49.989" height="54.873" viewBox="0 0 49.989 54.873">
  <g id="iconPn00602" transform="translate(-338.395 -1020.8)">
    <g id="Group_128624" data-name="Group 128624" transform="translate(338.614 1021)">
      <path id="Path_128580" data-name="Path 128580" d="M786.712,433.1l0,0,1.587-.271-1.435-.882,0,0c-4.381-2.564-6.967-8.65-7.108-16.693-.1-5.59-1.851-8.831-2.993-10.384a.636.636,0,0,0,.6-.629.652.652,0,0,0-.663-.642h-.746c-.011-.293-.046-.574-.081-.843h.407a.647.647,0,1,0,0-1.294h-.711c-1.281-4.141-5.464-6.784-11.219-6.784s-9.951,2.632-11.221,6.784h-.9a.647.647,0,1,0,0,1.294h.607a6.4,6.4,0,0,0-.094.843h-.931a.642.642,0,1,0,0,1.283h.163c-1.144,1.551-2.878,4.8-2.984,10.371-.136,7.852-2.61,13.83-6.806,16.5l-1.761,1.081,1.6.273a7.566,7.566,0,0,0-2.273,5.119c-.257,4.623-.15,9.055-.07,10.607l1.34-1.115c-.07-1.507-.174-4.837.07-9.425a6.414,6.414,0,0,1,2.68-4.973c.4.033.829.046,1.294.046a9.162,9.162,0,0,0,4.672-1.014c.187-.123.4-.247.617-.37a12.719,12.719,0,0,0,5.033-4.725,14.61,14.61,0,0,0,8.7,3.138,17.1,17.1,0,0,0,9.507-3.34,12.448,12.448,0,0,0,5.081,5.1l.326.2a9.157,9.157,0,0,0,4.672,1.014c.466,0,.9-.013,1.292-.046a6.5,6.5,0,0,1,2.68,4.973c.246,4.588.141,7.918.07,9.425l1.34,1.2c.071-1.552.176-6.074-.07-10.7a7.583,7.583,0,0,0-2.282-5.119m-22.36-37.132c3.939,0,8.424,1.5,9.844,5.49H754.506c1.423-3.994,5.908-5.49,9.847-5.49m-10.173,6.784h20.343c.048.269.07.55.093.843h-20.53c.024-.293.046-.574.093-.843m17.57,5.162c.081,1.5.211,4.445.233,7.819a8.4,8.4,0,0,1-2,4.634c-.048.011-.081.011-.128.024-3.4,1.169-4.241-.744-4.324-.957A.671.671,0,0,0,764.9,419h-1.47a.693.693,0,0,0-.629.427c-.082.224-.909,2.08-4.2,1.012a8.6,8.6,0,0,1-2.014-4.68c0-.022-.011-.046-.011-.068a54.384,54.384,0,0,1,.3-7.469,3.307,3.307,0,0,1,3.2.775.684.684,0,0,0,.455.171.667.667,0,0,0,.407-.125,5.79,5.79,0,0,1,6.34-.057.7.7,0,0,0,.768-.022c.663-.495,2.527-1.541,3.693-1.047m-2.878,14.062a5.188,5.188,0,0,1-4.544,2.575c-3.076,0-4.439-1.518-5.022-2.6,1.142.2,1.547,2.791,2.384,2.4s2.016.405,2.262,0h.627c.246.405.783-.383,1.611,0s1.61-2.207,2.682-2.375m-12-1.672v0Zm1.518,7.3.423-4.06a6.743,6.743,0,0,0,5.515,2.3,6.409,6.409,0,0,0,5.3-2.665l.46,4.414a12.191,12.191,0,0,1-11.7.007m21.342,3.655-.326-.2c-2.471-1.52-6.2-3.814-6.094-12.262.011-1.012.011-2.025.011-2.991v-.013c-.033-3.642-.178-6.793-.249-8.2l-.02-.775-.013-.068-.09-.922-1.155.511-.031.218a6.207,6.207,0,0,0-4.139,1.126,7.255,7.255,0,0,0-7.015.046,4.582,4.582,0,0,0-3.565-.867l-.072-.522-1.155-.511-.09.922-.013.068a51.4,51.4,0,0,0-.279,12.037,13.507,13.507,0,0,1-.909,7.222c0,.011-.013.011-.013.022a10.967,10.967,0,0,1-4.857,4.78c-.235.136-.444.269-.641.383-1.329.832-3.5.878-4.987.788,3.891-3.184,6.164-9.168,6.3-16.773.117-6.6,2.693-9.685,3.367-10.393h21.346c.676.708,3.252,3.791,3.367,10.393.128,7.6,2.412,13.589,6.316,16.773-1.6.09-3.741,0-5-.788" transform="translate(-739.593 -394.674)" fill="#004a4d" stroke="#004a4d" stroke-width="0.4"/>
      <path id="Path_128581" data-name="Path 128581" d="M745.6,419.9c-.98,2.308-.6,7.532-.552,8.118l1.743-.126c-.119-1.488-.273-5.706.425-7.35Z" transform="translate(-735.144 -373.665)" fill="#3fc298" stroke="#3fc298" stroke-width="0.4"/>
      <path id="Path_128582" data-name="Path 128582" d="M759.993,420.548c.742,1.7.658,5.886.565,7.354l1.741.1c.017-.231.357-5.7-.7-8.114Z" transform="translate(-722.602 -373.669)" fill="#3fc298" stroke="#3fc298" stroke-width="0.4"/>
    </g>
    <g id="Group_128623" data-name="Group 128623" transform="translate(349.577 1027.499)">
      <rect id="Rectangle_14488" data-name="Rectangle 14488" width="26.63" height="2.303" rx="1.151" transform="translate(0.499)" fill="#3fc298"/>
      <rect id="Rectangle_14489" data-name="Rectangle 14489" width="27.628" height="2.303" rx="1.151" transform="translate(0 2.001)" fill="#3fc298"/>
    </g>
  </g>
</svg>
