<svg xmlns="http://www.w3.org/2000/svg" width="49.183" height="49.116" viewBox="0 0 49.183 49.116">
  <g id="iconPn003" transform="translate(0 -0.348)">
    <g id="Group_124934" data-name="Group 124934" transform="translate(7.173 36.118)">
      <g id="Group_124933" data-name="Group 124933">
        <path id="Path_124946" data-name="Path 124946" d="M116.576,376.459a6.7,6.7,0,0,0-7.66-3.523l-7.851,1.963a1.024,1.024,0,0,0,.5,1.988l7.851-1.959a4.66,4.66,0,0,1,4.744,1.549L104,381.1c-8.615,3.531-8.912,3.418-12.607,2.025L76.022,378a1.024,1.024,0,1,0-.648,1.943L90.7,385.05a11.785,11.785,0,0,0,4.248,1.027c2.078,0,4.512-.908,9.861-3.1l11.271-5.123a1.025,1.025,0,0,0,.492-1.391Z" transform="translate(-74.674 -372.731)" fill="#10ad8d"/>
      </g>
    </g>
    <g id="Group_124936" data-name="Group 124936" transform="translate(10.245 29.04)">
      <g id="Group_124935" data-name="Group 124935">
        <path id="Path_124947" data-name="Path 124947" d="M126.341,303.167l-18.443-4.1a1.039,1.039,0,0,0-1.223.779,1.026,1.026,0,0,0,.779,1.223l18.417,4.092c2.271.568,3.182,1.461,3.307,3.332l-1.967.492a5.126,5.126,0,0,1-2.246.053l-8.89-1.779a1.024,1.024,0,0,0-.4,2.008l8.892,1.779a7.225,7.225,0,0,0,3.144-.076l2.758-.689a1.025,1.025,0,0,0,.777-.994v-.324C131.243,305.8,129.741,304.015,126.341,303.167Z" transform="translate(-106.65 -299.047)" fill="#10ad8d"/>
      </g>
    </g>
    <g id="Group_124932" data-name="Group 124932" transform="translate(0 24.941)">
      <g id="Group_124931" data-name="Group 124931">
        <path id="Path_124945" data-name="Path 124945" d="M11.976,258.7c-1.756-1.664-8.779-2.2-10.89-2.328a1.068,1.068,0,0,0-.764.277A1.025,1.025,0,0,0,0,257.39v18.443a1.025,1.025,0,0,0,1.025,1.025H7.172a1.026,1.026,0,0,0,.973-.707c.15-.459,3.68-11.3,4.146-16.623A1.02,1.02,0,0,0,11.976,258.7ZM6.424,274.809H2.049v-16.32c3.293.26,6.849.826,8.138,1.453C9.644,264.43,7.187,272.4,6.424,274.809Z" transform="translate(0 -256.368)" fill="#155055"/>
      </g>
    </g>
    <g id="Group_124938" data-name="Group 124938" transform="translate(8.197 22.89)">
      <g id="Group_124937" data-name="Group 124937">
        <path id="Path_124948" data-name="Path 124948" d="M125.293,235.015H86.358a1.025,1.025,0,1,0,0,2.049h38.936a1.025,1.025,0,1,0,0-2.049Z" transform="translate(-85.333 -235.015)" fill="#0b4d51"/>
      </g>
    </g>
    <g id="Group_124940" data-name="Group 124940" transform="translate(10.246 4.447)">
      <g id="Group_124939" data-name="Group 124939">
        <path id="Path_124949" data-name="Path 124949" d="M125.11,43.015a18.466,18.466,0,0,0-18.443,18.443v1.025a1.025,1.025,0,0,0,1.025,1.025h34.837a1.025,1.025,0,0,0,1.025-1.025V61.458A18.466,18.466,0,0,0,125.11,43.015ZM108.716,61.458a16.394,16.394,0,1,1,32.788,0Z" transform="translate(-106.667 -43.015)" fill="#0b4d51"/>
      </g>
    </g>
    <g id="Group_124942" data-name="Group 124942" transform="translate(14.703 8.545)">
      <g id="Group_124941" data-name="Group 124941">
        <path id="Path_124950" data-name="Path 124950" d="M167.046,85.682a14.3,14.3,0,0,0-13.959,11.033,1.027,1.027,0,0,0,.76,1.234.956.956,0,0,0,.238.029,1.023,1.023,0,0,0,1-.789,12.255,12.255,0,0,1,11.965-9.457,1.025,1.025,0,0,0,0-2.049Z" transform="translate(-153.059 -85.682)" fill="#06b490"/>
      </g>
    </g>
    <g id="Group_124944" data-name="Group 124944" transform="translate(24.591 0.348)">
      <g id="Group_124943" data-name="Group 124943" transform="translate(0 0)">
        <path id="Path_124951" data-name="Path 124951" d="M260.1.348a4.1,4.1,0,0,0-4.1,4.1V5.471a1.025,1.025,0,0,0,2.049,0V4.447a2.049,2.049,0,0,1,4.1,0V5.471a1.025,1.025,0,0,0,2.049,0V4.447A4.1,4.1,0,0,0,260.1.348Z" transform="translate(-256 -0.348)" fill="#155055"/>
      </g>
    </g>
    <g id="Group_124946" data-name="Group 124946" transform="translate(10.246 22.891)">
      <g id="Group_124945" data-name="Group 124945">
        <path id="Path_124952" data-name="Path 124952" d="M143.249,235.331a1.025,1.025,0,0,0-1.449,0l-3.8,3.8H112.209l-3.8-3.8a1.024,1.024,0,0,0-1.449,1.449l4.1,4.1a1.032,1.032,0,0,0,.725.3h26.64a1.032,1.032,0,0,0,.725-.3l4.1-4.1A1.025,1.025,0,0,0,143.249,235.331Z" transform="translate(-106.661 -235.031)" fill="#0b4d51"/>
      </g>
    </g>
  </g>
</svg>
