<svg xmlns="http://www.w3.org/2000/svg" width="60.524" height="54.722" viewBox="0 0 60.524 54.722">
  <g id="iconPn000400" transform="translate(-0.75 -1.75)">
    <path id="Path_124955" data-name="Path 124955" d="M54.321,13.822V34.1c0,7.833-1.828,10.357-8.7,10.764V24.121c0-8.646-2.2-10.822-10.967-10.822H7.263c-.812,0-1.567.029-2.263.058C5.087,5.089,7.35,3,15.967,3H43.354C52.116,3,54.321,5.176,54.321,13.822Z" transform="translate(5.704 0)" fill="none" stroke="#0b4d51" stroke-linecap="round" stroke-linejoin="round" stroke-width="2.5"/>
    <path id="Path_124954" data-name="Path 124954" d="M51.321,17.371V38.115c-.087,8.268-2.35,10.357-10.967,10.357H12.967C4.205,48.473,2,46.3,2,37.651V17.371C2,9.538,3.828,7.014,10.7,6.608c.7-.029,1.451-.058,2.263-.058H40.354C49.116,6.55,51.321,8.726,51.321,17.371Z" transform="translate(0 6.749)" fill="none" stroke="#10ad8d" stroke-linecap="round" stroke-linejoin="round" stroke-width="2.5"/>
    <path id="Path_124956" data-name="Path 124956" d="M5.25,17.81h4.99" transform="translate(17.713 12.414)" fill="none" stroke="#10ad8d" stroke-linecap="round" stroke-linejoin="round" stroke-miterlimit="10" stroke-width="2.5"/>
    <path id="Path_124957" data-name="Path 124957" d="M9.11,17.81h9.98" transform="translate(23.898 12.414)" fill="none" stroke="#10ad8d" stroke-linecap="round" stroke-linejoin="round" stroke-miterlimit="10" stroke-width="2.5"/>
    <path id="Path_124958" data-name="Path 124958" d="M9.11,17.81h9.98" transform="translate(23.898 20.488)" fill="none" stroke="#10ad8d" stroke-linecap="round" stroke-linejoin="round" stroke-miterlimit="10" stroke-width="2.5"/>
    <rect id="Rectangle_14208" data-name="Rectangle 14208" width="9" height="8" rx="2" transform="translate(8 29.885)" fill="none" stroke="#19a68b" stroke-width="2.5"/>
  </g>
</svg>
