<svg xmlns="http://www.w3.org/2000/svg" width="46.604" height="46.61" viewBox="0 0 46.604 46.61">
  <g id="iconPn000600" transform="translate(-942.871 -1415.462)">
    <path id="Path_127961" data-name="Path 127961" d="M946.152,1440.028c-.01,0-.01.011-.019,0l-.42-1.5h.039Z" transform="translate(-0.06 -0.518)" fill="#3fc298"/>
    <path id="Path_127962" data-name="Path 127962" d="M962.932,1440.048H962.9l-.4-1.525h.01Z" transform="translate(-0.44 -0.518)" fill="#3fc298"/>
    <g id="Group_128633" data-name="Group 128633">
      <g id="Group_128249" data-name="Group 128249" transform="translate(943.071 1415.662)">
        <g id="Group_128245" data-name="Group 128245" transform="translate(22.336)">
          <path id="Path_127950" data-name="Path 127950" d="M977.69,1447.309a4.2,4.2,0,0,1-1.665-.309,5.214,5.214,0,0,1-3.3-4.833,5.115,5.115,0,0,1,.727-2.638h-7.519l0,0v-8.188a.765.765,0,1,1,1.531,0V1438h7.657a.765.765,0,0,1,.481,1.36,3.61,3.61,0,1,0,4.53,0,.765.765,0,0,1,.481-1.36h7.657v-20.806H967.457v6.667a.765.765,0,0,1-1.531,0v-8.195l0,0h23.865v23.865l0,0H982.27a5.166,5.166,0,0,1-4.324,7.778Z" transform="translate(-965.926 -1415.662)" fill="#004a4d" stroke="#004a4d" stroke-width="0.4"/>
        </g>
        <g id="Group_128246" data-name="Group 128246" transform="translate(14.561 22.344)">
          <path id="Path_127951" data-name="Path 127951" d="M990.119,1438.524v12.8l-1.525.963v-12.372h-7.32a.7.7,0,1,1,0-1.391Z" transform="translate(-958.482 -1438.524)" fill="#004a4d" stroke="#004a4d" stroke-width="0.4"/>
          <path id="Path_127952" data-name="Path 127952" d="M988.084,1455.538l1.525-1.064v7.144a.773.773,0,0,1-.772.771H965.752a.01.01,0,0,1-.01-.01v-7.516a4.987,4.987,0,0,1-2.482.724,5.137,5.137,0,1,1-.156-10.272,5.12,5.12,0,0,1,2.639.723v-7.516H974.5a.762.762,0,1,1,0,1.525h-7.222v7.662a.767.767,0,0,1-1.359.479,3.6,3.6,0,0,0-2.815-1.349,3.563,3.563,0,0,0-2.57,1.085,3.608,3.608,0,1,0,5.385,4.789.774.774,0,0,1,.85-.235.763.763,0,0,1,.508.724v7.652h20.807Z" transform="translate(-957.971 -1438.524)" fill="#004a4d" stroke="#004a4d" stroke-width="0.4"/>
        </g>
        <g id="Group_128247" data-name="Group 128247" transform="translate(0 14.563)">
          <path id="Path_127953" data-name="Path 127953" d="M967.379,1438.524v8.757a.767.767,0,0,1-1.534,0v-7.232H962.9l-.4-1.525Z" transform="translate(-943.512 -1430.743)" fill="#004a4d" stroke="#004a4d" stroke-width="0.4"/>
          <path id="Path_127954" data-name="Path 127954" d="M946.652,1437.231H950.1a4.438,4.438,0,0,1-.628-2.136,4.407,4.407,0,1,1,8.184,2.136h1.483l.369,1.307h-3.275a.654.654,0,0,1-.411-1.165,3.085,3.085,0,1,0-4.163-4.531,3.051,3.051,0,0,0-.871,2.211,3.092,3.092,0,0,0,1.148,2.319.654.654,0,0,1-.41,1.165h-4.506Z" transform="translate(-942.153 -1429.232)" fill="#004a4d" stroke="#004a4d" stroke-width="0.4"/>
          <path id="Path_127955" data-name="Path 127955" d="M966.938,1453.536v8.083a.765.765,0,0,1-.762.771H943.844a.774.774,0,0,1-.772-.772v-23.093h2.619l.4,1.5c-.01,0-.01.011-.019,0l.01.021h-1.476v20.806h20.8v-7.319a.767.767,0,1,1,1.534,0Z" transform="translate(-943.072 -1430.743)" fill="#004a4d" stroke="#004a4d" stroke-width="0.4"/>
        </g>
        <path id="Path_127959" data-name="Path 127959" d="M943.072,1462.865H946.8l-1.866-.746-1.362-2.044-.5-.6Z" transform="translate(-943.072 -1416.655)" fill="#004a4d" stroke="#004a4d" stroke-width="0.4"/>
        <path id="Path_127960" data-name="Path 127960" d="M990.268,1462.853v-3.732l-.746,1.866-2.044,1.362-.6.5Z" transform="translate(-944.065 -1416.647)" fill="#004a4d" stroke="#004a4d" stroke-width="0.4"/>
      </g>
      <g id="Group_128250" data-name="Group 128250" transform="translate(973.193 1457.452)">
        <path id="Path_127963" data-name="Path 127963" d="M984.882,1459.788v-1.355s-9.293-.009-9.818-.013l-1.171,1.354C974.876,1459.78,984.882,1459.788,984.882,1459.788Z" transform="translate(-972.822 -1458.421)" fill="#004a4d" stroke="#004a4d" stroke-width="0.4"/>
      </g>
    </g>
    <g id="Group_128632" data-name="Group 128632">
      <g id="Group_128248" data-name="Group 128248" transform="translate(943.071 1415.664)">
        <path id="Path_127956" data-name="Path 127956" d="M944.606,1417.2v20.807h1.085l.4,1.5c-.01,0-.01.011-.019,0a.275.275,0,0,1-.127.021h-2.873v-20.474a3.393,3.393,0,0,1,3.391-3.391h7.962l-2.2,1.535Z" transform="translate(-943.072 -1415.664)" fill="#3fc298" stroke="#3fc298" stroke-width="0.4"/>
        <path id="Path_127957" data-name="Path 127957" d="M975.017,1427.509a5.149,5.149,0,0,1-7.78,4.505v7.515h-4.476l-.4-1.525H965.7v-7.663a.769.769,0,0,1,1.368-.479,3.606,3.606,0,0,0,6.411-2.326,3.657,3.657,0,0,0-3.714-3.548,3.6,3.6,0,0,0-2.7,1.339.769.769,0,0,1-1.368-.479V1417.2h-9.431l2.209-1.535h8.757v7.526a5.1,5.1,0,0,1,6.177.714A5.133,5.133,0,0,1,975.017,1427.509Z" transform="translate(-943.371 -1415.664)" fill="#3fc298" stroke="#3fc298" stroke-width="0.4"/>
      </g>
      <path id="Path_127958" data-name="Path 127958" d="M943.072,1415.664v3.732l.746-1.866,2.044-1.362.6-.5Z" fill="#3fc298" stroke="#3fc298" stroke-width="0.4"/>
      <g id="Group_128251" data-name="Group 128251" transform="translate(969.156 1457.452)">
        <path id="Path_127964" data-name="Path 127964" d="M969.762,1458.421v1.354s2.246.009,2.825.013l1.293-1.356Z" transform="translate(-969.478 -1458.421)" fill="#3fc298" stroke="#3fc298" stroke-width="0.4"/>
      </g>
    </g>
  </g>
</svg>
