<svg xmlns="http://www.w3.org/2000/svg" width="29.723" height="29.728" viewBox="0 0 29.723 29.728">
  <g id="Linin" transform="translate(-35.391 -205.236)">
    <path id="Path_479" data-name="Path 479" d="M8.781,75.614h2.77v8.9H8.781Zm1.383-4.423a1.6,1.6,0,1,1-1.606,1.6,1.6,1.6,0,0,1,1.606-1.6" transform="translate(35.023 142.25)" fill="#09484d"/>
    <path id="Path_480" data-name="Path 480" d="M9.486,72.241H12.14v1.215h.036a2.915,2.915,0,0,1,2.618-1.439c2.8,0,3.314,1.845,3.314,4.24v4.88H15.342V76.811c0-1.032-.015-2.359-1.434-2.359-1.439,0-1.657,1.123-1.657,2.282v4.4H9.486Z" transform="translate(38.817 145.623)" fill="#09484d"/>
    <path id="Path_481" data-name="Path 481" d="M36.669,84.558v-.117a14.9,14.9,0,1,0-.066,1.367l-1.057.742v.005a13.924,13.924,0,1,1,.158-2.115c0,.269-.005.539-.025.8Z" transform="translate(28.445 135.659)" fill="#15484d"/>
  </g>
</svg>
