<svg id="logoFooter" xmlns="http://www.w3.org/2000/svg" xmlns:xlink="http://www.w3.org/1999/xlink" width="138.282" height="77.681" viewBox="0 0 138.282 77.681">
  <defs>
    <clipPath id="clip-path">
      <rect id="Rectangle_47" data-name="Rectangle 47" width="138.282" height="77.681" fill="none"/>
    </clipPath>
  </defs>
  <path id="Path_398" data-name="Path 398" d="M446.581,5.346l-1.694,8.866L455.211,0Z" transform="translate(-369.505 0)" fill="#49bb95"/>
  <path id="Path_399" data-name="Path 399" d="M444.886,14.211l7.908-4.351L455.211,0Z" transform="translate(-369.505 0)" fill="#10484c"/>
  <path id="Path_400" data-name="Path 400" d="M452.795,58.193l-7.908,4.351h14.942Z" transform="translate(-369.505 -48.332)" fill="#0e8674"/>
  <path id="Path_401" data-name="Path 401" d="M417.634,0l4.618,14.211,1.694-8.866Z" transform="translate(-346.871 0)" fill="#0e8674"/>
  <path id="Path_402" data-name="Path 402" d="M385.394,203.29l3.84,9.4V195.121Z" transform="translate(-320.094 -162.06)" fill="#49bb95"/>
  <path id="Path_403" data-name="Path 403" d="M408.06,212.687l3.84-9.4-3.84-8.168Z" transform="translate(-338.918 -162.06)" fill="#10484c"/>
  <path id="Path_404" data-name="Path 404" d="M408.06,195.121l3.84,8.168,8.249.615Z" transform="translate(-338.918 -162.06)" fill="#0e8674"/>
  <path id="Path_405" data-name="Path 405" d="M336.714,203.9l8.249-.615,3.84-8.168Z" transform="translate(-279.661 -162.06)" fill="#0e8674"/>
  <path id="Path_406" data-name="Path 406" d="M257.626,145.906l-7.751,6.556,16.706-5.428Z" transform="translate(-207.536 -121.184)" fill="#49bb95"/>
  <path id="Path_407" data-name="Path 407" d="M249.875,157.993l10.125.748,6.582-6.177Z" transform="translate(-207.536 -126.714)" fill="#10484c"/>
  <path id="Path_408" data-name="Path 408" d="M309.628,158.74l1.964,8.035,4.618-14.211Z" transform="translate(-257.165 -126.713)" fill="#0e8674"/>
  <path id="Path_409" data-name="Path 409" d="M277.127,100.728l3.133,7.655,8.956,1.128Z" transform="translate(-230.171 -83.661)" fill="#0e8674"/>
  <path id="Path_410" data-name="Path 410" d="M310.3,0l2.417,9.86,7.908,4.351Z" transform="translate(-257.72 0)" fill="#49bb95"/>
  <path id="Path_411" data-name="Path 411" d="M310.3,0l10.325,14.211-1.694-8.866Z" transform="translate(-257.72 0)" fill="#10484c"/>
  <path id="Path_412" data-name="Path 412" d="M361.233,5.346l1.694,8.866L367.545,0Z" transform="translate(-300.026 0)" fill="#0e8674"/>
  <path id="Path_413" data-name="Path 413" d="M283.045,62.544h14.943l-7.908-4.351Z" transform="translate(-235.086 -48.332)" fill="#0e8674"/>
  <path id="Path_414" data-name="Path 414" d="M476.6,145.906l-8.956,1.128,16.706,5.428Z" transform="translate(-388.408 -121.183)" fill="#49bb95"/>
  <path id="Path_415" data-name="Path 415" d="M467.646,152.564l6.582,6.177,10.124-.749Z" transform="translate(-388.408 -126.714)" fill="#10484c"/>
  <path id="Path_416" data-name="Path 416" d="M472.263,166.775l1.964-8.035-6.582-6.177Z" transform="translate(-388.408 -126.713)" fill="#0e8674"/>
  <path id="Path_417" data-name="Path 417" d="M479.735,100.728l-12.089,8.783,8.956-1.128Z" transform="translate(-388.409 -83.661)" fill="#0e8674"/>
  <g id="Group_11" data-name="Group 11">
    <g id="Group_10" data-name="Group 10" clip-path="url(#clip-path)">
      <path id="Path_418" data-name="Path 418" d="M3.549,399.695v.351h.675v-2.774h-2.1v.652h1.36v.368a1.284,1.284,0,0,1-.082.46,1.162,1.162,0,0,1-.229.375,1.033,1.033,0,0,1-.357.25,1.185,1.185,0,0,1-.47.091,1.493,1.493,0,0,1-.79-.187,1.411,1.411,0,0,1-.484-.5,2.187,2.187,0,0,1-.254-.721,4.852,4.852,0,0,1-.073-.837,3.865,3.865,0,0,1,.108-.952,2.328,2.328,0,0,1,.3-.709,1.352,1.352,0,0,1,.451-.435,1.162,1.162,0,0,1,.584-.148,1.249,1.249,0,0,1,.482.087,1.163,1.163,0,0,1,.365.24,1.318,1.318,0,0,1,.259.362,2.144,2.144,0,0,1,.162.455l.027.115.7-.125-.024-.124a2.392,2.392,0,0,0-.233-.666,1.887,1.887,0,0,0-.412-.528,1.857,1.857,0,0,0-.576-.345,2.107,2.107,0,0,0-1.592.071,2.06,2.06,0,0,0-.708.568A2.773,2.773,0,0,0,.17,396,4.056,4.056,0,0,0,0,397.224a4.326,4.326,0,0,0,.158,1.223,2.7,2.7,0,0,0,.451.908,1.98,1.98,0,0,0,.7.57,2.024,2.024,0,0,0,.883.2,2.389,2.389,0,0,0,.943-.156,1.508,1.508,0,0,0,.412-.269" transform="translate(0 -327.514)" fill="#102145"/>
      <path id="Path_419" data-name="Path 419" d="M32.869,407.514a2.242,2.242,0,0,0,.522-.056,1.448,1.448,0,0,0,.433-.18,1.628,1.628,0,0,0,.364-.315,3.174,3.174,0,0,0,.327-.459l.068-.112-.583-.31-.062.1a4.082,4.082,0,0,1-.264.369,1.134,1.134,0,0,1-.228.216.737.737,0,0,1-.237.109,1.208,1.208,0,0,1-.3.034,1.025,1.025,0,0,1-.507-.118.99.99,0,0,1-.346-.319,1.481,1.481,0,0,1-.2-.483,2.532,2.532,0,0,1-.065-.474h2.7v-.125a3.524,3.524,0,0,0-.1-.852,2,2,0,0,0-.308-.685,1.482,1.482,0,0,0-.53-.456,1.753,1.753,0,0,0-1.468,0,1.553,1.553,0,0,0-.544.446,2.075,2.075,0,0,0-.338.679,2.987,2.987,0,0,0-.117.857,2.338,2.338,0,0,0,.48,1.6,1.675,1.675,0,0,0,1.3.538m-.077-3.676a.822.822,0,0,1,.688.31,1.669,1.669,0,0,1,.293.756H31.791a1.582,1.582,0,0,1,.055-.267h0a1.336,1.336,0,0,1,.188-.393,1.051,1.051,0,0,1,.314-.294.838.838,0,0,1,.445-.112" transform="translate(-25.819 -334.907)" fill="#102145"/>
      <path id="Path_420" data-name="Path 420" d="M60.543,407.439v-2.777a1.635,1.635,0,0,0-.3-1.05,1.187,1.187,0,0,0-.975-.382,1.491,1.491,0,0,0-.786.2,2.809,2.809,0,0,0-.42.319V403.3h-.7v4.134h.7v-2.93q.163-.144.3-.267a2.409,2.409,0,0,1,.277-.224,1.159,1.159,0,0,1,.259-.135.844.844,0,0,1,.283-.045.578.578,0,0,1,.517.2,1.212,1.212,0,0,1,.151.67v2.732Z" transform="translate(-47.645 -334.907)" fill="#102145"/>
      <path id="Path_421" data-name="Path 421" d="M84.91,406.178a4.147,4.147,0,0,1-.264.37,1.142,1.142,0,0,1-.228.215.737.737,0,0,1-.237.109,1.207,1.207,0,0,1-.3.034,1.024,1.024,0,0,1-.506-.118.988.988,0,0,1-.346-.319,1.478,1.478,0,0,1-.2-.483,2.534,2.534,0,0,1-.065-.474h2.7v-.125a3.524,3.524,0,0,0-.1-.852,1.986,1.986,0,0,0-.308-.685,1.479,1.479,0,0,0-.53-.456,1.753,1.753,0,0,0-1.468,0,1.554,1.554,0,0,0-.544.446,2.075,2.075,0,0,0-.338.679,2.987,2.987,0,0,0-.117.857,2.338,2.338,0,0,0,.48,1.6,1.675,1.675,0,0,0,1.3.538,2.241,2.241,0,0,0,.522-.056,1.448,1.448,0,0,0,.433-.18,1.633,1.633,0,0,0,.364-.315,3.174,3.174,0,0,0,.327-.459l.068-.112-.583-.31Zm-1.145-2.341a.821.821,0,0,1,.687.31,1.667,1.667,0,0,1,.293.756H82.763a1.6,1.6,0,0,1,.055-.267h0a1.34,1.34,0,0,1,.188-.393,1.049,1.049,0,0,1,.314-.294.837.837,0,0,1,.445-.112" transform="translate(-68.154 -334.907)" fill="#102145"/>
      <path id="Path_422" data-name="Path 422" d="M109.126,403.483a1.558,1.558,0,0,0-.266.262V403.3h-.7v4.134h.7v-2.321a1.141,1.141,0,0,1,.1-.469,1.39,1.39,0,0,1,.253-.388,1.272,1.272,0,0,1,.333-.259.7.7,0,0,1,.327-.09h.326v-.682h-.326a1.193,1.193,0,0,0-.745.254" transform="translate(-89.835 -334.906)" fill="#102145"/>
      <path id="Path_423" data-name="Path 423" d="M125.933,406.929q-.011-.179-.011-.325v-2.032a1.32,1.32,0,0,0-.359-1.027,1.565,1.565,0,0,0-1.066-.316,1.638,1.638,0,0,0-1.552.947l-.056.1.5.3.065-.1a1.61,1.61,0,0,1,.46-.482,1,1,0,0,1,.563-.163.872.872,0,0,1,.607.158.679.679,0,0,1,.158.495v.169c-.359.08-.687.159-.978.233a3.639,3.639,0,0,0-.809.3,1.364,1.364,0,0,0-.521.465,1.326,1.326,0,0,0-.18.717,1.062,1.062,0,0,0,.349.845,1.249,1.249,0,0,0,.844.3,2.39,2.39,0,0,0,.43-.036,1.876,1.876,0,0,0,.372-.108,2.079,2.079,0,0,0,.346-.183c.054-.036.11-.074.168-.115l.047.367h.693l-.028-.148a2.846,2.846,0,0,1-.046-.362m-.708-1.655v1.063a2.15,2.15,0,0,1-.579.41.958.958,0,0,1-1.037.019.5.5,0,0,1-.152-.4.819.819,0,0,1,.055-.3.641.641,0,0,1,.233-.259,2.408,2.408,0,0,1,.581-.279,8.781,8.781,0,0,1,.9-.252" transform="translate(-101.959 -334.907)" fill="#102145"/>
      <path id="Path_424" data-name="Path 424" d="M150.132,393.294l-.7.249v5.643h.7Z" transform="translate(-124.114 -326.655)" fill="#102145"/>
      <path id="Path_425" data-name="Path 425" d="M176.89,400.407h.785l-1.782-5.643h-.937l-1.805,5.643h.785l.553-1.763h1.856Zm-.736-2.416h-1.46l.727-2.31Z" transform="translate(-143.812 -327.876)" fill="#102145"/>
      <path id="Path_426" data-name="Path 426" d="M207.561,406.6c-.108.1-.207.189-.3.269a2.7,2.7,0,0,1-.278.221,1.148,1.148,0,0,1-.26.135.839.839,0,0,1-.283.045.577.577,0,0,1-.517-.2,1.208,1.208,0,0,1-.15-.67v-2.732h-.7v2.777a1.634,1.634,0,0,0,.3,1.05,1.187,1.187,0,0,0,.974.382,1.493,1.493,0,0,0,.786-.2,2.8,2.8,0,0,0,.42-.319v.442h.7v-4.134h-.7Z" transform="translate(-170.332 -335.274)" fill="#102145"/>
      <path id="Path_427" data-name="Path 427" d="M230.759,400.35v-.659l-.166.059a1.359,1.359,0,0,1-.206.055,1.133,1.133,0,0,1-.208.02c-.2,0-.271-.076-.271-.272v-2.722h.852v-.608h-.852v-1.519l-.7.249v1.27h-.583v.608h.583v2.8a.775.775,0,0,0,.226.613,1.118,1.118,0,0,0,.743.191,1.165,1.165,0,0,0,.255-.029c.074-.017.146-.029.217-.039Z" transform="translate(-189.889 -327.827)" fill="#102145"/>
      <path id="Path_428" data-name="Path 428" d="M247.8,395.63a.839.839,0,0,1,.283-.045.578.578,0,0,1,.517.2,1.212,1.212,0,0,1,.151.67v2.732h.7v-2.777a1.635,1.635,0,0,0-.3-1.05,1.187,1.187,0,0,0-.975-.382,1.491,1.491,0,0,0-.786.2,2.817,2.817,0,0,0-.42.319v-2.2l-.7.249v5.643h.7v-2.93q.163-.144.3-.267a2.419,2.419,0,0,1,.277-.224,1.163,1.163,0,0,1,.259-.135" transform="translate(-204.539 -326.655)" fill="#102145"/>
      <path id="Path_429" data-name="Path 429" d="M273.5,407.329a1.507,1.507,0,0,0,.537-.488,1.99,1.99,0,0,0,.283-.685,3.833,3.833,0,0,0,0-1.569,1.992,1.992,0,0,0-.283-.685,1.509,1.509,0,0,0-.537-.488,1.93,1.93,0,0,0-1.644,0,1.509,1.509,0,0,0-.537.488,1.991,1.991,0,0,0-.283.685,3.835,3.835,0,0,0,0,1.569,1.991,1.991,0,0,0,.283.685,1.508,1.508,0,0,0,.537.488,1.933,1.933,0,0,0,1.644,0m-.822-.424a.837.837,0,0,1-.773-.375,2.776,2.776,0,0,1,0-2.318.983.983,0,0,1,1.545,0,2.776,2.776,0,0,1,0,2.318.837.837,0,0,1-.773.375" transform="translate(-225.048 -334.906)" fill="#102145"/>
      <path id="Path_430" data-name="Path 430" d="M299.1,403.912v-.682h-.326a1.193,1.193,0,0,0-.745.254,1.559,1.559,0,0,0-.266.262V403.3h-.7v4.134h.7v-2.321a1.142,1.142,0,0,1,.1-.469,1.385,1.385,0,0,1,.253-.388,1.275,1.275,0,0,1,.333-.259.7.7,0,0,1,.327-.09Z" transform="translate(-246.729 -334.906)" fill="#102145"/>
      <rect id="Rectangle_38" data-name="Rectangle 38" width="0.698" height="4.134" transform="translate(53.218 68.398)" fill="#102145"/>
      <rect id="Rectangle_39" data-name="Rectangle 39" width="0.698" height="0.907" transform="translate(53.218 66.888)" fill="#102145"/>
      <path id="Path_431" data-name="Path 431" d="M324.752,400.4h0c.074-.017.146-.029.217-.039l.108-.014v-.659l-.166.059a1.371,1.371,0,0,1-.206.055,1.133,1.133,0,0,1-.208.02c-.2,0-.271-.076-.271-.272v-2.722h.852v-.607h-.852v-1.519l-.7.249v1.27h-.583v.607h.583v2.8a.776.776,0,0,0,.226.613,1.118,1.118,0,0,0,.743.191,1.185,1.185,0,0,0,.255-.029" transform="translate(-268.226 -327.827)" fill="#102145"/>
      <path id="Path_432" data-name="Path 432" d="M339.939,403.672l-1,2.92-.987-2.92h-.758l1.4,3.954a2.713,2.713,0,0,1-.164.445,1.294,1.294,0,0,1-.2.3.552.552,0,0,1-.6.182l-.216-.034-.142-.02v.6l.091.025a1.292,1.292,0,0,0,.193.037,2.215,2.215,0,0,0,.258.012,1.567,1.567,0,0,0,.491-.07,1.011,1.011,0,0,0,.379-.226,1.409,1.409,0,0,0,.275-.377,3.785,3.785,0,0,0,.212-.509l1.507-4.327Z" transform="translate(-280.059 -335.274)" fill="#102145"/>
      <path id="Path_433" data-name="Path 433" d="M378.32,394.343a1.673,1.673,0,0,0-.263-.02,1,1,0,0,0-.813.306,1.3,1.3,0,0,0-.245.849v.428h-.643v.608H377v3.526h.7v-3.526h.792v-.608H377.7v-.481a.59.59,0,0,1,.1-.393.4.4,0,0,1,.306-.1,1.214,1.214,0,0,1,.209.016,1.2,1.2,0,0,1,.189.051l.167.06V394.4l-.1-.018-.245-.042" transform="translate(-312.587 -327.509)" fill="#102145"/>
      <path id="Path_434" data-name="Path 434" d="M395.047,403.9a1.508,1.508,0,0,0-.537-.488,1.932,1.932,0,0,0-1.643,0,1.507,1.507,0,0,0-.537.488,1.986,1.986,0,0,0-.283.685,3.827,3.827,0,0,0,0,1.569,1.987,1.987,0,0,0,.283.685,1.509,1.509,0,0,0,.537.488,1.934,1.934,0,0,0,1.644,0,1.51,1.51,0,0,0,.537-.488,1.992,1.992,0,0,0,.283-.685,3.835,3.835,0,0,0,0-1.569,1.993,1.993,0,0,0-.283-.685m-.333,1.47a2.2,2.2,0,0,1-.253,1.159.983.983,0,0,1-1.545,0,2.777,2.777,0,0,1,0-2.318.983.983,0,0,1,1.545,0,2.2,2.2,0,0,1,.253,1.159" transform="translate(-325.551 -334.907)" fill="#102145"/>
      <path id="Path_435" data-name="Path 435" d="M419.033,403.483a1.556,1.556,0,0,0-.266.262V403.3h-.7v4.134h.7v-2.321a1.141,1.141,0,0,1,.1-.469,1.39,1.39,0,0,1,.253-.388,1.272,1.272,0,0,1,.333-.259.7.7,0,0,1,.327-.09h.326v-.682h-.326a1.193,1.193,0,0,0-.745.254" transform="translate(-347.232 -334.906)" fill="#102145"/>
      <path id="Path_436" data-name="Path 436" d="M452.876,399.082l-1.4-4.318H450.39v5.643h.742v-4.375l1.421,4.375h.652l1.421-4.375v4.375h.742v-5.643h-1.082Z" transform="translate(-374.077 -327.876)" fill="#102145"/>
      <rect id="Rectangle_40" data-name="Rectangle 40" width="0.698" height="4.134" transform="translate(82.769 68.398)" fill="#102145"/>
      <rect id="Rectangle_41" data-name="Rectangle 41" width="0.698" height="0.907" transform="translate(82.769 66.888)" fill="#102145"/>
      <path id="Path_437" data-name="Path 437" d="M500.48,399.187h.7v-5.892l-.7.249Z" transform="translate(-415.68 -326.655)" fill="#102145"/>
      <rect id="Rectangle_42" data-name="Rectangle 42" width="0.698" height="4.134" transform="translate(86.833 68.398)" fill="#102145"/>
      <rect id="Rectangle_43" data-name="Rectangle 43" width="0.698" height="0.907" transform="translate(86.833 66.888)" fill="#102145"/>
      <path id="Path_438" data-name="Path 438" d="M522.616,394.705l-.7.249v1.27h-.583v.607h.583v2.8a.776.776,0,0,0,.226.613,1.118,1.118,0,0,0,.743.191,1.18,1.18,0,0,0,.255-.029c.073-.017.146-.029.217-.039l.108-.014v-.659l-.166.059a1.372,1.372,0,0,1-.206.055,1.134,1.134,0,0,1-.208.02c-.2,0-.271-.076-.271-.272v-2.722h.852v-.607h-.852Z" transform="translate(-433.001 -327.827)" fill="#102145"/>
      <path id="Path_439" data-name="Path 439" d="M539.68,406.929q-.011-.179-.011-.325v-2.032a1.32,1.32,0,0,0-.359-1.027,1.566,1.566,0,0,0-1.066-.316,1.639,1.639,0,0,0-1.552.947l-.056.1.5.3.065-.1a1.608,1.608,0,0,1,.46-.482,1,1,0,0,1,.563-.163.872.872,0,0,1,.607.158.679.679,0,0,1,.158.495v.169c-.359.08-.687.159-.978.233a3.639,3.639,0,0,0-.809.3,1.362,1.362,0,0,0-.521.465,1.325,1.325,0,0,0-.18.717,1.063,1.063,0,0,0,.349.845,1.249,1.249,0,0,0,.844.3,2.388,2.388,0,0,0,.43-.036,1.875,1.875,0,0,0,.372-.108,2.087,2.087,0,0,0,.346-.183c.054-.036.11-.074.168-.115l.047.367h.693l-.028-.148a2.877,2.877,0,0,1-.046-.362m-.708-1.655v1.063a2.149,2.149,0,0,1-.579.41.958.958,0,0,1-1.037.019.5.5,0,0,1-.152-.4.82.82,0,0,1,.055-.3.642.642,0,0,1,.234-.259,2.408,2.408,0,0,1,.581-.279,8.791,8.791,0,0,1,.9-.252" transform="translate(-445.601 -334.907)" fill="#102145"/>
      <path id="Path_440" data-name="Path 440" d="M564.013,403.483a1.558,1.558,0,0,0-.266.262V403.3h-.7v4.134h.7v-2.321a1.142,1.142,0,0,1,.1-.469,1.388,1.388,0,0,1,.254-.388,1.271,1.271,0,0,1,.334-.259.7.7,0,0,1,.326-.09h.326v-.682h-.326a1.193,1.193,0,0,0-.745.254" transform="translate(-467.647 -334.906)" fill="#102145"/>
      <path id="Path_441" data-name="Path 441" d="M578.469,406.592l-.987-2.92h-.758l1.4,3.954a2.727,2.727,0,0,1-.164.445,1.292,1.292,0,0,1-.2.3.552.552,0,0,1-.6.182l-.216-.034-.142-.02v.6l.091.025a1.3,1.3,0,0,0,.194.037,2.214,2.214,0,0,0,.258.012,1.567,1.567,0,0,0,.491-.07,1.007,1.007,0,0,0,.379-.226,1.408,1.408,0,0,0,.276-.377,3.777,3.777,0,0,0,.212-.509l1.507-4.327h-.742Z" transform="translate(-479.004 -335.274)" fill="#102145"/>
      <path id="Path_442" data-name="Path 442" d="M617.417,399.187h.742v-5.892l-.742.249Z" transform="translate(-512.802 -326.655)" fill="#102145"/>
      <path id="Path_443" data-name="Path 443" d="M632.725,403.23a1.49,1.49,0,0,0-.785.2,2.806,2.806,0,0,0-.42.319V403.3h-.7v4.134h.7v-2.93q.163-.144.3-.267a2.43,2.43,0,0,1,.277-.224,1.157,1.157,0,0,1,.259-.135.84.84,0,0,1,.283-.045.578.578,0,0,1,.517.2,1.213,1.213,0,0,1,.15.67v2.732h.7v-2.777a1.636,1.636,0,0,0-.3-1.05,1.187,1.187,0,0,0-.975-.382" transform="translate(-523.936 -334.907)" fill="#102145"/>
      <path id="Path_444" data-name="Path 444" d="M658.263,395.395a1.97,1.97,0,0,0-.375-.26,1.545,1.545,0,0,0-.718-.156,1.437,1.437,0,0,0-.678.164,1.572,1.572,0,0,0-.528.454,2.184,2.184,0,0,0-.333.673,2.842,2.842,0,0,0-.117.829,2.589,2.589,0,0,0,.425,1.6,1.5,1.5,0,0,0,1.26.568,1.9,1.9,0,0,0,.768-.149,1.343,1.343,0,0,0,.4-.269l.051.343h.546V393.3l-.7.249Zm-.389.418a1.919,1.919,0,0,1,.249.213,1.348,1.348,0,0,1,.141.167v1.836a2.119,2.119,0,0,1-.436.449.986.986,0,0,1-.605.177.871.871,0,0,1-.442-.107.935.935,0,0,1-.313-.3,1.437,1.437,0,0,1-.192-.468,2.669,2.669,0,0,1-.064-.6,2.89,2.89,0,0,1,.071-.666,1.58,1.58,0,0,1,.207-.5.965.965,0,0,1,.331-.315.944.944,0,0,1,.469-.111.754.754,0,0,1,.288.062,1.444,1.444,0,0,1,.3.165" transform="translate(-544.444 -326.655)" fill="#102145"/>
      <path id="Path_445" data-name="Path 445" d="M686.744,406.6c-.108.1-.207.189-.295.269a2.709,2.709,0,0,1-.278.221,1.151,1.151,0,0,1-.26.135.839.839,0,0,1-.283.045.577.577,0,0,1-.517-.2,1.208,1.208,0,0,1-.15-.67v-2.732h-.7v2.777a1.634,1.634,0,0,0,.3,1.05,1.187,1.187,0,0,0,.974.382,1.492,1.492,0,0,0,.786-.2,2.8,2.8,0,0,0,.42-.319v.442h.7v-4.134h-.7Z" transform="translate(-568.323 -335.274)" fill="#102145"/>
      <path id="Path_446" data-name="Path 446" d="M710.681,405.228a2.688,2.688,0,0,0-.579-.216c-.2-.049-.379-.1-.543-.158a1.366,1.366,0,0,1-.387-.194.307.307,0,0,1-.118-.267.481.481,0,0,1,.169-.419.791.791,0,0,1,.476-.137.9.9,0,0,1,.513.135,1.613,1.613,0,0,1,.395.4l.072.1.541-.376-.062-.1a1.632,1.632,0,0,0-.57-.562,1.735,1.735,0,0,0-.873-.2,1.862,1.862,0,0,0-.5.068,1.273,1.273,0,0,0-.435.216,1.1,1.1,0,0,0-.3.37,1.161,1.161,0,0,0-.115.531.918.918,0,0,0,.2.619,1.347,1.347,0,0,0,.465.342,2.954,2.954,0,0,0,.577.191,4.3,4.3,0,0,1,.537.156,1.163,1.163,0,0,1,.381.222.44.44,0,0,1,.128.345.524.524,0,0,1-.054.236.646.646,0,0,1-.153.2.72.72,0,0,1-.233.134,1.307,1.307,0,0,1-.63.021.992.992,0,0,1-.269-.093,1.083,1.083,0,0,1-.252-.181,1.913,1.913,0,0,1-.252-.3l-.071-.1-.531.374.068.1a1.808,1.808,0,0,0,.714.64,2.035,2.035,0,0,0,.891.2,1.846,1.846,0,0,0,.541-.08,1.534,1.534,0,0,0,.467-.232,1.175,1.175,0,0,0,.334-.384,1.216,1.216,0,0,0-.066-1.2,1.341,1.341,0,0,0-.465-.391" transform="translate(-588.201 -334.907)" fill="#102145"/>
      <path id="Path_447" data-name="Path 447" d="M730.872,394.705l-.7.249v1.27h-.583v.607h.583v2.8a.776.776,0,0,0,.226.613,1.118,1.118,0,0,0,.743.191,1.18,1.18,0,0,0,.255-.029q.11-.025.217-.039l.108-.014v-.659l-.166.059a1.374,1.374,0,0,1-.206.055,1.133,1.133,0,0,1-.208.02c-.2,0-.271-.076-.271-.272v-2.722h.852v-.607h-.852Z" transform="translate(-605.971 -327.827)" fill="#102145"/>
      <path id="Path_448" data-name="Path 448" d="M748.018,403.483a1.555,1.555,0,0,0-.266.262V403.3h-.7v4.134h.7v-2.321a1.141,1.141,0,0,1,.1-.469,1.388,1.388,0,0,1,.253-.388,1.273,1.273,0,0,1,.333-.259.7.7,0,0,1,.327-.09h.326v-.682h-.326a1.193,1.193,0,0,0-.745.254" transform="translate(-620.474 -334.906)" fill="#102145"/>
      <rect id="Rectangle_44" data-name="Rectangle 44" width="0.698" height="4.134" transform="translate(129.464 68.398)" fill="#102145"/>
      <rect id="Rectangle_45" data-name="Rectangle 45" width="0.698" height="0.907" transform="translate(129.464 66.888)" fill="#102145"/>
      <path id="Path_449" data-name="Path 449" d="M776.935,406.178a4.043,4.043,0,0,1-.264.37,1.136,1.136,0,0,1-.228.215.738.738,0,0,1-.237.109,1.208,1.208,0,0,1-.3.034,1.025,1.025,0,0,1-.507-.118.991.991,0,0,1-.346-.319,1.481,1.481,0,0,1-.2-.483,2.538,2.538,0,0,1-.065-.474h2.7v-.125a3.526,3.526,0,0,0-.1-.852,1.991,1.991,0,0,0-.308-.685,1.479,1.479,0,0,0-.53-.456,1.753,1.753,0,0,0-1.468,0,1.551,1.551,0,0,0-.544.446,2.075,2.075,0,0,0-.338.679,2.987,2.987,0,0,0-.117.857,2.338,2.338,0,0,0,.48,1.6,1.674,1.674,0,0,0,1.3.538,2.242,2.242,0,0,0,.522-.056,1.449,1.449,0,0,0,.433-.18,1.628,1.628,0,0,0,.364-.315,3.168,3.168,0,0,0,.327-.459l.068-.112-.583-.31Zm-1.145-2.341a.821.821,0,0,1,.688.31,1.667,1.667,0,0,1,.293.756h-1.982a1.582,1.582,0,0,1,.055-.267h0a1.338,1.338,0,0,1,.188-.393,1.05,1.05,0,0,1,.314-.294.841.841,0,0,1,.445-.112" transform="translate(-642.923 -334.907)" fill="#102145"/>
      <path id="Path_450" data-name="Path 450" d="M800.523,405.619a1.345,1.345,0,0,0-.465-.391,2.708,2.708,0,0,0-.58-.216c-.2-.049-.379-.1-.543-.158a1.365,1.365,0,0,1-.387-.194.307.307,0,0,1-.118-.267.48.48,0,0,1,.169-.419.792.792,0,0,1,.476-.137.9.9,0,0,1,.513.136,1.611,1.611,0,0,1,.395.4l.071.1.541-.376-.062-.1a1.629,1.629,0,0,0-.57-.561,1.735,1.735,0,0,0-.873-.2,1.862,1.862,0,0,0-.5.068,1.271,1.271,0,0,0-.435.216,1.1,1.1,0,0,0-.3.37,1.16,1.16,0,0,0-.114.531.918.918,0,0,0,.2.619,1.343,1.343,0,0,0,.464.342,2.942,2.942,0,0,0,.578.191,4.275,4.275,0,0,1,.537.156,1.157,1.157,0,0,1,.381.222.44.44,0,0,1,.127.345.521.521,0,0,1-.054.236.641.641,0,0,1-.153.2.718.718,0,0,1-.233.134,1.3,1.3,0,0,1-.629.021.988.988,0,0,1-.269-.093,1.091,1.091,0,0,1-.252-.181,1.923,1.923,0,0,1-.252-.3l-.071-.1-.531.374.068.1a1.81,1.81,0,0,0,.714.64,2.036,2.036,0,0,0,.891.2,1.847,1.847,0,0,0,.541-.08,1.537,1.537,0,0,0,.467-.232,1.174,1.174,0,0,0,.334-.384,1.217,1.217,0,0,0-.066-1.2" transform="translate(-662.434 -334.907)" fill="#102145"/>
      <path id="Path_451" data-name="Path 451" d="M458.757,351.462h4.107a1.094,1.094,0,0,0,1.036-.589,1.809,1.809,0,0,0,1.6.589h1.722v-1.946c0-1.256-.593-1.892-1.761-1.892a1.888,1.888,0,0,0-1.946,2.078c0,.945-.312,1.073-.617,1.073h-2.6v-2.861l-.04-.015a4.822,4.822,0,0,0-1.574-.275,1.871,1.871,0,0,0-2.008,1.977c0,1.252.682,1.861,2.085,1.861m-.155-3.151a2.443,2.443,0,0,1,.872.157v2.306h-.617c-.941,0-1.343-.374-1.343-1.25a1.071,1.071,0,0,1,1.088-1.212m7.8,2.462h-.81c-.871,0-1.243-.342-1.243-1.142,0-.826.4-1.32,1.057-1.32.689,0,1,.407,1,1.32Z" transform="translate(-379.294 -288.722)" fill="#102145"/>
      <path id="Path_452" data-name="Path 452" d="M469.181,340.006a.476.476,0,0,0,0-.951.475.475,0,1,0,0,.951" transform="translate(-389.286 -281.606)" fill="#102145"/>
      <path id="Path_453" data-name="Path 453" d="M462.475,340.006a.475.475,0,1,0-.471-.479.465.465,0,0,0,.471.479" transform="translate(-383.723 -281.606)" fill="#102145"/>
      <path id="Path_454" data-name="Path 454" d="M539.067,341.074h-4.036a1.8,1.8,0,0,1-1.006-.313,2.138,2.138,0,0,0,.883-1.594c0-.609-.408-1.259-1.553-1.259a4.279,4.279,0,0,0-2.269.939l-.021.016-.071.571.049.016a4.281,4.281,0,0,1,1.621,1.13l.14.135a5.174,5.174,0,0,1-2,.358h-3.589v-4.88l-.835-.249v5.817h4.362a5.775,5.775,0,0,0,2.611-.56,2.49,2.49,0,0,0,1.574.56H539.9v-5.568l-.835-.249Zm-5.789-2.508c.5,0,.795.26.795.694a1.4,1.4,0,0,1-.606,1.062c-.1-.087-.19-.177-.286-.267a4.586,4.586,0,0,0-1.263-.948,2.8,2.8,0,0,1,1.36-.541" transform="translate(-437.193 -279.023)" fill="#102145"/>
      <path id="Path_455" data-name="Path 455" d="M615.108,336.194l-.835-.249v5.818h.835Z" transform="translate(-510.191 -279.022)" fill="#102145"/>
      <path id="Path_456" data-name="Path 456" d="M648.653,340.006a.472.472,0,0,0,.464-.479.463.463,0,0,0-.464-.472.475.475,0,1,0,0,.951" transform="translate(-538.348 -281.606)" fill="#102145"/>
      <path id="Path_457" data-name="Path 457" d="M641.947,340.006a.475.475,0,0,0,0-.951.475.475,0,0,0,0,.951" transform="translate(-532.784 -281.606)" fill="#102145"/>
      <path id="Path_458" data-name="Path 458" d="M681.056,335.777h-.479c-.358,0-.54-.1-.54-.285,0-.221.232-.254.37-.254a2.627,2.627,0,0,1,.319.025l.1.012.089-.551-.06-.011a2.728,2.728,0,0,0-.428-.032c-.77,0-1.043.445-1.043.827a.54.54,0,0,0,.083.284c-.106-.009-.226-.014-.345-.014h-.062v.565h1.993Z" transform="translate(-564.003 -277.972)" fill="#102145"/>
      <path id="Path_459" data-name="Path 459" d="M664.438,341.762v-5.568l-.835-.249v5.129h-4.182v-.092c0-2.224-.97-3.305-2.966-3.305a6.594,6.594,0,0,0-1.833.288l-.051.016.1.644.07-.023a5.58,5.58,0,0,1,1.617-.267c1.58,0,2.254.792,2.254,2.648v.092h-.895V340.8c0-1.07-.515-1.684-1.414-1.684a1.326,1.326,0,0,0-1.452,1.344,1.02,1.02,0,0,0,.207.622c-.039,0-.083,0-.13,0h-4.253v-3.065h-.835v3.065h-4.832v-3.065h-.835v3.065h-4.406v-2.861l-.04-.015a4.826,4.826,0,0,0-1.574-.275,1.871,1.871,0,0,0-2.008,1.977c0,1.252.682,1.861,2.085,1.861Zm-26.364-3.15a2.441,2.441,0,0,1,.872.157v2.306h-.617c-.941,0-1.343-.374-1.343-1.25a1.071,1.071,0,0,1,1.089-1.212m18.181,1.112c.624,0,.718.687.718,1.1v.27H656.4a.712.712,0,0,1-.8-.71.61.61,0,0,1,.656-.656" transform="translate(-528.356 -279.022)" fill="#102145"/>
      <path id="Path_460" data-name="Path 460" d="M716.914,374.391a.463.463,0,0,0-.464-.472.475.475,0,1,0,0,.951.467.467,0,0,0,.464-.479" transform="translate(-594.658 -310.563)" fill="#102145"/>
      <path id="Path_461" data-name="Path 461" d="M709.271,374.391a.465.465,0,0,0,.471.479.476.476,0,0,0,.472-.479.467.467,0,0,0-.472-.472.472.472,0,0,0-.471.472" transform="translate(-589.093 -310.563)" fill="#102145"/>
      <path id="Path_462" data-name="Path 462" d="M811.06,335.945v5.818h.835v-5.568Z" transform="translate(-673.634 -279.023)" fill="#102145"/>
      <path id="Path_463" data-name="Path 463" d="M5.937,339.989a.475.475,0,0,0,0-.951.475.475,0,0,0,0,.951" transform="translate(-4.539 -281.592)" fill="#102145"/>
      <path id="Path_464" data-name="Path 464" d="M12.643,339.989a.472.472,0,0,0,.464-.479.463.463,0,0,0-.464-.472.475.475,0,1,0,0,.951" transform="translate(-10.102 -281.592)" fill="#102145"/>
      <path id="Path_465" data-name="Path 465" d="M7.645,347.691H6.81v3.066H3.755V347.9l-.04-.015a4.828,4.828,0,0,0-1.575-.275,1.871,1.871,0,0,0-2.008,1.977c0,1.253.682,1.862,2.085,1.862H7.645Zm-5.582.6a2.443,2.443,0,0,1,.872.157v2.306H2.318c-.942,0-1.343-.374-1.343-1.25a1.071,1.071,0,0,1,1.088-1.212" transform="translate(-0.11 -288.708)" fill="#102145"/>
      <path id="Path_466" data-name="Path 466" d="M36.083,373.9a.475.475,0,1,0,0,.951.475.475,0,0,0,0-.951" transform="translate(-29.571 -310.548)" fill="#102145"/>
      <path id="Path_467" data-name="Path 467" d="M29.376,373.9a.472.472,0,0,0-.471.472.465.465,0,0,0,.471.479.476.476,0,0,0,.472-.479.467.467,0,0,0-.472-.472" transform="translate(-24.007 -310.548)" fill="#102145"/>
      <path id="Path_468" data-name="Path 468" d="M70.28,341.056H67.131a1.8,1.8,0,0,1-1.006-.313,2.138,2.138,0,0,0,.883-1.594c0-.609-.408-1.259-1.553-1.259a4.279,4.279,0,0,0-2.269.939l-.021.016-.072.571.049.016a4.282,4.282,0,0,1,1.621,1.13l.14.135a5.175,5.175,0,0,1-2,.358H60.2c.023-.3.049-.707.049-1.073a8.838,8.838,0,0,0-.272-2.209l-.015-.055-.818.145.017.065a8.468,8.468,0,0,1,.253,2.116c0,.254-.019.673-.055,1.011h-.3c-.76,0-.957-.2-.957-.988v-1.923h-.812V340.1c0,.709-.2,1.011-.656,1.011s-.664-.293-.664-1.011v-1.645h-.835v1.584c0,.852-.269,1.019-.733,1.019H51.82A2.968,2.968,0,0,0,50,338.113l2.028-1.245V336l-3.051,1.916v.607l.045.013a2.364,2.364,0,0,1,1.977,2.519H47.012v-3.065h-.835v3.792c0,1.108-.488,1.258-.965,1.258a2.139,2.139,0,0,1-.751-.127l-.072-.027-.1.718.054.014a3.264,3.264,0,0,0,.819.111c1.24,0,1.847-.649,1.854-1.985h7.38a1.057,1.057,0,0,0,1.038-.515,1.12,1.12,0,0,0,1.093.577,1.181,1.181,0,0,0,1.09-.589c.2.363.607.527,1.3.527h3.936a5.774,5.774,0,0,0,2.611-.56,2.49,2.49,0,0,0,1.574.56h4.084v-5.568l-.835-.249Zm-4.9-2.508c.5,0,.795.26.795.694a1.394,1.394,0,0,1-.606,1.062c-.1-.087-.19-.177-.286-.267a4.585,4.585,0,0,0-1.263-.948,2.793,2.793,0,0,1,1.36-.541" transform="translate(-36.782 -279.008)" fill="#102145"/>
      <path id="Path_469" data-name="Path 469" d="M210.544,341.745h.835v-5.568l-.835-.249Z" transform="translate(-174.87 -279.008)" fill="#102145"/>
      <path id="Path_470" data-name="Path 470" d="M237.114,350.923h-1.25c-1.678,0-2.015-.653-2.015-1.706a3.247,3.247,0,0,1,.287-1.3l.053-.109-.909.158-.014.03a3.488,3.488,0,0,0-.261,1.308c0,1.576.881,2.309,2.772,2.309h2.171v-3.754h-.835Z" transform="translate(-193.526 -288.874)" fill="#102145"/>
      <path id="Path_471" data-name="Path 471" d="M249.892,339.989a.472.472,0,0,0,.464-.479.463.463,0,0,0-.464-.472.475.475,0,1,0,0,.951" transform="translate(-207.153 -281.592)" fill="#102145"/>
      <path id="Path_472" data-name="Path 472" d="M242.714,339.51a.465.465,0,0,0,.471.479.475.475,0,0,0,0-.951.466.466,0,0,0-.471.472" transform="translate(-201.589 -281.592)" fill="#102145"/>
      <path id="Path_473" data-name="Path 473" d="M274.449,339.721a1.042,1.042,0,0,1,1.088-1.135,2.529,2.529,0,0,1,.894.18l.069.03.16-.7-.052-.019a3.281,3.281,0,0,0-1.025-.174,1.789,1.789,0,0,0-1.97,1.846,1.573,1.573,0,0,0,.652,1.3h-3.7v-4.88l-.835-.249v5.818h7.405v-.688h-.7c-1.266,0-1.992-.487-1.992-1.335" transform="translate(-224.028 -279.008)" fill="#102145"/>
      <path id="Path_474" data-name="Path 474" d="M344.934,339.231a.483.483,0,1,0-.479-.479.484.484,0,0,0,.479.479" transform="translate(-286.091 -280.95)" fill="#102145"/>
      <path id="Path_475" data-name="Path 475" d="M338.977,341.057h-3.465v-4.88l-.835-.249v5.129h-2.541c.027-.384.042-.79.042-1.181,0-1.27-.557-1.97-1.568-1.97a2.3,2.3,0,0,0-2.008,1.419c.025-.3.039-.638.039-.97v-.363h-.835v3.065h-3.457v-3.065h-.835v3.065H320v-4.88l-.835-.249v5.818h20.645v-5.568l-.835-.249Zm-8.491-2.454c.569,0,.833.429.833,1.351,0,.363-.015.753-.042,1.1h-2.637c.157-1.218.88-2.454,1.845-2.454" transform="translate(-265.088 -279.009)" fill="#102145"/>
      <rect id="Rectangle_46" data-name="Rectangle 46" width="138.26" height="0.661" transform="translate(0.023 77.021)" fill="#102145"/>
      <path id="Path_476" data-name="Path 476" d="M369.786,90.492l-9.217,5.123c0-2.363.007-8.279.015-8.269.735.977,2.224,3.551,2.249,3.56a9.811,9.811,0,0,0-.885-3.56,22.661,22.661,0,0,1,3.48,2.062,9.822,9.822,0,0,0-3.516-3.661,11.4,11.4,0,0,1,3.482-.311,8.708,8.708,0,0,0-3.635-.783,6.1,6.1,0,0,1,1.629-1.042,4.645,4.645,0,0,0-2.81.571c-.214-.525-.6-1.593-.6-1.593s-.386,1.068-.6,1.593a4.645,4.645,0,0,0-2.81-.571,6.1,6.1,0,0,1,1.628,1.042,8.709,8.709,0,0,0-3.635.783,11.4,11.4,0,0,1,3.482.311,9.82,9.82,0,0,0-3.516,3.661,22.659,22.659,0,0,1,3.48-2.062,9.812,9.812,0,0,0-.885,3.56c.025-.009,1.514-2.583,2.249-3.56.007-.009.015,5.906.014,8.269l-9.217-5.123a93.323,93.323,0,0,0,8.569,6.142l-5.413,3.009a7.481,7.481,0,0,0,.827.363,2.388,2.388,0,0,0,2.033-.161l3.793-2.419,3.793,2.419a2.388,2.388,0,0,0,2.033.161,7.485,7.485,0,0,0,.827-.363l-5.413-3.009a93.319,93.319,0,0,0,8.569-6.142" transform="translate(-290.835 -68.595)" fill="#102145"/>
    </g>
  </g>
</svg>
