<svg xmlns="http://www.w3.org/2000/svg" width="365.502" height="266.599" viewBox="0 0 365.502 266.599">
  <g id="logoSideBar" transform="translate(0 0)" opacity="0.3">
    <path id="Path_1" data-name="Path 1" d="M362.875,0,359.94,7.15V257.3l2.935,6.3Z" transform="translate(-181.621 0)" fill="#00836f"/>
    <path id="Path_2" data-name="Path 2" d="M354.124,21.316V265.053l-2.935-6.3V28.465Z" transform="translate(-177.206 -10.756)" fill="#00836f"/>
    <path id="Path_3" data-name="Path 3" d="M345.373,42.641V266.5l-2.935-6.3V49.791Z" transform="translate(-172.79 -21.516)" fill="#00836f"/>
    <path id="Path_4" data-name="Path 4" d="M336.613,63.976V267.953l-2.935-6.3V71.13Z" transform="translate(-168.37 -32.282)" fill="#00836f"/>
    <path id="Path_5" data-name="Path 5" d="M327.862,85.3V269.41l-2.935-6.3V92.451Z" transform="translate(-163.954 -43.042)" fill="#00836f"/>
    <path id="Path_6" data-name="Path 6" d="M319.111,106.618v164.24l-2.935-6.3V113.771Z" transform="translate(-159.538 -53.798)" fill="#00836f"/>
    <path id="Path_7" data-name="Path 7" d="M310.35,127.961V272.31l-2.935-6.3V135.115Z" transform="translate(-155.118 -64.568)" fill="#00836f"/>
    <path id="Path_8" data-name="Path 8" d="M301.6,149.286V273.762l-2.935-6.3V156.436Z" transform="translate(-150.702 -75.328)" fill="#00836f"/>
    <path id="Path_9" data-name="Path 9" d="M292.848,170.6V275.215l-2.935-6.3V177.752Z" transform="translate(-146.286 -86.084)" fill="#00836f"/>
    <path id="Path_10" data-name="Path 10" d="M284.087,191.946v84.721l-2.935-6.3V199.1Z" transform="translate(-141.866 -96.854)" fill="#00836f"/>
    <path id="Path_11" data-name="Path 11" d="M275.336,213.263v64.852l-2.935-6.3v-51.4Z" transform="translate(-137.45 -107.61)" fill="#00836f"/>
    <path id="Path_12" data-name="Path 12" d="M266.585,234.588v44.983l-.072-.157-2.864-6.144V241.737l2.864-6.974Z" transform="translate(-133.034 -118.37)" fill="#00836f"/>
    <path id="Path_13" data-name="Path 13" d="M266.44,234.941v44.651l-2.864-6.144-.072-.157v-31.2l.072-.175Z" transform="translate(-132.961 -118.549)" fill="#00836f"/>
    <path id="Path_14" data-name="Path 14" d="M257.689,256.258v24.787l-2.935-6.3V263.411Z" transform="translate(-128.546 -129.305)" fill="#00836f"/>
    <path id="Path_15" data-name="Path 15" d="M493.52,282.855l-15.457,10.7,2.109-4.51,8.945-6.194Z" transform="translate(-241.225 -142.725)" fill="#00836f"/>
    <path id="Path_16" data-name="Path 16" d="M501.832,282.846,462.337,310.2l2.114-4.52,32.969-22.835Z" transform="translate(-233.29 -142.721)" fill="#00836f"/>
    <path id="Path_17" data-name="Path 17" d="M510.121,282.846l-63.474,43.96,2.109-4.511,56.967-39.45Z" transform="translate(-225.372 -142.721)" fill="#00836f"/>
    <path id="Path_18" data-name="Path 18" d="M518.409,282.846l-87.454,60.562,2.114-4.511,80.938-56.051Z" transform="translate(-217.455 -142.721)" fill="#00836f"/>
    <path id="Path_19" data-name="Path 19" d="M526.7,282.837,415.256,360.018l2.114-4.51L522.3,282.837Z" transform="translate(-209.533 -142.716)" fill="#00836f"/>
    <path id="Path_20" data-name="Path 20" d="M535.018,282.837l-135.5,93.836,2.114-4.515,128.973-89.321Z" transform="translate(-201.593 -142.716)" fill="#00836f"/>
    <path id="Path_21" data-name="Path 21" d="M543.3,282.828,383.839,393.27l2.114-4.52L538.9,282.828Z" transform="translate(-193.68 -142.712)" fill="#00836f"/>
    <path id="Path_22" data-name="Path 22" d="M547.5,282.828,370.513,405.4l-1.831,3.914L551.534,282.828Z" transform="translate(-186.032 -142.712)" fill="#00836f"/>
    <path id="Path_23" data-name="Path 23" d="M378.079,16.5V251.862l-5.691,12.163V2.672Z" transform="translate(-187.902 -1.348)" fill="#4fb58f"/>
    <path id="Path_24" data-name="Path 24" d="M393.778,54.662V254.5l-5.691,12.163V40.829Z" transform="translate(-195.824 -20.602)" fill="#4fb58f"/>
    <path id="Path_25" data-name="Path 25" d="M409.473,92.806V257.14l-5.686,12.154V78.987Z" transform="translate(-203.746 -39.856)" fill="#4fb58f"/>
    <path id="Path_26" data-name="Path 26" d="M425.173,130.963V259.774l-5.686,12.149V117.145Z" transform="translate(-211.668 -59.11)" fill="#4fb58f"/>
    <path id="Path_27" data-name="Path 27" d="M440.873,169.121v93.289l-5.686,12.149V155.3Z" transform="translate(-219.59 -78.364)" fill="#4fb58f"/>
    <path id="Path_28" data-name="Path 28" d="M456.572,207.278v57.766l-5.686,12.149V193.459Z" transform="translate(-227.511 -97.617)" fill="#4fb58f"/>
    <path id="Path_29" data-name="Path 29" d="M472.267,245.421v22.238l-5.691,12.163V231.589Z" transform="translate(-235.429 -116.857)" fill="#4fb58f"/>
    <path id="Path_30" data-name="Path 30" d="M485.059,276.51l-2.783,5.946v-12.71Z" transform="translate(-243.35 -136.111)" fill="#4fb58f"/>
    <path id="Path_31" data-name="Path 31" d="M246.992,288.206l-7.639-5.287h2.9l3.357,2.325Z" transform="translate(-120.775 -142.757)" fill="#00836f"/>
    <path id="Path_32" data-name="Path 32" d="M242.062,297.483l-21.036-14.564h2.9l16.758,11.6Z" transform="translate(-111.527 -142.758)" fill="#00836f"/>
    <path id="Path_33" data-name="Path 33" d="M237.034,306.948l-34.715-24.029h2.9l30.438,21.067Z" transform="translate(-102.088 -142.757)" fill="#00836f"/>
    <path id="Path_34" data-name="Path 34" d="M232.081,316.274l-48.188-33.355h2.9L230.7,313.312Z" transform="translate(-92.79 -142.757)" fill="#00836f"/>
    <path id="Path_35" data-name="Path 35" d="M227.142,325.573l-61.621-42.654h2.9l57.344,39.692Z" transform="translate(-83.52 -142.757)" fill="#00836f"/>
    <path id="Path_36" data-name="Path 36" d="M222.2,334.881l-75.067-51.963h2.9l70.785,49Z" transform="translate(-74.24 -142.757)" fill="#00836f"/>
    <path id="Path_37" data-name="Path 37" d="M217.253,344.19,128.74,282.919h2.895l84.241,58.309Z" transform="translate(-64.961 -142.758)" fill="#00836f"/>
    <path id="Path_38" data-name="Path 38" d="M212.305,353.5,110.332,282.919h2.9l97.7,67.621Z" transform="translate(-55.672 -142.758)" fill="#00836f"/>
    <path id="Path_39" data-name="Path 39" d="M207.356,362.815l-115.424-79.9h2.9l111.142,76.93Z" transform="translate(-46.388 -142.758)" fill="#00836f"/>
    <path id="Path_40" data-name="Path 40" d="M202.426,372.1,73.588,282.918h2.895l124.566,86.225Z" transform="translate(-37.131 -142.757)" fill="#00836f"/>
    <path id="Path_41" data-name="Path 41" d="M197.473,381.418l-142.3-98.5h2.9L196.1,378.46Z" transform="translate(-27.839 -142.757)" fill="#00836f"/>
    <path id="Path_42" data-name="Path 42" d="M192.529,390.731,36.771,282.919h2.895L191.151,387.773Z" transform="translate(-18.554 -142.758)" fill="#00836f"/>
    <path id="Path_43" data-name="Path 43" d="M187.585,400.039l-169.2-117.12h2.9L186.207,397.077Z" transform="translate(-9.275 -142.758)" fill="#00836f"/>
    <path id="Path_44" data-name="Path 44" d="M0,282.919,182.645,409.343l-1.378-2.958L2.895,282.919Z" transform="translate(0 -142.758)" fill="#00836f"/>
  </g>
</svg>
