<svg id="menuLogo" xmlns="http://www.w3.org/2000/svg" xmlns:xlink="http://www.w3.org/1999/xlink" width="220" height="123.587" viewBox="0 0 220 123.587">
  <defs>
    <clipPath id="clip-path">
      <rect id="Rectangle_47" data-name="Rectangle 47" width="220" height="123.587" fill="none"/>
    </clipPath>
  </defs>
  <path id="Path_398" data-name="Path 398" d="M447.582,8.5l-2.7,14.1L461.313,0Z" transform="translate(-324.959 0)" fill="#49bb95"/>
  <path id="Path_399" data-name="Path 399" d="M444.886,22.609l12.582-6.923L461.313,0Z" transform="translate(-324.959 0)" fill="#10484c"/>
  <path id="Path_400" data-name="Path 400" d="M457.468,58.193l-12.582,6.923h23.773Z" transform="translate(-324.959 -42.506)" fill="#0e8674"/>
  <path id="Path_401" data-name="Path 401" d="M417.634,0l7.346,22.609,2.7-14.1Z" transform="translate(-305.053 0)" fill="#0e8674"/>
  <path id="Path_402" data-name="Path 402" d="M385.394,208.117l6.11,14.951V195.121Z" transform="translate(-281.504 -142.523)" fill="#49bb95"/>
  <path id="Path_403" data-name="Path 403" d="M408.06,223.068l6.11-14.951-6.11-13Z" transform="translate(-298.06 -142.523)" fill="#10484c"/>
  <path id="Path_404" data-name="Path 404" d="M408.06,195.121l6.11,13,13.123.978Z" transform="translate(-298.06 -142.522)" fill="#0e8674"/>
  <path id="Path_405" data-name="Path 405" d="M336.714,209.094l13.123-.978,6.11-13Z" transform="translate(-245.946 -142.522)" fill="#0e8674"/>
  <path id="Path_406" data-name="Path 406" d="M262.206,145.906l-12.331,10.431,26.579-8.636Z" transform="translate(-182.516 -106.574)" fill="#49bb95"/>
  <path id="Path_407" data-name="Path 407" d="M249.875,161.2l16.108,1.191,10.471-9.827Z" transform="translate(-182.517 -111.438)" fill="#10484c"/>
  <path id="Path_408" data-name="Path 408" d="M309.628,162.391l3.125,12.783,7.346-22.61Z" transform="translate(-226.162 -111.437)" fill="#0e8674"/>
  <path id="Path_409" data-name="Path 409" d="M277.127,100.728l4.985,12.178,14.248,1.8Z" transform="translate(-202.423 -73.575)" fill="#0e8674"/>
  <path id="Path_410" data-name="Path 410" d="M310.3,0l3.845,15.687,12.582,6.923Z" transform="translate(-226.651 0)" fill="#49bb95"/>
  <path id="Path_411" data-name="Path 411" d="M310.3,0l16.426,22.609-2.7-14.1Z" transform="translate(-226.651 0)" fill="#10484c"/>
  <path id="Path_412" data-name="Path 412" d="M361.233,8.5l2.7,14.1L371.275,0Z" transform="translate(-263.856 0)" fill="#0e8674"/>
  <path id="Path_413" data-name="Path 413" d="M283.045,65.115h23.773l-12.582-6.922Z" transform="translate(-206.745 -42.506)" fill="#0e8674"/>
  <path id="Path_414" data-name="Path 414" d="M481.894,145.906,467.646,147.7l26.579,8.636Z" transform="translate(-341.583 -106.574)" fill="#49bb95"/>
  <path id="Path_415" data-name="Path 415" d="M467.646,152.564l10.472,9.827,16.107-1.191Z" transform="translate(-341.583 -111.437)" fill="#10484c"/>
  <path id="Path_416" data-name="Path 416" d="M474.992,175.173l3.125-12.783-10.472-9.827Z" transform="translate(-341.583 -111.437)" fill="#0e8674"/>
  <path id="Path_417" data-name="Path 417" d="M486.879,100.728,467.646,114.7l14.248-1.8Z" transform="translate(-341.584 -73.575)" fill="#0e8674"/>
  <g id="Group_11" data-name="Group 11">
    <g id="Group_10" data-name="Group 10" clip-path="url(#clip-path)">
      <path id="Path_418" data-name="Path 418" d="M5.646,402.866v.558H6.72v-4.414H3.376v1.038H5.539v.586a2.043,2.043,0,0,1-.13.732,1.849,1.849,0,0,1-.364.6,1.643,1.643,0,0,1-.568.4,1.885,1.885,0,0,1-.748.144,2.375,2.375,0,0,1-1.257-.3,2.245,2.245,0,0,1-.771-.793,3.479,3.479,0,0,1-.4-1.148,7.72,7.72,0,0,1-.116-1.332,6.148,6.148,0,0,1,.172-1.514,3.7,3.7,0,0,1,.478-1.128,2.151,2.151,0,0,1,.718-.692,1.849,1.849,0,0,1,.93-.235,1.988,1.988,0,0,1,.767.139,1.849,1.849,0,0,1,.58.381,2.1,2.1,0,0,1,.412.576,3.412,3.412,0,0,1,.259.724l.043.182,1.12-.2-.039-.2a3.806,3.806,0,0,0-.37-1.059,3,3,0,0,0-.656-.84,2.954,2.954,0,0,0-.917-.548,3.353,3.353,0,0,0-2.533.114,3.276,3.276,0,0,0-1.126.9,4.411,4.411,0,0,0-.748,1.444,6.453,6.453,0,0,0-.27,1.95,6.883,6.883,0,0,0,.252,1.946,4.293,4.293,0,0,0,.718,1.444,3.15,3.15,0,0,0,1.116.907,3.221,3.221,0,0,0,1.4.31,3.8,3.8,0,0,0,1.5-.248,2.4,2.4,0,0,0,.656-.428" transform="translate(0 -288.03)" fill="#102145"/>
      <path id="Path_419" data-name="Path 419" d="M33.923,410.045a3.566,3.566,0,0,0,.831-.089,2.3,2.3,0,0,0,.688-.286,2.591,2.591,0,0,0,.579-.5,5.048,5.048,0,0,0,.52-.73l.108-.179-.927-.492-.1.153a6.5,6.5,0,0,1-.42.588,1.806,1.806,0,0,1-.363.343,1.173,1.173,0,0,1-.378.174,1.92,1.92,0,0,1-.479.053,1.631,1.631,0,0,1-.806-.188,1.575,1.575,0,0,1-.551-.508,2.358,2.358,0,0,1-.323-.768,4.029,4.029,0,0,1-.1-.755h4.3v-.2a5.607,5.607,0,0,0-.154-1.356,3.174,3.174,0,0,0-.489-1.09,2.358,2.358,0,0,0-.843-.725,2.79,2.79,0,0,0-2.336-.008,2.471,2.471,0,0,0-.866.71,3.3,3.3,0,0,0-.538,1.081,4.752,4.752,0,0,0-.187,1.364,3.719,3.719,0,0,0,.764,2.552,2.664,2.664,0,0,0,2.073.856M33.8,404.2a1.307,1.307,0,0,1,1.094.493,2.656,2.656,0,0,1,.466,1.2H32.207a2.516,2.516,0,0,1,.088-.424h0a2.125,2.125,0,0,1,.3-.625,1.672,1.672,0,0,1,.5-.467,1.333,1.333,0,0,1,.708-.179" transform="translate(-22.706 -294.532)" fill="#102145"/>
      <path id="Path_420" data-name="Path 420" d="M62.421,409.926v-4.418a2.6,2.6,0,0,0-.478-1.67,1.888,1.888,0,0,0-1.551-.608,2.371,2.371,0,0,0-1.25.314,4.466,4.466,0,0,0-.668.507v-.7h-1.11v6.577h1.11v-4.661q.259-.228.471-.425a3.836,3.836,0,0,1,.441-.356,1.844,1.844,0,0,1,.412-.215,1.342,1.342,0,0,1,.451-.071.919.919,0,0,1,.822.317,1.928,1.928,0,0,1,.24,1.066v4.346Z" transform="translate(-41.901 -294.532)" fill="#102145"/>
      <path id="Path_421" data-name="Path 421" d="M86.595,407.921a6.6,6.6,0,0,1-.42.588,1.817,1.817,0,0,1-.363.343,1.173,1.173,0,0,1-.378.174,1.92,1.92,0,0,1-.479.053,1.629,1.629,0,0,1-.806-.188,1.573,1.573,0,0,1-.551-.508,2.352,2.352,0,0,1-.323-.768,4.031,4.031,0,0,1-.1-.755h4.3v-.2a5.606,5.606,0,0,0-.154-1.356,3.159,3.159,0,0,0-.49-1.09,2.352,2.352,0,0,0-.843-.725,2.79,2.79,0,0,0-2.336-.008,2.473,2.473,0,0,0-.866.71,3.3,3.3,0,0,0-.538,1.081,4.753,4.753,0,0,0-.187,1.364,3.719,3.719,0,0,0,.764,2.552,2.665,2.665,0,0,0,2.073.856,3.566,3.566,0,0,0,.831-.089,2.3,2.3,0,0,0,.688-.286,2.6,2.6,0,0,0,.58-.5,5.048,5.048,0,0,0,.52-.73l.108-.179-.927-.492ZM84.773,404.2a1.307,1.307,0,0,1,1.094.493,2.653,2.653,0,0,1,.466,1.2H83.179a2.544,2.544,0,0,1,.088-.424h0a2.131,2.131,0,0,1,.3-.625,1.67,1.67,0,0,1,.5-.467,1.332,1.332,0,0,1,.708-.179" transform="translate(-59.938 -294.532)" fill="#102145"/>
      <path id="Path_422" data-name="Path 422" d="M109.7,403.633a2.475,2.475,0,0,0-.424.417v-.7h-1.109v6.577h1.109v-3.693a1.816,1.816,0,0,1,.156-.746,2.212,2.212,0,0,1,.4-.617,2.023,2.023,0,0,1,.53-.412,1.12,1.12,0,0,1,.52-.144h.519v-1.086h-.519a1.9,1.9,0,0,0-1.185.4" transform="translate(-79.005 -294.531)" fill="#102145"/>
      <path id="Path_423" data-name="Path 423" d="M127.808,409.116q-.017-.284-.017-.516v-3.233a2.1,2.1,0,0,0-.572-1.634,2.491,2.491,0,0,0-1.7-.5,2.607,2.607,0,0,0-2.468,1.507l-.09.166.8.482.1-.161a2.56,2.56,0,0,1,.732-.767,1.586,1.586,0,0,1,.9-.259,1.387,1.387,0,0,1,.965.251,1.08,1.08,0,0,1,.251.787v.269c-.57.127-1.093.252-1.556.371a5.79,5.79,0,0,0-1.287.475,2.17,2.17,0,0,0-.829.74,2.11,2.11,0,0,0-.286,1.14,1.69,1.69,0,0,0,.556,1.345,1.988,1.988,0,0,0,1.342.47,3.8,3.8,0,0,0,.683-.057,2.985,2.985,0,0,0,.592-.172,3.307,3.307,0,0,0,.551-.291c.086-.057.175-.118.267-.184l.074.584h1.1l-.045-.235a4.528,4.528,0,0,1-.074-.576m-1.127-2.633v1.69a3.42,3.42,0,0,1-.921.652,1.524,1.524,0,0,1-1.65.03.8.8,0,0,1-.242-.636,1.3,1.3,0,0,1,.087-.48,1.02,1.02,0,0,1,.371-.411,3.831,3.831,0,0,1,.925-.443,13.965,13.965,0,0,1,1.429-.4" transform="translate(-89.667 -294.532)" fill="#102145"/>
      <path id="Path_424" data-name="Path 424" d="M150.544,393.294l-1.11.4v8.978h1.11Z" transform="translate(-109.152 -287.274)" fill="#102145"/>
      <path id="Path_425" data-name="Path 425" d="M179.1,403.742h1.249l-2.835-8.978h-1.49l-2.872,8.978H174.4l.88-2.805h2.953Zm-1.171-3.843h-2.323l1.157-3.675Z" transform="translate(-126.474 -288.348)" fill="#102145"/>
      <path id="Path_426" data-name="Path 426" d="M209.027,408.335c-.172.159-.329.3-.469.427a4.3,4.3,0,0,1-.443.352,1.824,1.824,0,0,1-.413.215,1.335,1.335,0,0,1-.45.071.918.918,0,0,1-.823-.317,1.921,1.921,0,0,1-.239-1.066v-4.346h-1.109v4.418a2.6,2.6,0,0,0,.478,1.67,1.888,1.888,0,0,0,1.55.608,2.375,2.375,0,0,0,1.25-.314,4.456,4.456,0,0,0,.668-.507v.7h1.109v-6.577h-1.109Z" transform="translate(-149.798 -294.855)" fill="#102145"/>
      <path id="Path_427" data-name="Path 427" d="M232.019,403.687v-1.048l-.264.094a2.152,2.152,0,0,1-.328.087,1.8,1.8,0,0,1-.332.032c-.311,0-.432-.121-.432-.432v-4.33h1.355v-.967h-1.355v-2.417l-1.109.4v2.021h-.927v.967h.927v4.449a1.234,1.234,0,0,0,.359.975,1.779,1.779,0,0,0,1.182.3,1.854,1.854,0,0,0,.406-.046c.117-.026.232-.047.345-.062Z" transform="translate(-166.996 -288.305)" fill="#102145"/>
      <path id="Path_428" data-name="Path 428" d="M248.7,397.011a1.335,1.335,0,0,1,.451-.072.919.919,0,0,1,.822.317,1.928,1.928,0,0,1,.24,1.066v4.347h1.109v-4.418a2.6,2.6,0,0,0-.478-1.67,1.888,1.888,0,0,0-1.551-.608,2.372,2.372,0,0,0-1.25.314,4.484,4.484,0,0,0-.668.507v-3.5l-1.109.4v8.978h1.109v-4.661q.259-.228.471-.425a3.855,3.855,0,0,1,.441-.356,1.852,1.852,0,0,1,.412-.215" transform="translate(-179.881 -287.274)" fill="#102145"/>
      <path id="Path_429" data-name="Path 429" d="M275.008,409.752a2.4,2.4,0,0,0,.854-.777,3.167,3.167,0,0,0,.451-1.09,6.1,6.1,0,0,0,0-2.5,3.169,3.169,0,0,0-.451-1.09,2.4,2.4,0,0,0-.854-.777,3.071,3.071,0,0,0-2.615,0,2.4,2.4,0,0,0-.854.777,3.168,3.168,0,0,0-.451,1.09,6.1,6.1,0,0,0,0,2.5,3.168,3.168,0,0,0,.451,1.09,2.4,2.4,0,0,0,.854.777,3.075,3.075,0,0,0,2.615,0m-1.307-.675a1.331,1.331,0,0,1-1.229-.6,4.417,4.417,0,0,1,0-3.687,1.564,1.564,0,0,1,2.458,0,4.417,4.417,0,0,1,0,3.687,1.331,1.331,0,0,1-1.229.6" transform="translate(-197.917 -294.531)" fill="#102145"/>
      <path id="Path_430" data-name="Path 430" d="M300.3,404.315v-1.086h-.519a1.9,1.9,0,0,0-1.185.4,2.479,2.479,0,0,0-.424.417v-.7h-1.109v6.577h1.109v-3.693a1.816,1.816,0,0,1,.155-.746,2.2,2.2,0,0,1,.4-.617,2.029,2.029,0,0,1,.53-.412,1.118,1.118,0,0,1,.52-.144Z" transform="translate(-216.984 -294.531)" fill="#102145"/>
      <rect id="Rectangle_38" data-name="Rectangle 38" width="1.11" height="6.577" transform="translate(84.666 108.817)" fill="#102145"/>
      <rect id="Rectangle_39" data-name="Rectangle 39" width="1.11" height="1.442" transform="translate(84.666 106.416)" fill="#102145"/>
      <path id="Path_431" data-name="Path 431" d="M325.819,403.772h0c.117-.026.232-.047.345-.062l.172-.023v-1.048l-.264.094a2.175,2.175,0,0,1-.328.087,1.8,1.8,0,0,1-.332.032c-.31,0-.432-.121-.432-.432v-4.331h1.355v-.966h-1.355v-2.417l-1.11.4v2.021h-.927v.966h.927v4.45a1.234,1.234,0,0,0,.359.975,1.779,1.779,0,0,0,1.182.3,1.888,1.888,0,0,0,.406-.046" transform="translate(-235.889 -288.305)" fill="#102145"/>
      <path id="Path_432" data-name="Path 432" d="M341.562,403.672l-1.593,4.646-1.571-4.646h-1.206l2.224,6.291a4.318,4.318,0,0,1-.261.708,2.058,2.058,0,0,1-.314.482.878.878,0,0,1-.949.289c-.117-.02-.232-.038-.344-.054l-.226-.032v.962l.146.04a2.059,2.059,0,0,0,.308.059,3.525,3.525,0,0,0,.411.019,2.493,2.493,0,0,0,.782-.111,1.608,1.608,0,0,0,.6-.359,2.241,2.241,0,0,0,.438-.6,6.026,6.026,0,0,0,.338-.81l2.4-6.884Z" transform="translate(-246.296 -294.855)" fill="#102145"/>
      <path id="Path_433" data-name="Path 433" d="M379.48,394.355a2.664,2.664,0,0,0-.418-.032,1.6,1.6,0,0,0-1.294.487,2.075,2.075,0,0,0-.39,1.351v.682h-1.022v.967h1.022v5.611h1.109V397.81h1.26v-.967h-1.26v-.765a.939.939,0,0,1,.16-.625.637.637,0,0,1,.486-.164,1.933,1.933,0,0,1,.333.026,1.913,1.913,0,0,1,.3.081l.265.1V394.45l-.163-.029c-.136-.024-.266-.046-.39-.066" transform="translate(-274.902 -288.026)" fill="#102145"/>
      <path id="Path_434" data-name="Path 434" d="M396.869,404.3a2.4,2.4,0,0,0-.855-.777,3.073,3.073,0,0,0-2.615,0,2.4,2.4,0,0,0-.854.777,3.16,3.16,0,0,0-.451,1.09,6.087,6.087,0,0,0,0,2.5,3.161,3.161,0,0,0,.451,1.09,2.4,2.4,0,0,0,.854.777,3.077,3.077,0,0,0,2.615,0,2.4,2.4,0,0,0,.855-.777,3.169,3.169,0,0,0,.451-1.09,6.1,6.1,0,0,0,0-2.5,3.171,3.171,0,0,0-.451-1.09m-.529,2.338a3.5,3.5,0,0,1-.4,1.844,1.564,1.564,0,0,1-2.459,0,4.418,4.418,0,0,1,0-3.688,1.564,1.564,0,0,1,2.459,0,3.5,3.5,0,0,1,.4,1.844" transform="translate(-286.304 -294.532)" fill="#102145"/>
      <path id="Path_435" data-name="Path 435" d="M419.6,403.633a2.471,2.471,0,0,0-.424.417v-.7h-1.109v6.577h1.109v-3.693a1.815,1.815,0,0,1,.155-.746,2.213,2.213,0,0,1,.4-.617,2.023,2.023,0,0,1,.531-.412,1.12,1.12,0,0,1,.52-.144h.519v-1.086h-.519a1.9,1.9,0,0,0-1.185.4" transform="translate(-305.371 -294.531)" fill="#102145"/>
      <path id="Path_436" data-name="Path 436" d="M454.345,401.634l-2.234-6.87H450.39v8.978h1.181v-6.96l2.261,6.96h1.037l2.261-6.96v6.96h1.181v-8.978H456.59Z" transform="translate(-328.979 -288.348)" fill="#102145"/>
      <rect id="Rectangle_40" data-name="Rectangle 40" width="1.11" height="6.577" transform="translate(131.681 108.817)" fill="#102145"/>
      <rect id="Rectangle_41" data-name="Rectangle 41" width="1.11" height="1.442" transform="translate(131.681 106.416)" fill="#102145"/>
      <path id="Path_437" data-name="Path 437" d="M500.48,402.669h1.11v-9.375l-1.11.4Z" transform="translate(-365.567 -287.275)" fill="#102145"/>
      <rect id="Rectangle_42" data-name="Rectangle 42" width="1.11" height="6.577" transform="translate(138.147 108.817)" fill="#102145"/>
      <rect id="Rectangle_43" data-name="Rectangle 43" width="1.11" height="1.442" transform="translate(138.147 106.416)" fill="#102145"/>
      <path id="Path_438" data-name="Path 438" d="M523.373,394.705l-1.11.4v2.021h-.927v.966h.927v4.45a1.235,1.235,0,0,0,.359.975,1.779,1.779,0,0,0,1.183.3,1.877,1.877,0,0,0,.406-.046q.175-.04.345-.062l.172-.023v-1.048l-.264.094a2.175,2.175,0,0,1-.327.087,1.8,1.8,0,0,1-.332.032c-.311,0-.432-.121-.432-.432v-4.331h1.355v-.966h-1.355Z" transform="translate(-380.8 -288.305)" fill="#102145"/>
      <path id="Path_439" data-name="Path 439" d="M541.555,409.116q-.017-.284-.017-.516v-3.233a2.1,2.1,0,0,0-.571-1.634,2.491,2.491,0,0,0-1.7-.5,2.607,2.607,0,0,0-2.468,1.507l-.09.166.8.482.1-.161a2.558,2.558,0,0,1,.732-.767,1.585,1.585,0,0,1,.9-.259,1.387,1.387,0,0,1,.965.251,1.08,1.08,0,0,1,.251.787v.269c-.57.127-1.093.252-1.557.371a5.789,5.789,0,0,0-1.287.475,2.168,2.168,0,0,0-.829.74,2.108,2.108,0,0,0-.286,1.14,1.691,1.691,0,0,0,.555,1.345,1.988,1.988,0,0,0,1.342.47,3.8,3.8,0,0,0,.683-.057,2.985,2.985,0,0,0,.592-.172,3.317,3.317,0,0,0,.551-.291c.086-.057.175-.118.267-.184l.074.584h1.1l-.045-.235a4.571,4.571,0,0,1-.074-.576m-1.127-2.633v1.69a3.417,3.417,0,0,1-.921.652,1.525,1.525,0,0,1-1.65.03.8.8,0,0,1-.242-.636,1.3,1.3,0,0,1,.087-.48,1.022,1.022,0,0,1,.372-.411,3.831,3.831,0,0,1,.925-.443,13.982,13.982,0,0,1,1.429-.4" transform="translate(-391.881 -294.532)" fill="#102145"/>
      <path id="Path_440" data-name="Path 440" d="M564.582,403.633a2.475,2.475,0,0,0-.424.417v-.7h-1.109v6.577h1.109v-3.693a1.815,1.815,0,0,1,.156-.746,2.209,2.209,0,0,1,.4-.617,2.022,2.022,0,0,1,.531-.412,1.118,1.118,0,0,1,.519-.144h.519v-1.086h-.519a1.9,1.9,0,0,0-1.185.4" transform="translate(-411.269 -294.531)" fill="#102145"/>
      <path id="Path_441" data-name="Path 441" d="M579.5,408.318l-1.571-4.646h-1.206l2.224,6.291a4.341,4.341,0,0,1-.261.708,2.058,2.058,0,0,1-.314.482.878.878,0,0,1-.949.289c-.117-.02-.232-.038-.344-.054l-.226-.032v.962l.145.04a2.071,2.071,0,0,0,.308.059,3.524,3.524,0,0,0,.41.019,2.494,2.494,0,0,0,.782-.111,1.6,1.6,0,0,0,.6-.359,2.238,2.238,0,0,0,.438-.6,6.022,6.022,0,0,0,.338-.81l2.4-6.884h-1.181Z" transform="translate(-421.257 -294.855)" fill="#102145"/>
      <path id="Path_442" data-name="Path 442" d="M617.417,402.669H618.6v-9.375l-1.181.4Z" transform="translate(-450.981 -287.275)" fill="#102145"/>
      <path id="Path_443" data-name="Path 443" d="M633.849,403.23a2.372,2.372,0,0,0-1.25.314,4.468,4.468,0,0,0-.668.507v-.7h-1.109v6.577h1.109v-4.661q.259-.229.472-.425a3.872,3.872,0,0,1,.441-.356,1.837,1.837,0,0,1,.412-.215,1.335,1.335,0,0,1,.451-.072.92.92,0,0,1,.822.317,1.929,1.929,0,0,1,.239,1.066v4.346h1.11v-4.418a2.6,2.6,0,0,0-.478-1.67,1.889,1.889,0,0,0-1.551-.608" transform="translate(-460.772 -294.532)" fill="#102145"/>
      <path id="Path_444" data-name="Path 444" d="M659.888,396.635a3.14,3.14,0,0,0-.6-.414,2.458,2.458,0,0,0-1.143-.249,2.286,2.286,0,0,0-1.079.261,2.5,2.5,0,0,0-.839.722,3.469,3.469,0,0,0-.53,1.071,4.521,4.521,0,0,0-.187,1.318,4.119,4.119,0,0,0,.677,2.54,2.389,2.389,0,0,0,2.005.9,3.017,3.017,0,0,0,1.221-.236,2.137,2.137,0,0,0,.632-.429l.08.546H661V393.3l-1.109.4Zm-.62.666a3.051,3.051,0,0,1,.4.34,2.136,2.136,0,0,1,.224.266v2.92a3.371,3.371,0,0,1-.693.714,1.569,1.569,0,0,1-.963.282,1.387,1.387,0,0,1-.7-.17,1.488,1.488,0,0,1-.5-.478,2.287,2.287,0,0,1-.305-.744,4.241,4.241,0,0,1-.1-.954,4.6,4.6,0,0,1,.113-1.06,2.516,2.516,0,0,1,.33-.8,1.536,1.536,0,0,1,.526-.5,1.5,1.5,0,0,1,.747-.176,1.2,1.2,0,0,1,.459.1,2.3,2.3,0,0,1,.471.263" transform="translate(-478.808 -287.275)" fill="#102145"/>
      <path id="Path_445" data-name="Path 445" d="M688.21,408.335c-.172.159-.329.3-.469.427a4.3,4.3,0,0,1-.443.352,1.826,1.826,0,0,1-.413.215,1.335,1.335,0,0,1-.45.071.918.918,0,0,1-.823-.317,1.923,1.923,0,0,1-.239-1.066v-4.346h-1.109v4.418a2.6,2.6,0,0,0,.478,1.67,1.888,1.888,0,0,0,1.55.608,2.374,2.374,0,0,0,1.25-.314,4.454,4.454,0,0,0,.668-.507v.7h1.109v-6.577H688.21Z" transform="translate(-499.808 -294.855)" fill="#102145"/>
      <path id="Path_446" data-name="Path 446" d="M712.149,406.408a4.274,4.274,0,0,0-.922-.343c-.312-.078-.6-.163-.864-.251a2.171,2.171,0,0,1-.616-.309.488.488,0,0,1-.188-.424.765.765,0,0,1,.269-.666,1.259,1.259,0,0,1,.757-.218,1.431,1.431,0,0,1,.816.215,2.565,2.565,0,0,1,.628.63l.114.158.861-.6-.1-.16a2.6,2.6,0,0,0-.907-.894,2.761,2.761,0,0,0-1.388-.318,2.961,2.961,0,0,0-.8.109,2.026,2.026,0,0,0-.692.343,1.752,1.752,0,0,0-.482.589,1.847,1.847,0,0,0-.182.845,1.461,1.461,0,0,0,.316.985,2.141,2.141,0,0,0,.739.544,4.7,4.7,0,0,0,.918.3,6.84,6.84,0,0,1,.855.248,1.85,1.85,0,0,1,.607.353.7.7,0,0,1,.2.549.833.833,0,0,1-.086.375,1.029,1.029,0,0,1-.244.314,1.146,1.146,0,0,1-.371.212,2.08,2.08,0,0,1-1,.034,1.579,1.579,0,0,1-.428-.148,1.722,1.722,0,0,1-.4-.289,3.038,3.038,0,0,1-.4-.48l-.113-.164-.845.6.108.161a2.878,2.878,0,0,0,1.136,1.018,3.239,3.239,0,0,0,1.417.317,2.938,2.938,0,0,0,.86-.127,2.44,2.44,0,0,0,.744-.369,1.87,1.87,0,0,0,.532-.611,1.935,1.935,0,0,0-.1-1.907,2.133,2.133,0,0,0-.74-.622" transform="translate(-517.289 -294.532)" fill="#102145"/>
      <path id="Path_447" data-name="Path 447" d="M731.629,394.705l-1.11.4v2.021h-.927v.966h.927v4.45a1.234,1.234,0,0,0,.359.975,1.779,1.779,0,0,0,1.182.3,1.877,1.877,0,0,0,.406-.046q.175-.04.345-.062l.172-.023v-1.048l-.264.094a2.179,2.179,0,0,1-.327.087,1.8,1.8,0,0,1-.332.032c-.311,0-.432-.121-.432-.432v-4.331h1.355v-.966h-1.355Z" transform="translate(-532.917 -288.305)" fill="#102145"/>
      <path id="Path_448" data-name="Path 448" d="M748.587,403.633a2.471,2.471,0,0,0-.424.417v-.7h-1.109v6.577h1.109v-3.693a1.814,1.814,0,0,1,.156-.746,2.211,2.211,0,0,1,.4-.617,2.023,2.023,0,0,1,.53-.412,1.12,1.12,0,0,1,.52-.144h.519v-1.086h-.519a1.9,1.9,0,0,0-1.185.4" transform="translate(-545.672 -294.531)" fill="#102145"/>
      <rect id="Rectangle_44" data-name="Rectangle 44" width="1.11" height="6.577" transform="translate(205.97 108.817)" fill="#102145"/>
      <rect id="Rectangle_45" data-name="Rectangle 45" width="1.11" height="1.442" transform="translate(205.97 106.416)" fill="#102145"/>
      <path id="Path_449" data-name="Path 449" d="M778.62,407.921a6.416,6.416,0,0,1-.421.588,1.81,1.81,0,0,1-.363.343,1.173,1.173,0,0,1-.378.174,1.921,1.921,0,0,1-.479.053,1.631,1.631,0,0,1-.806-.188,1.576,1.576,0,0,1-.551-.508,2.358,2.358,0,0,1-.323-.768,4.036,4.036,0,0,1-.1-.755h4.3v-.2a5.609,5.609,0,0,0-.155-1.356,3.17,3.17,0,0,0-.49-1.09,2.354,2.354,0,0,0-.843-.725,2.79,2.79,0,0,0-2.336-.008,2.467,2.467,0,0,0-.866.71,3.3,3.3,0,0,0-.538,1.081,4.752,4.752,0,0,0-.187,1.364,3.719,3.719,0,0,0,.764,2.552,2.664,2.664,0,0,0,2.073.856,3.567,3.567,0,0,0,.831-.089,2.3,2.3,0,0,0,.688-.286,2.587,2.587,0,0,0,.579-.5,5.037,5.037,0,0,0,.52-.73l.108-.179-.927-.492ZM776.8,404.2a1.307,1.307,0,0,1,1.094.493,2.652,2.652,0,0,1,.466,1.2H775.2a2.512,2.512,0,0,1,.088-.424h0a2.127,2.127,0,0,1,.3-.625,1.672,1.672,0,0,1,.5-.467,1.337,1.337,0,0,1,.707-.179" transform="translate(-565.415 -294.532)" fill="#102145"/>
      <path id="Path_450" data-name="Path 450" d="M802.266,407.03a2.141,2.141,0,0,0-.739-.622,4.306,4.306,0,0,0-.923-.343c-.312-.078-.6-.163-.864-.251a2.17,2.17,0,0,1-.616-.309.488.488,0,0,1-.188-.425.764.764,0,0,1,.269-.666,1.26,1.26,0,0,1,.757-.218,1.433,1.433,0,0,1,.816.216,2.562,2.562,0,0,1,.628.629l.114.158.861-.6-.1-.16a2.592,2.592,0,0,0-.907-.893,2.759,2.759,0,0,0-1.389-.318,2.963,2.963,0,0,0-.8.109,2.022,2.022,0,0,0-.692.343,1.749,1.749,0,0,0-.482.589,1.846,1.846,0,0,0-.182.845,1.46,1.46,0,0,0,.316.985,2.14,2.14,0,0,0,.739.544,4.682,4.682,0,0,0,.919.3,6.8,6.8,0,0,1,.854.248,1.839,1.839,0,0,1,.607.353.7.7,0,0,1,.2.549.829.829,0,0,1-.086.375,1.019,1.019,0,0,1-.244.314,1.142,1.142,0,0,1-.371.212,2.075,2.075,0,0,1-1,.034,1.572,1.572,0,0,1-.428-.148,1.736,1.736,0,0,1-.4-.288,3.059,3.059,0,0,1-.4-.48l-.113-.164-.845.6.108.161a2.88,2.88,0,0,0,1.136,1.018,3.239,3.239,0,0,0,1.417.317,2.94,2.94,0,0,0,.86-.127,2.445,2.445,0,0,0,.743-.369,1.868,1.868,0,0,0,.532-.611,1.937,1.937,0,0,0-.1-1.907" transform="translate(-582.573 -294.532)" fill="#102145"/>
      <path id="Path_451" data-name="Path 451" d="M459.99,353.73h6.534a1.74,1.74,0,0,0,1.648-.937,2.879,2.879,0,0,0,2.541.937h2.74v-3.1c0-2-.943-3.011-2.8-3.011a3,3,0,0,0-3.1,3.306c0,1.5-.5,1.707-.982,1.707h-4.137v-4.551l-.064-.024a7.67,7.67,0,0,0-2.5-.437,2.977,2.977,0,0,0-3.2,3.146c0,1.993,1.085,2.961,3.318,2.961m-.246-5.012a3.888,3.888,0,0,1,1.388.249v3.668h-.982c-1.5,0-2.137-.595-2.137-1.989a1.7,1.7,0,0,1,1.731-1.928m12.405,3.917h-1.289c-1.386,0-1.977-.544-1.977-1.817,0-1.315.629-2.1,1.682-2.1,1.1,0,1.584.648,1.584,2.1Z" transform="translate(-333.568 -253.915)" fill="#102145"/>
      <path id="Path_452" data-name="Path 452" d="M469.464,340.568a.757.757,0,0,0,0-1.513.756.756,0,1,0,0,1.513" transform="translate(-342.355 -247.656)" fill="#102145"/>
      <path id="Path_453" data-name="Path 453" d="M462.754,340.568a.756.756,0,1,0-.75-.762.74.74,0,0,0,.75.762" transform="translate(-337.462 -247.656)" fill="#102145"/>
      <path id="Path_454" data-name="Path 454" d="M546.563,344.105h-6.422a2.855,2.855,0,0,1-1.6-.5,3.4,3.4,0,0,0,1.4-2.536c0-.969-.649-2-2.47-2a6.808,6.808,0,0,0-3.61,1.494l-.034.025-.114.909.078.025a6.811,6.811,0,0,1,2.58,1.8l.223.214a8.231,8.231,0,0,1-3.178.57h-5.71v-7.764l-1.328-.4V345.2h6.94a9.187,9.187,0,0,0,4.154-.892,3.961,3.961,0,0,0,2.5.892h7.909v-8.859l-1.328-.4Zm-9.21-3.991c.792,0,1.264.413,1.264,1.1a2.219,2.219,0,0,1-.965,1.689c-.152-.138-.3-.281-.455-.425a7.3,7.3,0,0,0-2.009-1.508,4.446,4.446,0,0,1,2.164-.861" transform="translate(-384.487 -245.385)" fill="#102145"/>
      <path id="Path_455" data-name="Path 455" d="M615.6,336.341l-1.328-.4V345.2H615.6Z" transform="translate(-448.684 -245.385)" fill="#102145"/>
      <path id="Path_456" data-name="Path 456" d="M648.937,340.568a.751.751,0,0,0,.738-.762.736.736,0,0,0-.738-.75.756.756,0,1,0,0,1.513" transform="translate(-473.447 -247.656)" fill="#102145"/>
      <path id="Path_457" data-name="Path 457" d="M642.225,340.568a.756.756,0,0,0,0-1.513.756.756,0,0,0,0,1.513" transform="translate(-468.554 -247.656)" fill="#102145"/>
      <path id="Path_458" data-name="Path 458" d="M682.234,336.425h-.763c-.57,0-.859-.153-.859-.454,0-.352.369-.4.589-.4a4.183,4.183,0,0,1,.507.04l.166.019.141-.877-.1-.017a4.339,4.339,0,0,0-.681-.051c-1.225,0-1.659.708-1.659,1.315a.859.859,0,0,0,.132.452c-.168-.014-.359-.022-.549-.022h-.1v.9h3.171Z" transform="translate(-496.009 -244.461)" fill="#102145"/>
      <path id="Path_459" data-name="Path 459" d="M681.16,345.2V336.34l-1.328-.4v8.16h-6.654v-.147c0-3.538-1.543-5.259-4.718-5.259a10.492,10.492,0,0,0-2.916.459l-.081.025.153,1.024.112-.037a8.878,8.878,0,0,1,2.573-.425c2.514,0,3.586,1.26,3.586,4.213v.147h-1.423v-.442c0-1.7-.82-2.679-2.249-2.679a2.11,2.11,0,0,0-2.31,2.138,1.622,1.622,0,0,0,.33.99c-.062,0-.133-.008-.206-.008H659.26v-4.877h-1.328V344.1h-7.687v-4.877h-1.329V344.1h-7.01v-4.551l-.064-.024a7.678,7.678,0,0,0-2.5-.437,2.976,2.976,0,0,0-3.195,3.146c0,1.993,1.085,2.961,3.318,2.961Zm-41.944-5.012a3.884,3.884,0,0,1,1.387.249V344.1h-.982c-1.5,0-2.137-.595-2.137-1.989a1.7,1.7,0,0,1,1.732-1.928m28.924,1.769c.993,0,1.142,1.092,1.142,1.744v.429h-.909A1.133,1.133,0,0,1,667.1,343a.97.97,0,0,1,1.044-1.043" transform="translate(-464.659 -245.384)" fill="#102145"/>
      <path id="Path_460" data-name="Path 460" d="M717.471,374.669a.736.736,0,0,0-.738-.75.756.756,0,1,0,0,1.512.742.742,0,0,0,.738-.762" transform="translate(-522.968 -273.122)" fill="#102145"/>
      <path id="Path_461" data-name="Path 461" d="M709.271,374.669a.74.74,0,0,0,.75.762.757.757,0,0,0,.751-.762.743.743,0,0,0-.751-.75.751.751,0,0,0-.75.75" transform="translate(-518.074 -273.122)" fill="#102145"/>
      <path id="Path_462" data-name="Path 462" d="M811.06,335.945V345.2h1.328v-8.859Z" transform="translate(-592.424 -245.385)" fill="#102145"/>
      <path id="Path_463" data-name="Path 463" d="M6.215,340.551a.756.756,0,0,0,0-1.513.756.756,0,0,0,0,1.513" transform="translate(-3.992 -247.644)" fill="#102145"/>
      <path id="Path_464" data-name="Path 464" d="M12.926,340.551a.751.751,0,0,0,.738-.762.736.736,0,0,0-.738-.75.756.756,0,1,0,0,1.513" transform="translate(-8.884 -247.644)" fill="#102145"/>
      <path id="Path_465" data-name="Path 465" d="M12.085,347.741H10.757v4.877H5.9v-4.551l-.063-.024a7.68,7.68,0,0,0-2.505-.437,2.976,2.976,0,0,0-3.195,3.146c0,1.993,1.085,2.962,3.318,2.962h8.635ZM3.2,348.7a3.887,3.887,0,0,1,1.387.249v3.668H3.61c-1.5,0-2.137-.595-2.137-1.989A1.7,1.7,0,0,1,3.2,348.7" transform="translate(-0.096 -253.902)" fill="#102145"/>
      <path id="Path_466" data-name="Path 466" d="M36.366,373.9a.756.756,0,1,0,0,1.512.756.756,0,0,0,0-1.512" transform="translate(-26.006 -273.11)" fill="#102145"/>
      <path id="Path_467" data-name="Path 467" d="M29.655,373.9a.751.751,0,0,0-.75.75.74.74,0,0,0,.75.762.757.757,0,0,0,.75-.762.742.742,0,0,0-.75-.75" transform="translate(-21.113 -273.11)" fill="#102145"/>
      <path id="Path_468" data-name="Path 468" d="M85.64,344.087H80.631a2.856,2.856,0,0,1-1.6-.5,3.4,3.4,0,0,0,1.4-2.536c0-.969-.649-2-2.47-2a6.808,6.808,0,0,0-3.61,1.494l-.033.025-.114.909.078.025a6.813,6.813,0,0,1,2.58,1.8l.223.215a8.234,8.234,0,0,1-3.178.57H69.6c.037-.476.078-1.125.078-1.707a14.061,14.061,0,0,0-.433-3.514l-.023-.088-1.3.231.027.1a13.472,13.472,0,0,1,.4,3.366c0,.4-.03,1.071-.088,1.608h-.477c-1.21,0-1.523-.323-1.523-1.572v-3.06H64.97v3.109c0,1.128-.312,1.608-1.044,1.608-.75,0-1.056-.466-1.056-1.608v-2.618H61.542v2.52c0,1.356-.428,1.621-1.166,1.621h-4.1c-.087-2.38-.987-3.835-2.9-4.683l3.226-1.981v-1.377L51.741,339.1v.965l.072.021a3.762,3.762,0,0,1,3.145,4.007H48.623v-4.877H47.3v6.033c0,1.763-.776,2-1.535,2a3.4,3.4,0,0,1-1.194-.2L44.451,347l-.165,1.142.085.022a5.193,5.193,0,0,0,1.3.176c1.973,0,2.938-1.033,2.949-3.158H60.364a1.681,1.681,0,0,0,1.652-.819,1.782,1.782,0,0,0,1.739.918,1.879,1.879,0,0,0,1.735-.937c.317.578.966.838,2.061.838h6.262a9.186,9.186,0,0,0,4.154-.892,3.961,3.961,0,0,0,2.5.892h6.5v-8.859l-1.328-.4Zm-7.8-3.991c.792,0,1.265.413,1.265,1.1a2.219,2.219,0,0,1-.965,1.689c-.152-.138-.3-.281-.454-.425a7.3,7.3,0,0,0-2.009-1.508,4.445,4.445,0,0,1,2.164-.861" transform="translate(-32.348 -245.372)" fill="#102145"/>
      <path id="Path_469" data-name="Path 469" d="M210.544,345.183h1.328v-8.859l-1.328-.4Z" transform="translate(-153.788 -245.372)" fill="#102145"/>
      <path id="Path_470" data-name="Path 470" d="M239.542,352.764h-1.989c-2.669,0-3.205-1.039-3.205-2.714a5.167,5.167,0,0,1,.457-2.07l.085-.174-1.446.251-.022.047a5.548,5.548,0,0,0-.415,2.081c0,2.507,1.4,3.674,4.411,3.674h3.453v-5.972h-1.328Z" transform="translate(-170.195 -254.049)" fill="#102145"/>
      <path id="Path_471" data-name="Path 471" d="M250.175,340.551a.751.751,0,0,0,.738-.762.736.736,0,0,0-.738-.75.756.756,0,1,0,0,1.513" transform="translate(-182.179 -247.644)" fill="#102145"/>
      <path id="Path_472" data-name="Path 472" d="M242.714,339.788a.74.74,0,0,0,.75.762.756.756,0,0,0,0-1.513.742.742,0,0,0-.75.75" transform="translate(-177.286 -247.644)" fill="#102145"/>
      <path id="Path_473" data-name="Path 473" d="M277.237,341.963a1.658,1.658,0,0,1,1.731-1.805,4.024,4.024,0,0,1,1.422.287l.109.048.255-1.111-.082-.03a5.221,5.221,0,0,0-1.631-.277,2.846,2.846,0,0,0-3.133,2.937,2.5,2.5,0,0,0,1.037,2.075H271.06v-7.764l-1.328-.4v9.255h11.781v-1.095h-1.106c-2.014,0-3.169-.774-3.169-2.124" transform="translate(-197.02 -245.372)" fill="#102145"/>
      <path id="Path_474" data-name="Path 474" d="M345.217,339.8a.768.768,0,1,0-.762-.762.77.77,0,0,0,.762.762" transform="translate(-251.601 -247.079)" fill="#102145"/>
      <path id="Path_475" data-name="Path 475" d="M350.684,344.088h-5.513v-7.764l-1.328-.4v8.16H339.8c.043-.61.066-1.258.066-1.879,0-2.021-.886-3.134-2.495-3.134a3.655,3.655,0,0,0-3.194,2.257c.04-.475.062-1.015.062-1.543v-.578h-1.328v4.877h-5.5v-4.877h-1.328v4.877H320.5v-7.764l-1.328-.4v9.255h32.845v-8.859l-1.328-.4Zm-13.509-3.9c.9,0,1.326.683,1.326,2.149,0,.578-.023,1.2-.066,1.756H334.24c.251-1.938,1.4-3.9,2.935-3.9" transform="translate(-233.13 -245.372)" fill="#102145"/>
      <rect id="Rectangle_46" data-name="Rectangle 46" width="219.964" height="1.051" transform="translate(0.036 122.536)" fill="#102145"/>
      <path id="Path_476" data-name="Path 476" d="M381.379,95.163l-14.665,8.151c0-3.759.012-13.171.023-13.156,1.169,1.554,3.538,5.649,3.578,5.664a15.61,15.61,0,0,0-1.408-5.664,36.052,36.052,0,0,1,5.537,3.28,15.627,15.627,0,0,0-5.594-5.825,18.131,18.131,0,0,1,5.539-.5,13.855,13.855,0,0,0-5.784-1.246,9.7,9.7,0,0,1,2.591-1.657,7.39,7.39,0,0,0-4.47.908c-.34-.835-.954-2.534-.954-2.534s-.613,1.7-.954,2.534a7.39,7.39,0,0,0-4.47-.908,9.7,9.7,0,0,1,2.591,1.657,13.856,13.856,0,0,0-5.784,1.246,18.134,18.134,0,0,1,5.54.5,15.624,15.624,0,0,0-5.594,5.825,36.047,36.047,0,0,1,5.537-3.28,15.61,15.61,0,0,0-1.408,5.664c.04-.015,2.409-4.11,3.578-5.664.011-.015.024,9.4.023,13.156l-14.664-8.151c3.716,3.4,13.633,9.771,13.633,9.771l-8.612,4.787a11.9,11.9,0,0,0,1.316.578,3.8,3.8,0,0,0,3.235-.257l6.035-3.849,6.035,3.849a3.8,3.8,0,0,0,3.234.257,11.91,11.91,0,0,0,1.316-.578l-8.612-4.787s9.917-6.369,13.633-9.771" transform="translate(-255.773 -60.326)" fill="#102145"/>
    </g>
  </g>
</svg>
