<svg xmlns="http://www.w3.org/2000/svg" width="26.055" height="26.127" viewBox="0 0 26.055 26.127">
  <g id="messageEmp" transform="translate(-1 -1)">
    <path id="Path_9305" data-name="Path 9305" d="M9.818,22.447h-.6C4.405,22.447,2,21.244,2,15.23V9.216Q2,2,9.216,2h9.622q7.216,0,7.216,7.216V15.23q0,7.216-7.216,7.216h-.6a1.219,1.219,0,0,0-.962.481l-1.8,2.405a1.709,1.709,0,0,1-2.887,0l-1.8-2.405A1.359,1.359,0,0,0,9.818,22.447Z" transform="translate(0 0)" fill="none" stroke="#004a4d" stroke-linecap="round" stroke-linejoin="round" stroke-miterlimit="10" stroke-width="2"/>
    <path id="Path_9306" data-name="Path 9306" d="M16,11h.011" transform="translate(2.838 1.825)" fill="none" stroke="#004a4d" stroke-linecap="round" stroke-linejoin="round" stroke-width="2"/>
    <path id="Path_9307" data-name="Path 9307" d="M12,11h.011" transform="translate(2.027 1.825)" fill="none" stroke="#004a4d" stroke-linecap="round" stroke-linejoin="round" stroke-width="2"/>
    <path id="Path_9308" data-name="Path 9308" d="M7.995,11h.011" transform="translate(1.215 1.825)" fill="none" stroke="#004a4d" stroke-linecap="round" stroke-linejoin="round" stroke-width="2"/>
  </g>
</svg>
