<svg xmlns="http://www.w3.org/2000/svg" width="52.733" height="48.548" viewBox="0 0 52.733 48.548">
  <g id="newsIcon3" transform="translate(-1685.667 -2261.564)">
    <g id="Group_125108" data-name="Group 125108" transform="translate(1701.148 2262.929)">
      <path id="Path_125165" data-name="Path 125165" d="M86.169,10.186,76.02.251a.694.694,0,0,0-1.068,0L64.8,10.186a.8.8,0,0,0,.534,1.389h4.807V31.5a1.229,1.229,0,0,0,1.068,1.015h8.547c.427,0,.534-.534.534-1.015V11.575h5.342a.8.8,0,0,0,.534-1.389Z" transform="translate(-64.546 0)" fill="none" stroke="#004a4d" stroke-width="2.5"/>
      <line id="Line_195" data-name="Line 195" x1="10.129" transform="translate(5.597 41.722)" fill="none" stroke="#004a4d" stroke-linecap="round" stroke-width="2.5"/>
      <line id="Line_197" data-name="Line 197" x1="10.129" transform="translate(5.597 45.933)" fill="none" stroke="#004a4d" stroke-linecap="round" stroke-width="2.5"/>
      <line id="Line_196" data-name="Line 196" x1="10.129" transform="translate(5.597 37.51)" fill="none" stroke="#004a4d" stroke-linecap="round" stroke-width="2.5"/>
    </g>
    <g id="Group_125109" data-name="Group 125109" transform="translate(1687.025 2278.054)">
      <path id="Path_125165-2" data-name="Path 125165" d="M78.922,6.772,72.174.167a.462.462,0,0,0-.71,0L64.716,6.772a.533.533,0,0,0,.355.923h3.2V20.939a.817.817,0,0,0,.71.675H74.66c.284,0,.355-.355.355-.675V7.7h3.551a.533.533,0,0,0,.355-.923Z" transform="translate(-64.546 0)" fill="none" stroke="#004a4d" stroke-width="2.5"/>
    </g>
    <g id="Group_125110" data-name="Group 125110" transform="translate(1722.603 2278.054)">
      <path id="Path_125165-3" data-name="Path 125165" d="M78.922,6.772,72.174.167a.462.462,0,0,0-.71,0L64.716,6.772a.533.533,0,0,0,.355.923h3.2V20.939a.817.817,0,0,0,.71.675H74.66c.284,0,.355-.355.355-.675V7.7h3.551a.533.533,0,0,0,.355-.923Z" transform="translate(-64.546 0)" fill="none" stroke="#004a4d" stroke-width="2.5"/>
    </g>
  </g>
</svg>
