<svg id="newsIcon1" xmlns="http://www.w3.org/2000/svg" width="48.915" height="46.083" viewBox="0 0 48.915 46.083">
  <g id="Group_128762" data-name="Group 128762">
    <path id="Subtraction_1" data-name="Subtraction 1" d="M29.041,46.083a6.366,6.366,0,1,1,6.364-6.365A6.372,6.372,0,0,1,29.041,46.083Zm0-10.566a4.2,4.2,0,1,0,4.2,4.2A4.206,4.206,0,0,0,29.041,35.517ZM8.776,46.079a6.362,6.362,0,1,1,6.363-6.36A6.367,6.367,0,0,1,8.776,46.079Zm0-10.56a4.2,4.2,0,1,0,4.2,4.2A4.2,4.2,0,0,0,8.776,35.519Zm13.052-2.226H15.311A15.916,15.916,0,0,1,4.492,29.176,13.457,13.457,0,0,1,0,19.207c0-.022,0-.043,0-.065l0-2.21A16.747,16.747,0,0,1,5,4.958,17.042,17.042,0,0,1,17.083,0h2.23V17.331H28.15l-.677,1.86H2.02c-.026,0-.039.014-.039.017a11.663,11.663,0,0,0,3.9,8.637,13.873,13.873,0,0,0,9.433,3.588h6.517a13.873,13.873,0,0,0,9.433-3.588,11.669,11.669,0,0,0,3.9-8.639.053.053,0,0,0-.039-.015H31.689l.677-1.86h2.752c.027,0,.053,0,.08,0a13.391,13.391,0,0,1,2.2-3.951,13.139,13.139,0,0,1,3.894-3.222,15.734,15.734,0,0,1,7.118-1.9l.5,0-1.521,2h-.121A10.052,10.052,0,0,0,42.249,11.9a10.99,10.99,0,0,0-5.316,6.484,1.762,1.762,0,0,1,.206.824,13.454,13.454,0,0,1-4.493,9.969A15.913,15.913,0,0,1,21.828,33.293ZM17.083,1.968A15.07,15.07,0,0,0,6.4,6.351,14.8,14.8,0,0,0,1.981,16.932v.242h15.35V1.968Z" fill="#10484c"/>
  </g>
  <g id="Group_128763" data-name="Group 128763" transform="translate(6.274 24.096)">
    <path id="Path_129844" data-name="Path 129844" d="M757.27,501.427a2.5,2.5,0,1,1-2.5-2.5,2.5,2.5,0,0,1,2.5,2.5" transform="translate(-731.927 -485.808)" fill="#3fc298"/>
    <path id="Path_129845" data-name="Path 129845" d="M757.27,501.427a2.5,2.5,0,1,1-2.5-2.5,2.5,2.5,0,0,1,2.5,2.5" transform="translate(-752.263 -485.808)" fill="#3fc298"/>
    <path id="Path_129846" data-name="Path 129846" d="M697.015,482.534h17.374l.661-1.9H697.676Z" transform="translate(-693.712 -480.635)" fill="#3fc298" stroke="#3fc298" stroke-width="0.7"/>
  </g>
</svg>
