<svg xmlns="http://www.w3.org/2000/svg" width="22.865" height="24.832" viewBox="0 0 22.865 24.832">
  <path id="notification" d="M11.451,1a9.536,9.536,0,0,1,9.543,9.229l.005.319V15.76l1.757,4.018A1.591,1.591,0,0,1,21.3,22.007l-6.028,0a3.819,3.819,0,0,1-7.632.224l-.007-.227H1.616a1.591,1.591,0,0,1-1.46-2.225L1.9,15.762V10.544A9.534,9.534,0,0,1,11.451,1Zm1.909,21.01-3.819,0a1.91,1.91,0,0,0,3.811.184Zm-1.909-19.1a7.624,7.624,0,0,0-7.639,7.639v5.614L2.1,20.1h18.71L19.09,16.16v-5.6l0-.287A7.623,7.623,0,0,0,11.451,2.906Z" transform="translate(-0.024 -0.996)" fill="#004a4d"/>
</svg>
