<svg xmlns="http://www.w3.org/2000/svg" width="317.193" height="277.8" viewBox="0 0 317.193 277.8">
  <g id="PatternVot2" transform="matrix(0.819, 0.574, -0.574, 0.819, 130.4, -87.224)" opacity="0.3">
    <path id="Path_1" data-name="Path 1" d="M362.443,0l-2.5,6.1V219.426l2.5,5.374Z" transform="translate(-207.869 0)" fill="#00836f"/>
    <path id="Path_2" data-name="Path 2" d="M353.692,21.316v207.86l-2.5-5.374V27.413Z" transform="translate(-202.815 -12.31)" fill="#00836f"/>
    <path id="Path_3" data-name="Path 3" d="M344.941,42.641V233.553l-2.5-5.374V48.738Z" transform="translate(-197.762 -24.626)" fill="#00836f"/>
    <path id="Path_4" data-name="Path 4" d="M336.181,63.976V237.928l-2.5-5.374V70.077Z" transform="translate(-192.702 -36.947)" fill="#00836f"/>
    <path id="Path_5" data-name="Path 5" d="M327.43,85.3V242.31l-2.5-5.374V91.4Z" transform="translate(-187.648 -49.263)" fill="#00836f"/>
    <path id="Path_6" data-name="Path 6" d="M318.679,106.618V246.682l-2.5-5.374V112.718Z" transform="translate(-182.595 -61.573)" fill="#00836f"/>
    <path id="Path_7" data-name="Path 7" d="M309.918,127.961v123.1l-2.5-5.374V134.062Z" transform="translate(-177.535 -73.899)" fill="#00836f"/>
    <path id="Path_8" data-name="Path 8" d="M301.167,149.286V255.44l-2.5-5.37V155.383Z" transform="translate(-172.481 -86.215)" fill="#00836f"/>
    <path id="Path_9" data-name="Path 9" d="M292.416,170.6v89.213l-2.5-5.374V176.7Z" transform="translate(-167.428 -98.525)" fill="#00836f"/>
    <path id="Path_10" data-name="Path 10" d="M283.655,191.946V264.2l-2.5-5.374v-60.78Z" transform="translate(-162.368 -110.851)" fill="#00836f"/>
    <path id="Path_11" data-name="Path 11" d="M274.9,213.263v55.306l-2.5-5.374V219.363Z" transform="translate(-157.314 -123.161)" fill="#00836f"/>
    <path id="Path_12" data-name="Path 12" d="M266.153,234.588V272.95l-.061-.134-2.442-5.24V240.685l2.442-5.948Z" transform="translate(-152.261 -135.477)" fill="#00836f"/>
    <path id="Path_13" data-name="Path 13" d="M266.008,234.941V273.02l-2.442-5.24-.061-.134V241.038l.061-.149Z" transform="translate(-152.177 -135.681)" fill="#00836f"/>
    <path id="Path_14" data-name="Path 14" d="M257.257,256.258V277.4l-2.5-5.374v-9.664Z" transform="translate(-147.123 -147.992)" fill="#00836f"/>
    <path id="Path_15" data-name="Path 15" d="M491.245,282.855l-13.182,9.128,1.8-3.846,7.628-5.282Z" transform="translate(-276.087 -163.352)" fill="#00836f"/>
    <path id="Path_16" data-name="Path 16" d="M496.018,282.846l-33.681,23.328,1.8-3.854,28.116-19.474Z" transform="translate(-267.004 -163.347)" fill="#00836f"/>
    <path id="Path_17" data-name="Path 17" d="M500.778,282.846l-54.131,37.49,1.8-3.847,48.582-33.643Z" transform="translate(-257.943 -163.347)" fill="#00836f"/>
    <path id="Path_18" data-name="Path 18" d="M505.537,282.846l-74.581,51.647,1.8-3.847,69.024-47.8Z" transform="translate(-248.881 -163.347)" fill="#00836f"/>
    <path id="Path_19" data-name="Path 19" d="M510.3,282.837l-95.042,65.82,1.8-3.846,89.485-61.974Z" transform="translate(-239.815 -163.342)" fill="#00836f"/>
    <path id="Path_20" data-name="Path 20" d="M515.074,282.837,399.52,362.861l1.8-3.851,109.989-76.173Z" transform="translate(-230.727 -163.342)" fill="#00836f"/>
    <path id="Path_21" data-name="Path 21" d="M519.831,282.828,383.839,377.013l1.8-3.854,130.435-90.331Z" transform="translate(-221.671 -163.336)" fill="#00836f"/>
    <path id="Path_22" data-name="Path 22" d="M521.175,282.828,370.244,387.355l-1.561,3.338L524.619,282.828Z" transform="translate(-212.918 -163.336)" fill="#00836f"/>
    <path id="Path_23" data-name="Path 23" d="M377.241,14.468V215.182l-4.853,10.372V2.672Z" transform="translate(-215.058 -1.543)" fill="#4fb58f"/>
    <path id="Path_24" data-name="Path 24" d="M392.941,52.625v170.42l-4.853,10.373V40.829Z" transform="translate(-224.125 -23.579)" fill="#4fb58f"/>
    <path id="Path_25" data-name="Path 25" d="M408.636,90.772V230.917l-4.849,10.365V78.987Z" transform="translate(-233.191 -45.616)" fill="#4fb58f"/>
    <path id="Path_26" data-name="Path 26" d="M424.336,128.929V238.78l-4.849,10.361v-132Z" transform="translate(-242.258 -67.652)" fill="#4fb58f"/>
    <path id="Path_27" data-name="Path 27" d="M440.036,167.087v79.557L435.186,257V155.3Z" transform="translate(-251.325 -89.689)" fill="#4fb58f"/>
    <path id="Path_28" data-name="Path 28" d="M455.735,205.244v49.263l-4.849,10.361V193.459Z" transform="translate(-260.391 -111.725)" fill="#4fb58f"/>
    <path id="Path_29" data-name="Path 29" d="M471.43,243.385V262.35l-4.853,10.373V231.589Z" transform="translate(-269.453 -133.745)" fill="#4fb58f"/>
    <path id="Path_30" data-name="Path 30" d="M484.649,275.515l-2.373,5.071V269.747Z" transform="translate(-278.519 -155.782)" fill="#4fb58f"/>
    <path id="Path_31" data-name="Path 31" d="M245.868,287.427l-6.514-4.509h2.472l2.863,1.983Z" transform="translate(-138.229 -163.389)" fill="#00836f"/>
    <path id="Path_32" data-name="Path 32" d="M238.965,295.339l-17.939-12.42H223.5l14.292,9.894Z" transform="translate(-127.645 -163.389)" fill="#00836f"/>
    <path id="Path_33" data-name="Path 33" d="M231.924,303.411l-29.605-20.492h2.472l25.958,17.966Z" transform="translate(-116.842 -163.389)" fill="#00836f"/>
    <path id="Path_34" data-name="Path 34" d="M224.988,311.364l-41.1-28.445h2.472l37.444,25.919Z" transform="translate(-106.2 -163.389)" fill="#00836f"/>
    <path id="Path_35" data-name="Path 35" d="M218.071,319.294l-52.55-36.376h2.472l48.9,33.85Z" transform="translate(-95.59 -163.389)" fill="#00836f"/>
    <path id="Path_36" data-name="Path 36" d="M211.148,327.232l-64.017-44.314H149.6L209.969,324.7Z" transform="translate(-84.97 -163.388)" fill="#00836f"/>
    <path id="Path_37" data-name="Path 37" d="M204.225,335.171,128.74,282.919h2.469l71.841,49.726Z" transform="translate(-74.349 -163.389)" fill="#00836f"/>
    <path id="Path_38" data-name="Path 38" d="M197.3,343.113l-86.963-60.194H112.8l83.315,57.668Z" transform="translate(-63.718 -163.389)" fill="#00836f"/>
    <path id="Path_39" data-name="Path 39" d="M190.366,351.055,91.933,282.919h2.477l94.782,65.606Z" transform="translate(-53.092 -163.389)" fill="#00836f"/>
    <path id="Path_40" data-name="Path 40" d="M183.462,358.973,73.588,282.918h2.469l106.23,73.533Z" transform="translate(-42.498 -163.389)" fill="#00836f"/>
    <path id="Path_41" data-name="Path 41" d="M176.527,366.919l-121.356-84h2.472L175.352,364.4Z" transform="translate(-31.862 -163.388)" fill="#00836f"/>
    <path id="Path_42" data-name="Path 42" d="M169.6,374.861,36.771,282.919H39.24l129.187,89.42Z" transform="translate(-21.236 -163.389)" fill="#00836f"/>
    <path id="Path_43" data-name="Path 43" d="M162.679,382.8l-144.3-99.88h2.472L161.5,380.273Z" transform="translate(-10.616 -163.389)" fill="#00836f"/>
    <path id="Path_44" data-name="Path 44" d="M0,282.919,155.76,390.734l-1.175-2.523L2.469,282.919Z" transform="translate(0 -163.389)" fill="#00836f"/>
  </g>
</svg>
