<svg xmlns="http://www.w3.org/2000/svg" width="65.528" height="65.165" viewBox="0 0 65.528 65.165">
  <g id="PopupIcon" transform="translate(-36 -19)">
    <rect id="popbg" width="64" height="64" rx="32" transform="translate(36 19)" fill="#fff"/>
    <g id="_010-information" data-name="010-information" transform="translate(37.152 5.417)">
      <path id="Path_125083" data-name="Path 125083" d="M203.523,91.738a6.065,6.065,0,0,0-4.571-1.89c-3.28,0-6.212,2.239-6.536,5a4.365,4.365,0,0,0,1.1,3.443,6.016,6.016,0,0,0,4.531,1.856c3.365,0,6.254-2.194,6.577-4.992A4.323,4.323,0,0,0,203.523,91.738Zm-1.529,3.1c-.166,1.437-1.973,2.651-3.946,2.651a3.435,3.435,0,0,1-2.554-.97,1.7,1.7,0,0,1-.448-1.375c.166-1.413,1.991-2.653,3.905-2.653a3.483,3.483,0,0,1,2.592,1A1.7,1.7,0,0,1,201.994,94.843Zm.278,25.135c-.331-.222-1.106-.742-.48-4.349.016-.079.079-.369.176-.821.222-1.03.635-2.946,1.085-5.083l0-.014a7.133,7.133,0,0,0-1.049-5.844,6.262,6.262,0,0,0-4.607-2.358c-2.865-.229-5.861,1.48-6.779,3.163a1.639,1.639,0,0,0-.061,1.647,2.108,2.108,0,0,0,.7.722c.326.231,1.087.772.364,4.372-.068.329-1.077,5.463-1.211,6.192l0,.015a7.038,7.038,0,0,0,1.2,5.814,6.569,6.569,0,0,0,5.014,2.245c2.755,0,5.509-1.711,6.347-3.349a1.638,1.638,0,0,0,.018-1.648A2.106,2.106,0,0,0,202.271,119.978Zm-1.813-10.791c-.447,2.127-.859,4.036-1.08,5.062-.151.7-.181.839-.192.9l0,.014c-.672,3.864.008,5.556.971,6.5a5.207,5.207,0,0,1-1.07.718,5.438,5.438,0,0,1-2.668.644,3.615,3.615,0,0,1-2.739-1.244,4.592,4.592,0,0,1-.662-3.706c.144-.784,1.155-5.919,1.2-6.124l0-.013c.773-3.845.137-5.554-.8-6.525a5.207,5.207,0,0,1,1.088-.69,5.439,5.439,0,0,1,2.684-.573,3.614,3.614,0,0,1,2.705,1.316A4.592,4.592,0,0,1,200.458,109.188Z" transform="translate(-166.476 -62.165)" fill="#1a8674"/>
    </g>
    <path id="Polygon_20" data-name="Polygon 20" d="M10.5,0,21,18H0Z" transform="translate(81.923 59.835) rotate(21)" fill="#fff"/>
  </g>
</svg>
