<svg xmlns="http://www.w3.org/2000/svg" width="40.247" height="40.247" viewBox="0 0 40.247 40.247">
  <g id="SBLIcon3" transform="translate(-1 -1)">
    <path id="Path_9321" data-name="Path 9321" d="M2,15A13.377,13.377,0,0,0,15.387,28.387L13.379,25.04" transform="translate(0 11.861)" fill="none" stroke="#004a4d" stroke-linecap="round" stroke-linejoin="round" stroke-width="2"/>
    <path id="Path_9322" data-name="Path 9322" d="M28.387,15.387A13.377,13.377,0,0,0,15,2l2.008,3.347" transform="translate(11.861 0)" fill="none" stroke="#004a4d" stroke-linecap="round" stroke-linejoin="round" stroke-width="2"/>
    <g id="calendar" transform="translate(8.437 7.433)">
      <path id="Path_484" data-name="Path 484" d="M8,2V5.311" transform="translate(0.519)" fill="none" stroke="#06b490" stroke-linecap="round" stroke-linejoin="round" stroke-miterlimit="10" stroke-width="2"/>
      <path id="Path_485" data-name="Path 485" d="M16,2V5.311" transform="translate(1.349)" fill="none" stroke="#06b490" stroke-linecap="round" stroke-linejoin="round" stroke-miterlimit="10" stroke-width="2"/>
      <path id="Path_486" data-name="Path 486" d="M3.5,9.09H22.264" transform="translate(0.052 0.736)" fill="none" stroke="#06b490" stroke-linecap="round" stroke-linejoin="round" stroke-miterlimit="10" stroke-width="2"/>
      <path id="Path_487" data-name="Path 487" d="M3,14V9.019C3,5.707,4.656,3.5,8.519,3.5h8.83c3.863,0,5.519,2.207,5.519,5.519V18.4c0,3.311-1.656,5.519-5.519,5.519H8.519C4.656,23.919,3,21.712,3,18.4" transform="translate(0 0.156)" fill="none" stroke="#06b490" stroke-linecap="round" stroke-linejoin="round" stroke-miterlimit="10" stroke-width="2"/>
      <path id="Path_488" data-name="Path 488" d="M15.694,13.7h.01" transform="translate(1.317 1.214)" fill="none" stroke="#06b490" stroke-linecap="round" stroke-linejoin="round" stroke-width="2"/>
      <g id="Group_56986" data-name="Group 56986" transform="translate(8.845 14.914)">
        <path id="Path_489" data-name="Path 489" d="M15.694,16.7h.01" transform="translate(-7.528 -13.389)" fill="none" stroke="#06b490" stroke-linecap="round" stroke-linejoin="round" stroke-width="2"/>
        <path id="Path_490" data-name="Path 490" d="M11.994,13.7H12" transform="translate(-7.912 -13.7)" fill="none" stroke="#06b490" stroke-linecap="round" stroke-linejoin="round" stroke-width="2"/>
        <path id="Path_491" data-name="Path 491" d="M11.994,16.7H12" transform="translate(-7.912 -13.389)" fill="none" stroke="#06b490" stroke-linecap="round" stroke-linejoin="round" stroke-width="2"/>
        <path id="Path_492" data-name="Path 492" d="M8.3,13.7h.01" transform="translate(-8.295 -13.7)" fill="none" stroke="#06b490" stroke-linecap="round" stroke-linejoin="round" stroke-width="2"/>
        <path id="Path_493" data-name="Path 493" d="M8.3,16.7h.01" transform="translate(-8.295 -13.389)" fill="none" stroke="#06b490" stroke-linecap="round" stroke-linejoin="round" stroke-width="2"/>
      </g>
    </g>
  </g>
</svg>
