<svg xmlns="http://www.w3.org/2000/svg" width="46.472" height="40.483" viewBox="0 0 46.472 40.483">
  <g id="SBLIcon2" transform="translate(-15 -47.477)">
    <path id="Path_142" data-name="Path 142" d="M22.912,188.14a1.49,1.49,0,0,0,1.24-1.229C25.273,180.1,30.233,176,36.011,176a11.051,11.051,0,0,1,10.395,7.212,1.468,1.468,0,0,0,1.13.916c4.632.756,8.486,3.854,8.486,9.24,0,5.511-4.5,9.352-10.005,9.352H24.338c-4.586,0-8.338-2.292-8.338-7.348C16,190.875,19.583,188.671,22.912,188.14Z" transform="translate(0 -115.76)" fill="none" stroke="#004a4d" stroke-linejoin="round" stroke-width="2"/>
    <path id="Path_143" data-name="Path 143" d="M272.713,141.351a7.422,7.422,0,1,0-11.463-8.535" transform="translate(-222.54 -72.224)" fill="none" stroke="#004a4d" stroke-linecap="round" stroke-linejoin="round" stroke-width="2"/>
    <line id="Line_21" data-name="Line 21" x2="3.18" transform="translate(57.292 63.56)" fill="none" stroke="#004a4d" stroke-linecap="round" stroke-linejoin="round" stroke-width="2"/>
    <line id="Line_22" data-name="Line 22" y2="3.18" transform="translate(45.388 48.477)" fill="none" stroke="#004a4d" stroke-linecap="round" stroke-linejoin="round" stroke-width="2"/>
    <line id="Line_23" data-name="Line 23" x2="2.1" y2="2.1" transform="translate(35.166 52.762)" fill="none" stroke="#004a4d" stroke-linecap="round" stroke-linejoin="round" stroke-width="2"/>
    <line id="Line_24" data-name="Line 24" x1="2.1" y2="2.1" transform="translate(54.028 52.762)" fill="none" stroke="#004a4d" stroke-linecap="round" stroke-linejoin="round" stroke-width="2"/>
  </g>
</svg>
