<svg xmlns="http://www.w3.org/2000/svg" width="38.647" height="42.719" viewBox="0 0 38.647 42.719">
  <g id="SBLIcon5" transform="translate(-2 -1)">
    <path id="Path_484" data-name="Path 484" d="M8,2V8.108" transform="translate(5.18)" fill="none" stroke="#004a4d" stroke-linecap="round" stroke-linejoin="round" stroke-miterlimit="10" stroke-width="2"/>
    <path id="Path_485" data-name="Path 485" d="M16,2V8.108" transform="translate(13.468)" fill="none" stroke="#004a4d" stroke-linecap="round" stroke-linejoin="round" stroke-miterlimit="10" stroke-width="2"/>
    <path id="Path_486" data-name="Path 486" d="M3.5,9.09H38.111" transform="translate(0.518 7.345)" fill="none" stroke="#004a4d" stroke-linecap="round" stroke-linejoin="round" stroke-miterlimit="10" stroke-width="2"/>
    <path id="Path_487" data-name="Path 487" d="M3,22.862V13.68C3,7.572,6.054,3.5,13.18,3.5H29.468c7.126,0,10.18,4.072,10.18,10.18V30.986c0,6.108-3.054,10.18-10.18,10.18H13.18C6.054,41.165,3,37.093,3,30.986" transform="translate(0 1.554)" fill="none" stroke="#004a4d" stroke-linecap="round" stroke-linejoin="round" stroke-miterlimit="10" stroke-width="2"/>
    <path id="Path_488" data-name="Path 488" d="M15.694,13.7h.018" transform="translate(13.15 12.121)" fill="none" stroke="#3fc298" stroke-linecap="round" stroke-linejoin="round" stroke-width="2"/>
    <g id="Group_56986" data-name="Group 56986" transform="translate(13.781 25.821)">
      <path id="Path_489" data-name="Path 489" d="M15.694,16.7h.018" transform="translate(-0.631 -10.592)" fill="none" stroke="#3fc298" stroke-linecap="round" stroke-linejoin="round" stroke-width="2"/>
      <path id="Path_490" data-name="Path 490" d="M11.995,13.7h.018" transform="translate(-4.463 -13.7)" fill="none" stroke="#3fc298" stroke-linecap="round" stroke-linejoin="round" stroke-width="2"/>
      <path id="Path_491" data-name="Path 491" d="M11.995,16.7h.018" transform="translate(-4.463 -10.592)" fill="none" stroke="#3fc298" stroke-linecap="round" stroke-linejoin="round" stroke-width="2"/>
      <path id="Path_492" data-name="Path 492" d="M8.3,13.7h.018" transform="translate(-8.295 -13.7)" fill="none" stroke="#3fc298" stroke-linecap="round" stroke-linejoin="round" stroke-width="2"/>
      <path id="Path_493" data-name="Path 493" d="M8.3,16.7h.018" transform="translate(-8.295 -10.592)" fill="none" stroke="#3fc298" stroke-linecap="round" stroke-linejoin="round" stroke-width="2"/>
    </g>
  </g>
</svg>
