<svg xmlns="http://www.w3.org/2000/svg" width="45.057" height="45.06" viewBox="0 0 45.057 45.06">
  <g id="SBLIcon4" transform="translate(-1811 -1515)">
    <g id="Group_124909" data-name="Group 124909" transform="translate(0 -2)">
      <path id="Path_124932" data-name="Path 124932" d="M57,26.18v.25l-1.57,1.09V26.18a3.549,3.549,0,0,0-3.54-3.55H40.99a3.549,3.549,0,0,0-3.54,3.55v6.01l-1.57-.77V26.18a5.113,5.113,0,0,1,5.11-5.11H51.88A5.121,5.121,0,0,1,57,26.18" transform="translate(1782.167 1511.05)" fill="#06b490" stroke="#06b490" stroke-width="0.5"/>
      <path id="Path_124933" data-name="Path 124933" d="M57,28.39v3.8l-1.57-.78V29.48Z" transform="translate(1782.167 1512.05)" fill="#06b490" stroke="#06b490" stroke-width="0.5"/>
      <path id="Path_124934" data-name="Path 124934" d="M46.44,10.8a4.44,4.44,0,1,0,4.44,4.44,4.449,4.449,0,0,0-4.44-4.44m0,7.32a2.875,2.875,0,1,1,2.87-2.88,2.879,2.879,0,0,1-2.87,2.88" transform="translate(1782.167 1511.05)" fill="#06b490" stroke="#06b490" stroke-width="0.5"/>
      <path id="Path_124935" data-name="Path 124935" d="M41.5,26.84v5.24l-1.57-.78V26.84a.785.785,0,0,1,1.57,0" transform="translate(1782.167 1511.05)" fill="#06b490" stroke="#06b490" stroke-width="0.5"/>
      <path id="Path_124936" data-name="Path 124936" d="M52.95,26.84v5.43l-1.57-.77V26.84a.785.785,0,0,1,1.57,0" transform="translate(1782.167 1511.05)" fill="#06b490" stroke="#06b490" stroke-width="0.5"/>
    </g>
    <g id="Group_124911" data-name="Group 124911" transform="translate(1811 1515)">
      <g id="Group_124912" data-name="Group 124912">
        <path id="Path_124937" data-name="Path 124937" d="M32.84,8.76l-1.29.9a15.851,15.851,0,0,1,2.13,7.97A16.057,16.057,0,0,1,2.5,23.02a12.9,12.9,0,0,1-.51-1.71,15.91,15.91,0,0,1-.43-3.68A16.059,16.059,0,0,1,30.69,8.3l1.28-.89A17.621,17.621,0,0,0,.71,22.59c.17.56.36,1.11.58,1.64A17.615,17.615,0,1,0,32.84,8.76" fill="#004a4d"/>
        <path id="Path_124938" data-name="Path 124938" d="M44.09,39.4,32.05,27.36a.8.8,0,0,0-1.11,0l-3.58,3.59a.779.779,0,0,0,0,1.11L39.39,44.09a3.32,3.32,0,0,0,4.7-4.69" fill="#004a4d"/>
      </g>
    </g>
  </g>
</svg>
