<svg xmlns="http://www.w3.org/2000/svg" xmlns:xlink="http://www.w3.org/1999/xlink" width="57.46" height="57.46" viewBox="0 0 57.46 57.46">
  <defs>
    <clipPath id="clip-path">
      <rect id="Rectangle_887" data-name="Rectangle 887" width="57.46" height="57.46" fill="none" stroke="#004a4d" stroke-width="2"/>
    </clipPath>
  </defs>
  <g id="SBLIcon1" transform="translate(0 0)">
    <g id="Group_3661" data-name="Group 3661" transform="translate(0 0)" clip-path="url(#clip-path)">
      <path id="Path_9309" data-name="Path 9309" d="M11.523,25.687s-2.839-4.512-2.289-7.312S21.608,6.424,21.608,6.424,33.43,15.573,33.981,18.375s-2.29,7.312-2.29,7.312Z" transform="translate(7.018 4.92)" fill="none" stroke="#004a4d" stroke-miterlimit="10" stroke-width="2"/>
      <line id="Line_172" data-name="Line 172" y2="17.517" transform="translate(38.743 30.608)" fill="none" stroke="#004a4d" stroke-miterlimit="10" stroke-width="2"/>
      <line id="Line_173" data-name="Line 173" y1="17.517" transform="translate(18.519 30.608)" fill="none" stroke="#004a4d" stroke-miterlimit="10" stroke-width="2"/>
      <line id="Line_174" data-name="Line 174" x2="14.042" transform="translate(18.519 34.14)" fill="none" stroke="#004a4d" stroke-miterlimit="10" stroke-width="2"/>
      <line id="Line_175" data-name="Line 175" x2="4.01" transform="translate(35.178 34.14)" fill="none" stroke="#004a4d" stroke-miterlimit="10" stroke-width="2"/>
      <path id="Path_9310" data-name="Path 9310" d="M23.222,33.923V22.7h-9.7v11.22" transform="translate(10.357 17.387)" fill="none" stroke="#004a4d" stroke-miterlimit="10" stroke-width="2"/>
      <path id="Path_9311" data-name="Path 9311" d="M47.62,36.237l8.049-8.049L47.62,20.14V8.756H36.237L28.187.707,20.138,8.756H8.756V20.14L.707,28.188l8.049,8.049V47.62H20.138l8.049,8.05,8.05-8.05H47.62Z" transform="translate(0.542 0.542)" fill="none" stroke="#004a4d" stroke-miterlimit="10" stroke-width="2"/>
    </g>
  </g>
</svg>
