<svg xmlns="http://www.w3.org/2000/svg" width="29.723" height="29.728" viewBox="0 0 29.723 29.728">
  <g id="twFt" transform="translate(-0.924 -205.236)">
    <path id="Path_482" data-name="Path 482" d="M17.234,72.776a6.609,6.609,0,0,1-1.581.452c.254-.046.625-.5.773-.691a2.856,2.856,0,0,0,.524-.951.063.063,0,0,0,0-.086.089.089,0,0,0-.081.01A8.25,8.25,0,0,1,15,72.222a.134.134,0,0,1-.132-.03,1.283,1.283,0,0,0-.163-.168,3.26,3.26,0,0,0-.9-.554,3.1,3.1,0,0,0-1.388-.224,3.32,3.32,0,0,0-1.317.371,3.264,3.264,0,0,0-1.062.869A3.327,3.327,0,0,0,9.4,73.757,3.408,3.408,0,0,0,9.365,75.1c0,.071,0,.086-.071.071a9.975,9.975,0,0,1-6.42-3.264c-.076-.086-.117-.086-.178.005A3.26,3.26,0,0,0,3.25,75.76c.127.117.259.239.4.346a3.16,3.16,0,0,1-1.24-.346c-.076-.046-.112-.02-.117.066a2.251,2.251,0,0,0,.015.366A3.312,3.312,0,0,0,4.337,78.82a1.739,1.739,0,0,0,.412.122,3.6,3.6,0,0,1-1.215.041c-.092-.015-.127.025-.092.112A3.418,3.418,0,0,0,6,81.235c.117.02.234.02.346.046l-.015.02a4.094,4.094,0,0,1-1.749.925,6.252,6.252,0,0,1-2.648.341c-.147-.02-.173-.02-.214,0s-.005.056.046.1c.178.117.361.224.549.325a8.5,8.5,0,0,0,1.774.707,9.433,9.433,0,0,0,9.155-2.14,9.614,9.614,0,0,0,2.532-7.01c0-.1.122-.158.193-.208a6.382,6.382,0,0,0,1.24-1.3.388.388,0,0,0,.086-.249v-.015c0-.041,0-.025-.061,0" transform="translate(6.286 142.445)" fill="#15484d"/>
    <path id="Path_483" data-name="Path 483" d="M30.037,84.558v-.117a14.9,14.9,0,1,0-.066,1.367l-1.057.742v.005a13.924,13.924,0,1,1,.158-2.115c0,.269-.005.539-.025.8Z" transform="translate(0.61 135.659)" fill="#15484d"/>
  </g>
</svg>
