<svg id="user-add" xmlns="http://www.w3.org/2000/svg" xmlns:xlink="http://www.w3.org/1999/xlink" width="60.716" height="44.42" viewBox="0 0 60.716 44.42">
  <defs>
    <clipPath id="clip-path">
      <path id="Path_129852" data-name="Path 129852" d="M1.8-2.069,7,.42,6.627-12.868,1.8-13.594Z" transform="translate(-1.797 13.594)" fill="#004a4d"/>
    </clipPath>
    <clipPath id="clip-path-3">
      <path id="Path_129854" data-name="Path 129854" d="M-29.324,8.7l3.477,2.018,36.7-1.676,4.378,2.1V2.636L10.911,4.941V2.636L15.23.9l-.154-12.98H-29.716Z" transform="translate(29.716 12.085)" fill="#004a4d"/>
    </clipPath>
  </defs>
  <g id="Group_128765" data-name="Group 128765" transform="translate(38.716 1.998)">
    <g id="Ellipse_172" data-name="Ellipse 172" fill="none" stroke="#004a4d" stroke-width="1.5">
      <circle cx="11" cy="11" r="11" stroke="none"/>
      <circle cx="11" cy="11" r="10.25" fill="none"/>
    </g>
    <path id="Path_129848" data-name="Path 129848" d="M697.015,481.853h11.139l.423-1.218H697.439Z" transform="translate(-691.796 -470.17)" fill="#3fc298" stroke="#3fc298" stroke-width="0.5"/>
    <path id="Path_129849" data-name="Path 129849" d="M0,1.218H11.139L11.563,0H.424Z" transform="translate(10.391 16.855) rotate(-90)" fill="#3fc298" stroke="#3fc298" stroke-width="0.5"/>
  </g>
  <g id="Group_128768" data-name="Group 128768">
    <path id="Ellipse_173" data-name="Ellipse 173" d="M9,2a7,7,0,1,0,7,7A7.008,7.008,0,0,0,9,2M9,0A9,9,0,1,1,0,9,9,9,0,0,1,9,0Z" transform="translate(13.716)" fill="#004a4d"/>
    <g id="Mask_Group_5" data-name="Mask Group 5" transform="translate(31.513 30.406)" clip-path="url(#clip-path)">
      <path id="Line_8625" data-name="Line 8625" d="M0,15.238a1,1,0,0,1-1-1V0A1,1,0,0,1,0-1,1,1,0,0,1,1,0V14.238A1,1,0,0,1,0,15.238Z" transform="translate(2.703 1.594)" fill="#004a4d"/>
    </g>
    <g id="Mask_Group_6" data-name="Mask Group 6" transform="translate(7.615 30.406)" clip-path="url(#clip-path)">
      <path id="Line_8625-2" data-name="Line 8625" d="M0,15.238a1,1,0,0,1-1-1V0A1,1,0,0,1,0-1,1,1,0,0,1,1,0V14.238A1,1,0,0,1,0,15.238Z" transform="translate(2.703 1.594)" fill="#004a4d"/>
    </g>
    <g id="Mask_Group_7" data-name="Mask Group 7" transform="translate(0 20.981)" clip-path="url(#clip-path-3)">
      <path id="Rectangle_15553" data-name="Rectangle 15553" d="M11,2a9.01,9.01,0,0,0-9,9V23a9.01,9.01,0,0,0,9,9H32a9.01,9.01,0,0,0,9-9V11a9.01,9.01,0,0,0-9-9H11m0-2H32A11,11,0,0,1,43,11V23A11,11,0,0,1,32,34H11A11,11,0,0,1,0,23V11A11,11,0,0,1,11,0Z" transform="translate(0.716 0.019)" fill="#004a4d"/>
    </g>
  </g>
</svg>
