<svg xmlns="http://www.w3.org/2000/svg" width="92.925" height="62.199" viewBox="0 0 92.925 62.199">
  <g id="visionLogo" transform="translate(0 0.006)">
    <g id="Group_62" transform="translate(0 -0.006)">
      <path id="Rectangle_111" d="M0,0H1.048V1.048H0Z" transform="translate(54.746 1.126)" fill="#a6a6a8"/>
      <path id="Rectangle_112" d="M0,0H1.048V1.048H0Z" transform="translate(76.48 14.101)" fill="#a6a6a8"/>
      <path id="Path_10290" d="M351.922,22.657a1.6,1.6,0,0,0,.624-.526,2.036,2.036,0,0,0,.324-.824,4.989,4.989,0,0,0,.1-1.1V12.9h-1.048v7.311a5.907,5.907,0,0,1-.05.748,1.31,1.31,0,0,1-.15.5.635.635,0,0,1-.3.275,1.4,1.4,0,0,1-.5.075.769.769,0,0,1-.249-.025.862.862,0,0,1-.3-.075l-.275,1a3.49,3.49,0,0,0,.848.125,2.192,2.192,0,0,0,.973-.176Z" transform="translate(-262.74 -9.678)" fill="#a6a6a8"/>
      <path id="Path_10291" d="M336.014,1.37h-1.447V1.12a.532.532,0,0,1,.075-.3.448.448,0,0,1,.324-.1h.724V0h-.748a1.228,1.228,0,0,0-.923.324,1.3,1.3,0,0,0-.324,1v.847h2.3v-.8Z" transform="translate(-250.427 0.006)" fill="#a6a6a8"/>
      <path id="Rectangle_113" d="M0,0H1.048V1.048H0Z" transform="translate(74.384 14.101)" fill="#a6a6a8"/>
      <path id="Rectangle_114" d="M0,0H1.048V1.048H0Z" transform="translate(56.843 1.126)" fill="#a6a6a8"/>
      <path id="Path_10292" d="M320.123,19.138a4.064,4.064,0,0,0,1.373.624,7.087,7.087,0,0,0,1.647.2h.275l.349-.724v1.023a1.329,1.329,0,0,1-.474,1.173,2.252,2.252,0,0,1-1.323.349,3.113,3.113,0,0,1-.873-.1,4.268,4.268,0,0,1-.873-.324l-.324,1a8.354,8.354,0,0,0,1.073.324,3.876,3.876,0,0,0,.923.1,3.006,3.006,0,0,0,2.22-.725,2.727,2.727,0,0,0,.7-1.947V12.9h-1.672a5.732,5.732,0,0,0-1.772.275,4.045,4.045,0,0,0-1.373.748,3.422,3.422,0,0,0-.873,1.123,3.488,3.488,0,0,0-.324,1.421,3.328,3.328,0,0,0,.349,1.572A3.468,3.468,0,0,0,320.123,19.138Zm0-3.693a2.238,2.238,0,0,1,.649-.8,3.258,3.258,0,0,1,.9-.526,2.847,2.847,0,0,1,1.023-.175h1.7l-.6.3v4.691h-1.048a3.167,3.167,0,0,1-1.1-.175,2.573,2.573,0,0,1-.9-.474,2.371,2.371,0,0,1-.624-.774,2.315,2.315,0,0,1-.225-1.048,2.052,2.052,0,0,1,.224-1.021Z" transform="translate(-239.251 -9.678)" fill="#a6a6a8"/>
      <path id="Path_10293" d="M205.94,22.706h2.171v-.8c.025.025.05.075.075.1a1.6,1.6,0,0,0,.624.526,2.147,2.147,0,0,0,.947.175h19.064V12.9h-1.048v8.808H209.782a1.4,1.4,0,0,1-.5-.075.635.635,0,0,1-.3-.275,1.31,1.31,0,0,1-.149-.5,5.9,5.9,0,0,1-.052-.749V12.9h-2.819a4.813,4.813,0,0,0-4.866,4.89v.025a4.793,4.793,0,0,0,4.843,4.891Zm-3.718-4.94a3.737,3.737,0,0,1,3.718-3.895h2.445l-.649.324v5.891a4.987,4.987,0,0,0,.1,1.1c.05.2.1.349.149.526H205.94a3.778,3.778,0,0,1-3.743-3.917v-.025Z" transform="translate(-150.918 -9.678)" fill="#a6a6a8"/>
      <path id="Path_10294" d="M158.51,20.036l.474,1.2L152.348,12.8H151.3v9.806h1.073V15.221l-.6-1.421,6.937,8.808h.9V12.8h-1.1Z" transform="translate(-113.547 -9.603)" fill="#a6a6a8"/>
      <path id="Path_10295" d="M205.379,85.684l6.014-5.737V76H195.3v4.492h8.259l3.069-1.971L198.991,86.2l.824,3.319h2.171c2.919,0,4.666,1.1,4.666,3.019v.075c0,1.772-1.4,2.895-3.368,2.895a7.344,7.344,0,0,1-5.764-2.842L193.9,96.114a11.564,11.564,0,0,0,9.283,4.117c5.316,0,8.584-3.294,8.584-7.785v-.078c0-4.441-3.169-6.138-6.388-6.684Z" transform="translate(-145.517 -57.033)" fill="#a6a6a8"/>
      <path id="Path_10296" d="M108.915,12.2a4.963,4.963,0,0,0-5.016,5.065v.025a5,5,0,0,0,10.006-.025V17.24a4.906,4.906,0,0,0-4.99-5.04Zm3.842,5.09a3.854,3.854,0,0,1-3.842,4.017,3.895,3.895,0,0,1-3.868-4.043V17.24a3.854,3.854,0,0,1,3.842-4.017,3.895,3.895,0,0,1,3.868,4.043Z" transform="translate(-77.973 -9.152)" fill="#a6a6a8"/>
      <path id="Path_10297" d="M283.6,74.3a12.31,12.31,0,0,0-12.7,12.3v.075c0,6.762,5.263,12.227,12.626,12.227a12.309,12.309,0,0,0,12.7-12.3v-.075C296.227,79.789,290.962,74.3,283.6,74.3Zm7.162,12.377a7.121,7.121,0,0,1-7.136,7.411,7.23,7.23,0,0,1-7.21-7.486v-.075a7.121,7.121,0,0,1,7.136-7.411,7.224,7.224,0,0,1,7.21,7.461Z" transform="translate(-203.303 -55.757)" fill="#a6a6a8"/>
      <path id="Rectangle_115" d="M0,0H1.1V9.782H0Z" transform="translate(22.907 3.197)" fill="#a6a6a8"/>
      <path id="Path_10298" d="M5.816,96.009l1.023-.774,5.215-4.017c4.217-3.269,6.263-5.24,6.263-9.208v-.075c0-4.442-3.269-7.336-8.21-7.336-4.242,0-6.538,1.722-8.883,4.916l3.668,2.944c1.772-2.171,3.019-3.194,4.866-3.194a2.922,2.922,0,0,1,3.194,3.094c0,1.971-1.148,3.269-4.117,5.714L.9,94.562V98.7H18.541V94.188H9.436Z" transform="translate(-0.675 -55.982)" fill="#a6a6a8"/>
      <path id="Path_10299" d="M5.19,22.682,9.407,12.8H8.235L4.89,20.835l.1,1.073-.275-.674-2.869-6.96L1.223,12.8H0l4.217,9.882Z" transform="translate(0 -9.603)" fill="#a6a6a8"/>
      <path id="Rectangle_116" d="M0,0H1.1V9.782H0Z" transform="translate(10.929 3.197)" fill="#a6a6a8"/>
      <path id="Path_10300" d="M59.167,16.865c-2.146-.449-2.67-.973-2.67-1.895v-.025c0-.873.824-1.572,2.1-1.572a4.258,4.258,0,0,1,2.819,1.073l.649-.848a5.123,5.123,0,0,0-3.444-1.2c-1.872,0-3.219,1.123-3.219,2.67v.025c0,1.6,1.048,2.346,3.294,2.819,2.071.424,2.545.947,2.545,1.872,0,.973-.873,1.672-2.2,1.672a4.654,4.654,0,0,1-3.369-1.374l-.674.8a5.742,5.742,0,0,0,4.017,1.572c1.947,0,3.344-1.1,3.344-2.77v-.023c0-1.526-1-2.323-3.194-2.8Z" transform="translate(-41.276 -9.301)" fill="#a6a6a8"/>
    </g>
    <path id="Path_10301" d="M125.148,68.1l1.2,1.148-1.148,1.2L124,69.3Z" transform="translate(-93.059 -51.11)" fill="#273877"/>
    <path id="Path_10302" d="M139.7,69.3l1.2,1.148,1.148-1.2-1.2-1.148Z" transform="translate(-104.841 -51.11)" fill="#aaaaad"/>
    <path id="Path_10303" d="M132.9,76.147l.923.9.9-.947-.923-.9Z" transform="translate(-99.738 -56.438)" fill="#ccd533"/>
    <path id="Path_10304" d="M146.7,78.223l.923.923.9-.947-.923-.9Z" transform="translate(-110.095 -58.015)" fill="#71b645"/>
    <path id="Path_10305" d="M126.7,81.923l.947.9.9-.923L127.6,81Z" transform="translate(-95.085 -60.791)" fill="#ccd533"/>
    <path id="Path_10306" d="M139.3,82.347l.947.9.9-.947-.947-.9Z" transform="translate(-104.541 -61.091)" fill="#26b4bb"/>
    <path id="Path_10307" d="M134.4,87.473l.649.624.649-.649-.674-.649Z" transform="translate(-100.864 -65.144)" fill="#71b645"/>
    <path id="Path_10308" d="M144.4,89.473l.649.624.649-.649-.674-.649Z" transform="translate(-108.368 -66.644)" fill="#59b25a"/>
    <path id="Rectangle_117" d="M0,0H2.1V2.071H0Z" transform="translate(41.477 17.817) rotate(-10.387)" fill="#2885c7"/>
    <path id="Rectangle_118" d="M0,0H1.672V1.672H0Z" transform="translate(38.785 18.653) rotate(-10.376)" fill="#1d3a6d"/>
    <path id="Rectangle_119" d="M0,0H1.672V1.672H0Z" transform="translate(41.983 20.945) rotate(-10.393)" fill="#26b4bb"/>
    <path id="Rectangle_120" d="M0,0H1.3V1.3H0Z" transform="translate(39.715 21.183) rotate(-10.382)" fill="#ccd533"/>
    <path id="Rectangle_121" d="M0,0H1.3V1.3H0Z" transform="translate(42.189 23.632) rotate(-10.382)" fill="#aaaaad"/>
    <path id="Rectangle_122" d="M0,0H1.3V1.3H0Z" transform="translate(37.795 21.708) rotate(-10.382)" fill="#26b4bb"/>
    <path id="Rectangle_123" d="M0,0H1.3V1.3H0Z" transform="translate(40.115 23.381) rotate(-10.382)" fill="#71b645"/>
    <path id="Rectangle_124" d="M0,0H.923V.923H0Z" transform="translate(38.477 23.544) rotate(-10.387)" fill="#aaaaad"/>
    <path id="Rectangle_125" d="M0,0H.923V.923H0Z" transform="translate(40.221 25.388) rotate(-10.358)" fill="#59b25a"/>
    <path id="Path_10309" d="M187.9,98.2l-.9,1.895,1.895.873.9-1.872Z" transform="translate(-140.338 -73.699)" fill="#273877"/>
    <path id="Path_10310" d="M177.724,94.8,177,96.3l1.522.724.724-1.522Z" transform="translate(-132.834 -71.148)" fill="#26b4bb"/>
    <path id="Path_10311" d="M182.724,109.6,182,111.122l1.522.7.7-1.5Z" transform="translate(-136.586 -82.255)" fill="#71b645"/>
    <path id="Path_10312" d="M175.249,105.1l-.549,1.173,1.173.549.574-1.173Z" transform="translate(-131.108 -78.877)" fill="#ccd533"/>
    <path id="Path_10313" d="M177.649,118.8l-.549,1.173,1.173.574.574-1.173Z" transform="translate(-132.909 -89.159)" fill="#ccd533"/>
    <path id="Path_10314" d="M167.774,102.3l-.574,1.173,1.2.549.549-1.173Z" transform="translate(-125.479 -76.776)" fill="#2885c7"/>
    <path id="Path_10315" d="M171.449,113.2l-.549,1.173,1.173.549.549-1.173Z" transform="translate(-128.256 -84.956)" fill="#aaaaad"/>
    <path id="Path_10316" d="M166.274,109.9l-.374.824.824.4.4-.848Z" transform="translate(-124.504 -82.48)" fill="#71b645"/>
    <path id="Rectangle_126" d="M0,0H.923V.923H0Z" transform="translate(41.7 30.758) rotate(-64.53)" fill="#26b4bb"/>
    <path id="Path_10317" d="M189.222,134.3l-1.822,1,1,1.822,1.822-1Z" transform="translate(-140.638 -100.791)" fill="#2885c7"/>
    <path id="Path_10318" d="M183.674,125.2l-1.474.8.8,1.474,1.474-.8Z" transform="translate(-136.736 -93.962)" fill="#26b4bb"/>
    <path id="Path_10319" d="M178.947,140.2l-1.447.8.8,1.474,1.474-.824Z" transform="translate(-133.209 -105.219)" fill="#26b4bb"/>
    <path id="Path_10320" d="M176.148,131.9l-1.148.624.624,1.123,1.148-.624Z" transform="translate(-131.333 -98.99)" fill="#273877"/>
    <path id="Path_10321" d="M170.048,144.4l-1.148.624.624,1.148,1.148-.624Z" transform="translate(-126.755 -108.371)" fill="#59b25a"/>
    <path id="Path_10322" d="M171.748,125.2l-1.148.624.624,1.148,1.148-.624Z" transform="translate(-128.031 -93.962)" fill="#1d3a6d"/>
    <path id="Path_10323" d="M168.248,136.2l-1.148.624.649,1.148,1.123-.649Z" transform="translate(-125.404 -102.217)" fill="#ccd533"/>
    <path id="Path_10324" d="M166.7,130.2l-.8.424.424.824.8-.449Z" transform="translate(-124.504 -97.714)" fill="#aaaaad"/>
    <path id="Path_10325" d="M161.8,139.1l-.8.449.424.8.8-.449Z" transform="translate(-120.826 -104.394)" fill="#26b4bb"/>
    <path id="Rectangle_127" d="M0,0H2.071V2.1H0Z" transform="translate(41.77 43.18) rotate(-82.94)" fill="#71b645"/>
    <path id="Rectangle_128" d="M0,0H1.672V1.672H0Z" transform="translate(42.246 40.044) rotate(-82.935)" fill="#1d3a6d"/>
    <path id="Rectangle_129" d="M0,0H1.672V1.672H0Z" transform="translate(39.109 42.389) rotate(-82.935)" fill="#26b4bb"/>
    <path id="Rectangle_130" d="M0,0H1.3V1.3H0Z" transform="matrix(0.123, -0.992, 0.992, 0.123, 39.982, 39.835)" fill="#71b645"/>
    <path id="Rectangle_131" d="M0,0H1.3V1.3H0Z" transform="matrix(0.123, -0.992, 0.992, 0.123, 36.917, 41.481)" fill="#aaaaad"/>
    <path id="Rectangle_132" d="M0,0H1.3V1.3H0Z" transform="translate(40.047 37.85) rotate(-82.935)" fill="#aaaaad"/>
    <path id="Rectangle_133" d="M0,0H1.3V1.3H0Z" transform="translate(37.761 39.563) rotate(-82.935)" fill="#71b645"/>
    <path id="Rectangle_134" d="M0,0H.923V.923H0Z" transform="matrix(0.123, -0.992, 0.992, 0.123, 38.548, 37.644)" fill="#aaaaad"/>
    <path id="Rectangle_135" d="M0,0H.923V.923H0Z" transform="matrix(0.123, -0.992, 0.992, 0.123, 36.219, 38.716)" fill="#aaaaad"/>
    <path id="Path_10326" d="M135.044,176.821,133.5,175.4l-1.4,1.547,1.522,1.4Z" transform="translate(-99.137 -131.636)" fill="#ccd533"/>
    <path id="Path_10327" d="M133.844,60.1l-1.523-1.4L130.9,60.222l1.547,1.4Z" transform="translate(-98.237 -44.056)" fill="#71b645"/>
    <path id="Path_10328" d="M143.267,168.548l-1.223-1.148-1.148,1.223,1.223,1.148Z" transform="translate(-105.74 -125.632)" fill="#26b4bb"/>
    <path id="Path_10329" d="M127.566,168.823l-1.223-1.123-1.148,1.223,1.223,1.123Z" transform="translate(-93.957 -125.857)" fill="#71b645"/>
    <path id="Path_10330" d="M135.846,163.373l-.947-.873-.9.947.947.873Z" transform="translate(-100.564 -121.955)" fill="#2885c7"/>
    <path id="Path_10331" d="M122.046,161.573l-.973-.873-.873.947.947.873Z" transform="translate(-90.207 -120.604)" fill="#ccd533"/>
    <path id="Path_10332" d="M140.746,157.1l-.947-.9-.9.947.973.9Z" transform="translate(-104.241 -117.226)" fill="#ccd533"/>
    <path id="Path_10333" d="M129.247,157.3l-.947-.9-.9.947.973.9Z" transform="translate(-95.611 -117.377)" fill="#aaaaad"/>
    <path id="Path_10334" d="M135.8,153.724l-.674-.624-.624.649.674.624Z" transform="translate(-100.939 -114.9)" fill="#1d3a6d"/>
    <path id="Path_10335" d="M125.8,151.824l-.674-.624-.624.674.674.624Z" transform="translate(-93.434 -113.474)" fill="#aaaaad"/>
    <path id="Rectangle_136" d="M0,0H2.1V2.071H0Z" transform="translate(24.546 41.843) rotate(-11.332)" fill="#2885c7"/>
    <path id="Rectangle_137" d="M0,0H1.672V1.672H0Z" transform="translate(27.699 41.246) rotate(-11.31)" fill="#26b4bb"/>
    <path id="Rectangle_138" d="M0,0H1.672V1.672H0Z" transform="translate(24.485 39.027) rotate(-11.366)" fill="#71b645"/>
    <path id="Rectangle_139" d="M0,0H1.3V1.3H0Z" transform="translate(27.16 39.04) rotate(-11.31)" fill="#ccd533"/>
    <path id="Rectangle_140" d="M0,0H1.3V1.3H0Z" transform="translate(29.081 38.489) rotate(-11.31)" fill="#273877"/>
    <path id="Rectangle_141" d="M0,0H1.3V1.3H0Z" transform="translate(26.733 36.841) rotate(-11.31)" fill="#2885c7"/>
    <path id="Rectangle_142" d="M0,0H.923V.923H0Z" transform="matrix(0.981, -0.196, 0.196, 0.981, 28.812, 36.953)" fill="#71b645"/>
    <path id="Rectangle_143" d="M0,0H.923V.923H0Z" transform="translate(27.043 35.133) rotate(-11.366)" fill="#aaaaad"/>
    <path id="Path_10336" d="M77.595,139.446l.873-1.895-1.895-.848L75.7,138.6Z" transform="translate(-56.811 -102.594)" fill="#26b4bb"/>
    <path id="Path_10337" d="M89.522,144.4l.674-1.522-1.5-.674-.7,1.522Z" transform="translate(-66.042 -106.72)" fill="#ccd533"/>
    <path id="Path_10338" d="M84.322,129.6,85,128.1l-1.522-.7-.674,1.522Z" transform="translate(-62.139 -95.613)" fill="#2885c7"/>
    <path id="Rectangle_144" d="M0,0H1.3V1.3H0Z" transform="matrix(0.415, -0.91, 0.91, 0.415, 22.992, 34.548)" fill="#26b4bb"/>
    <path id="Path_10339" d="M99.673,147.322l.549-1.173-1.2-.549-.526,1.173Z" transform="translate(-73.921 -109.272)" fill="#aaaaad"/>
    <path id="Rectangle_145" d="M0,0H1.3V1.3H0Z" transform="translate(22.339 31.122) rotate(-65.48)" fill="#273877"/>
    <path id="Rectangle_146" d="M0,0H1.3V1.3H0Z" transform="translate(24.873 35.213) rotate(-65.48)" fill="#59b25a"/>
    <path id="Rectangle_147" d="M0,0H1.3V1.3H0Z" transform="translate(23.904 32.512) rotate(-65.455)" fill="#ccd533"/>
    <path id="Path_10340" d="M103.824,132.1l.374-.824-.824-.374-.374.824Z" transform="translate(-77.299 -98.239)" fill="#1d3a6d"/>
    <path id="Path_10341" d="M102.348,122l.374-.824-.824-.374-.4.824Z" transform="translate(-76.173 -90.66)" fill="#71b645"/>
    <path id="Path_10342" d="M75.523,103.242l1.822-1.048L76.322,100.4,74.5,101.423Z" transform="translate(-55.91 -75.35)" fill="#26b4bb"/>
    <path id="Path_10343" d="M82.924,113.871l1.474-.824-.85-1.447-1.447.824Z" transform="translate(-61.614 -83.756)" fill="#71b645"/>
    <path id="Path_10344" d="M87.424,98.871l1.447-.824L88.047,96.6l-1.447.824Z" transform="translate(-64.991 -72.498)" fill="#1d3a6d"/>
    <path id="Path_10345" d="M91.849,108.572l1.123-.649-.624-1.123-1.148.649Z" transform="translate(-68.443 -80.153)" fill="#2885c7"/>
    <path id="Path_10346" d="M97.749,95.972l1.123-.649L98.248,94.2l-1.148.649Z" transform="translate(-72.871 -70.697)" fill="#71b645"/>
    <path id="Path_10347" d="M96.349,115.172l1.148-.649-.649-1.123-1.148.649Z" transform="translate(-71.82 -85.106)" fill="#26b4bb"/>
    <path id="Path_10348" d="M99.649,104.172l1.123-.649-.649-1.123L99,103.049Z" transform="translate(-74.297 -76.851)" fill="#ccd533"/>
    <path id="Path_10349" d="M102.949,111.648l.8-.449-.449-.8-.8.474Z" transform="translate(-76.924 -82.856)" fill="#aaaaad"/>
    <path id="Path_10350" d="M107.749,102.648l.8-.449-.449-.8-.8.474Z" transform="translate(-80.526 -76.101)" fill="#71b645"/>
    <path id="Rectangle_148" d="M0,0H2.071V2.1H0Z" transform="translate(23.957 19.928) rotate(-83.91)" fill="#71b645"/>
    <path id="Rectangle_149" d="M0,0H1.672V1.672H0Z" transform="translate(24.015 22.716) rotate(-83.892)" fill="#aaaaad"/>
    <path id="Rectangle_150" d="M0,0H1.672V1.672H0Z" transform="translate(27.112 20.329) rotate(-83.892)" fill="#26b4bb"/>
    <path id="Rectangle_151" d="M0,0H1.3V1.3H0Z" transform="matrix(0.107, -0.994, 0.994, 0.107, 26.683, 22.583)" fill="#ccd533"/>
    <path id="Rectangle_152" d="M0,0H1.3V1.3H0Z" transform="translate(29.745 20.883) rotate(-83.91)" fill="#2885c7"/>
    <path id="Rectangle_153" d="M0,0H1.3V1.3H0Z" transform="matrix(0.107, -0.994, 0.994, 0.107, 26.65, 24.548)" fill="#26b4bb"/>
    <path id="Rectangle_154" d="M0,0H1.3V1.3H0Z" transform="matrix(0.107, -0.994, 0.994, 0.107, 28.922, 22.796)" fill="#71b645"/>
    <path id="Rectangle_155" d="M0,0H.923V.923H0Z" transform="translate(28.607 24.417) rotate(-83.892)" fill="#1d3a6d"/>
    <path id="Rectangle_156" d="M0,0H.923V.923H0Z" transform="matrix(0.106, -0.994, 0.994, 0.106, 30.891, 23.295)" fill="#aaaaad"/>
    <path id="Path_10351" d="M123.249,104.164a4,4,0,0,0-.824-.349,4.947,4.947,0,0,0-2.271-.175,4.652,4.652,0,0,0-.973.249c-.025,0-.075.025-.1.025l-.526.225a4.039,4.039,0,0,0-.449.249,11.692,11.692,0,0,0-1,.674,20.157,20.157,0,0,1-.1-5.29c.774.5.574,1.872.4,2.271,0,0,0,.025.025,0a2.433,2.433,0,0,0,.3-2.745,2.305,2.305,0,0,1,.349.349,2.092,2.092,0,0,1,.449,1.173,3.652,3.652,0,0,1,0,.526v.125a2.233,2.233,0,0,0,0-2.071,2.346,2.346,0,0,0-.449-.6l-.175-.175V98.6c.05.025.125.025.175.05a1.887,1.887,0,0,1,.449.225,1.961,1.961,0,0,1,.624.824,2.13,2.13,0,0,1,.149.774h.025a2,2,0,0,0-.149-1.572,1.968,1.968,0,0,0-1.073-.8.728.728,0,0,0-.225-.05v-.025h.2a2.565,2.565,0,0,1,.449.025,1.622,1.622,0,0,1,.624.249,1.57,1.57,0,0,1,.424.449h.025a1.323,1.323,0,0,0-.424-.848,1.5,1.5,0,0,0-.624-.324,2.813,2.813,0,0,0-.449-.075,1.269,1.269,0,0,0-.549.1,1.15,1.15,0,0,1,.574-.4,1.381,1.381,0,0,1,.449-.05,1.657,1.657,0,0,1,.374.075,1.414,1.414,0,0,0-.374-.3,1.587,1.587,0,0,0-.449-.149,1.121,1.121,0,0,0-1.073.526h-.016l-.149-.3a4.245,4.245,0,0,1-.249-.8h-.025a3.143,3.143,0,0,1-.249.824l-.149.3h-.025a1.155,1.155,0,0,0-1.895-.075,1.153,1.153,0,0,1,1.373.374,1.667,1.667,0,0,0-1.772.424,1.49,1.49,0,0,0-.3.7s0,.025.025,0a.926.926,0,0,1,.275-.324,1.774,1.774,0,0,1,1.421-.374v.025A1.874,1.874,0,0,0,113.9,99.2a2.152,2.152,0,0,0-.025,1.273h.025v-.025A1.853,1.853,0,0,1,115.27,98.6s.025,0,0,.025a2.3,2.3,0,0,0-.624,2.842h.025a2.316,2.316,0,0,1,.8-2.171,2.433,2.433,0,0,0,.3,2.745h.025c-.175-.4-.374-1.772.4-2.271a21.326,21.326,0,0,1-.1,5.29,8.288,8.288,0,0,0-1.947-1.148c-.075-.025-.149-.05-.249-.075a5.716,5.716,0,0,0-1.846-.275,5.01,5.01,0,0,0-1.895.474,1.086,1.086,0,0,0-.175.1c-.025,0,0,.05.025.025.05-.025.125-.025.175-.05a5.081,5.081,0,0,1,1.895-.2,5.786,5.786,0,0,1,1.846.5,10.048,10.048,0,0,1,2.2,1.421,21.243,21.243,0,0,1-2.2,1.872c-.025.025-.05.025-.075.05a.532.532,0,0,0-.526-.2.48.48,0,0,0-.374.374.463.463,0,0,0,.1.449.746.746,0,0,0,.9.125,12.71,12.71,0,0,0,2.445-2.021c.075-.075.175-.149.249-.225.075.075.175.149.249.225.449.4.848.8,1.223,1.148a2.973,2.973,0,0,0,.449.374,3.955,3.955,0,0,0,.624.424.782.782,0,0,0,.973-.025l.05-.05a.509.509,0,0,0-.05-.7.474.474,0,0,0-.249-.125.5.5,0,0,0-.526.2,2.25,2.25,0,0,1-.225-.125c-.175-.125-.374-.3-.624-.5-.149-.125-.3-.249-.449-.4-.3-.275-.649-.574-1-.9a9.462,9.462,0,0,1,1-.748,4.343,4.343,0,0,1,.449-.275,4.9,4.9,0,0,1,.624-.324,7.789,7.789,0,0,1,.973-.374,5.285,5.285,0,0,1,2.271-.149,4.673,4.673,0,0,1,.8.2c.05.05.075.025.05.025" transform="translate(-82.526 -72.203)" fill="#70777f"/>
    <g id="Group_63" transform="translate(0 48.53)">
      <path id="Rectangle_157" d="M0,0H.624V.624H0Z" transform="translate(4.841 6.088)" fill="#a6a6a8"/>
      <path id="Path_10352" d="M157.232,203.842V199.8h-.6v3.444h-2.246V199.8h-.6v3.444h-2.368V199.8h-.947a3.266,3.266,0,0,0-1.023.149,2.3,2.3,0,0,0-.774.424,1.813,1.813,0,0,0-.5.649,1.774,1.774,0,0,0-.178.8,1.988,1.988,0,0,0,.2.9,1.66,1.66,0,0,0,.549.624,2.479,2.479,0,0,0,.774.374,3.948,3.948,0,0,0,.947.125Zm-7.636-.674a1.743,1.743,0,0,1-.526-.275,1.22,1.22,0,0,1-.349-.449,1.507,1.507,0,0,1-.125-.6,1.094,1.094,0,0,1,.149-.574,1.634,1.634,0,0,1,.374-.449,1.794,1.794,0,0,1,.526-.3,1.678,1.678,0,0,1,.6-.1h.6v2.869h-.6c-.247-.05-.472-.073-.646-.125Z" transform="translate(-111.069 -198.477)" fill="#a6a6a8"/>
      <path id="Rectangle_158" d="M0,0H.6V5.365H0Z" transform="translate(33.387 0.025)" fill="#a6a6a8"/>
      <path id="Rectangle_159" d="M0,0H.624V.624H0Z" transform="translate(39.725 0.025)" fill="#a6a6a8"/>
      <path id="Rectangle_160" d="M0,0H.624V.624H0Z" transform="translate(45.564 6.064)" fill="#a6a6a8"/>
      <path id="Rectangle_161" d="M0,0H.624V.624H0Z" transform="translate(5.889 6.088)" fill="#a6a6a8"/>
      <path id="Path_10353" d="M66.087,199.266h-.973a1.867,1.867,0,0,1-.824-.149,1.17,1.17,0,0,1-.474-.449,3.44,3.44,0,0,0,.05-.549V196.2h-.6v2.021a1.211,1.211,0,0,1-.275.824,1.1,1.1,0,0,1-.848.3,1.453,1.453,0,0,1-.474-.075.939.939,0,0,1-.374-.225,1.6,1.6,0,0,1-.249-.324,1.175,1.175,0,0,1-.1-.4V196.2h-.6v2.071a1.351,1.351,0,0,1-.075.474.947.947,0,0,1-.225.324.822.822,0,0,1-.324.175.97.97,0,0,1-.374.05H58.2v-3.069h-.6v3.068H54.459l1.048-2.5a3.89,3.89,0,0,0-.5-.4,6.307,6.307,0,0,0-.549-.324,2.731,2.731,0,0,0-.574-.225,2.264,2.264,0,0,0-.574-.075,2.126,2.126,0,0,0-.574.075,2.288,2.288,0,0,0-.574.225,3.971,3.971,0,0,0-.549.324,3.888,3.888,0,0,0-.5.4l1.048,2.5H50.092v-3.442h-.947a3.106,3.106,0,0,0-1,.149,2.3,2.3,0,0,0-.774.424,1.874,1.874,0,0,0-.674,1.474,1.988,1.988,0,0,0,.2.9,1.634,1.634,0,0,0,.549.624,2.584,2.584,0,0,0,.8.349,3.946,3.946,0,0,0,.947.125h.349v.175a.778.778,0,0,1-.275.674,1.273,1.273,0,0,1-.748.2,3.074,3.074,0,0,1-.5-.05,2.4,2.4,0,0,1-.5-.175l-.175.574c.225.075.424.149.6.2a1.9,1.9,0,0,0,.526.075,1.737,1.737,0,0,0,1.273-.424,1.51,1.51,0,0,0,.4-1.123v-.149h9.282a1.54,1.54,0,0,0,.774-.175,1.755,1.755,0,0,0,.549-.5,1.41,1.41,0,0,0,.6.549,1.989,1.989,0,0,0,.9.2,2.105,2.105,0,0,0,.923-.175,1.278,1.278,0,0,0,.574-.574,1.514,1.514,0,0,0,.175.249,2.649,2.649,0,0,0,.275.225,1.069,1.069,0,0,0,.424.149,2.2,2.2,0,0,0,.424.05h1.722V194.5h-.6v4.766Zm-16.644,0h-.6a1.724,1.724,0,0,1-.624-.1,1.321,1.321,0,0,1-.526-.275,1.219,1.219,0,0,1-.349-.449,1.508,1.508,0,0,1-.125-.6,1.254,1.254,0,0,1,.149-.6,1.634,1.634,0,0,1,.374-.449,1.794,1.794,0,0,1,.526-.3,1.677,1.677,0,0,1,.6-.1h.6v2.869Zm3.319,0-.923-2.3a2.62,2.62,0,0,1,.7-.424,1.969,1.969,0,0,1,.748-.125,2.263,2.263,0,0,1,.8.149,2.189,2.189,0,0,1,.674.4l-.923,2.3Z" transform="translate(-35.045 -194.5)" fill="#a6a6a8"/>
      <path id="Rectangle_162" d="M0,0H.624V.624H0Z" transform="translate(2.795 0.025)" fill="#a6a6a8"/>
      <path id="Rectangle_163" d="M0,0H.624V.624H0Z" transform="translate(63.28 0.025)" fill="#a6a6a8"/>
      <path id="Rectangle_164" d="M0,0H.6V5.365H0Z" transform="translate(57.99 0.025)" fill="#a6a6a8"/>
      <path id="Rectangle_165" d="M0,0H.624V.624H0Z" transform="translate(38.677 0.025)" fill="#a6a6a8"/>
      <path id="Path_10354" d="M32.321,201.494a1.86,1.86,0,0,0-.1-.649,1.111,1.111,0,0,0-.3-.526,1.947,1.947,0,0,0-.526-.4,2.087,2.087,0,0,0-.724-.125h-.449v.6h.526a.732.732,0,0,1,.4.1,1.029,1.029,0,0,1,.324.249.922.922,0,0,1,.175.349,2.238,2.238,0,0,1,.05.449v1.722H28.9v.6h3.394v-2.368Z" transform="translate(-21.688 -198.475)" fill="#a6a6a8"/>
      <path id="Rectangle_166" d="M0,0H.6V5.365H0Z" transform="translate(89.631 0.025)" fill="#a6a6a8"/>
      <path id="Rectangle_167" d="M0,0H.624V.624H0Z" transform="translate(64.329 0.025)" fill="#a6a6a8"/>
      <path id="Path_10355" d="M272.728,194.6h-.6v4.766h-2.046a2.271,2.271,0,0,0,0-1.747,2.8,2.8,0,0,0-.449-.7,1.871,1.871,0,0,0-.7-.449,2.474,2.474,0,0,0-.873-.175,1.989,1.989,0,0,0-.848.175,2.532,2.532,0,0,0-.674.474,1.872,1.872,0,0,0-.449.7,2.31,2.31,0,0,0,0,1.722h-1.846a2.271,2.271,0,0,0,0-1.747,2.241,2.241,0,0,0-.449-.7,1.872,1.872,0,0,0-.7-.449,2.474,2.474,0,0,0-.873-.175,1.989,1.989,0,0,0-.848.175,2.533,2.533,0,0,0-.674.474,1.871,1.871,0,0,0-.449.7,2.31,2.31,0,0,0,0,1.722h-1.895V194.6h-.6v4.766h-1.895v-.924a1.86,1.86,0,0,0-.1-.649,1.321,1.321,0,0,0-.275-.526,1.628,1.628,0,0,0-.526-.4,2.129,2.129,0,0,0-.748-.125h-2.649l1.123-2.146h-.649l-1.148,2.146a1,1,0,0,0,.1.324c.05.075.1.175.175.275h3.044a1.5,1.5,0,0,1,.5.075.76.76,0,0,1,.324.225.922.922,0,0,1,.175.349,2.2,2.2,0,0,1,.05.424v.923h-5.535v-3.444h-.947a3.266,3.266,0,0,0-1.023.149,2.3,2.3,0,0,0-.774.424,1.813,1.813,0,0,0-.5.649,1.775,1.775,0,0,0-.175.8,1.988,1.988,0,0,0,.2.9,1.66,1.66,0,0,0,.549.624,2.478,2.478,0,0,0,.774.374,3.946,3.946,0,0,0,.947.125h11.853a2.371,2.371,0,0,0,.7.5,2.025,2.025,0,0,0,.873.175,2.139,2.139,0,0,0,.9-.175,2.09,2.09,0,0,0,.724-.5h2.62a2.372,2.372,0,0,0,.7.5,2.025,2.025,0,0,0,.873.175,2.139,2.139,0,0,0,.9-.175,2.089,2.089,0,0,0,.724-.5h3.044V194.6Zm-23.53,4.741h-.6a1.722,1.722,0,0,1-.624-.1,1.742,1.742,0,0,1-.526-.275,1.219,1.219,0,0,1-.349-.449,1.508,1.508,0,0,1-.125-.6,1.093,1.093,0,0,1,.149-.574,1.634,1.634,0,0,1,.374-.449,1.8,1.8,0,0,1,.526-.3,1.678,1.678,0,0,1,.6-.1h.6v2.842Zm14.547-.249a1.722,1.722,0,0,1-.324.5,1.329,1.329,0,0,1-.5.324,1.737,1.737,0,0,1-.624.125,1.508,1.508,0,0,1-.6-.125,1.6,1.6,0,0,1-.474-.324,1.636,1.636,0,0,1-.449-1.1,1.508,1.508,0,0,1,.125-.6,1.329,1.329,0,0,1,.324-.5,1.669,1.669,0,0,1,.474-.349,1.737,1.737,0,0,1,.624-.125,1.635,1.635,0,0,1,.624.125,1.723,1.723,0,0,1,.5.324,1.33,1.33,0,0,1,.324.5,1.737,1.737,0,0,1,.125.624A2.632,2.632,0,0,1,263.745,199.089Zm5.789,0a1.722,1.722,0,0,1-.324.5,1.329,1.329,0,0,1-.5.324,1.737,1.737,0,0,1-.624.125,1.508,1.508,0,0,1-.6-.125,1.6,1.6,0,0,1-.474-.324,1.636,1.636,0,0,1-.449-1.1,1.507,1.507,0,0,1,.125-.6,1.33,1.33,0,0,1,.324-.5,1.669,1.669,0,0,1,.474-.349,1.622,1.622,0,0,1,1.248,0,1.723,1.723,0,0,1,.5.324,1.33,1.33,0,0,1,.324.5,1.737,1.737,0,0,1,.125.624,1.762,1.762,0,0,1-.151.6Z" transform="translate(-184.844 -194.572)" fill="#a6a6a8"/>
      <path id="Path_10356" d="M1.522,203.817a3.947,3.947,0,0,0,.947.125H6.387V199.9h-.6v3.444H3.421V199.9H2.473a3.265,3.265,0,0,0-1.023.149,2.3,2.3,0,0,0-.774.424,1.814,1.814,0,0,0-.5.649,1.774,1.774,0,0,0-.178.8,1.988,1.988,0,0,0,.2.9,1.66,1.66,0,0,0,.549.624,2.478,2.478,0,0,0,.774.374ZM.6,201.9a1.094,1.094,0,0,1,.149-.574,1.632,1.632,0,0,1,.374-.449,1.8,1.8,0,0,1,.526-.3,1.678,1.678,0,0,1,.6-.1h.594v2.869H2.221a1.723,1.723,0,0,1-.624-.1,1.743,1.743,0,0,1-.526-.275,1.219,1.219,0,0,1-.349-.449A1.737,1.737,0,0,1,.6,201.9Z" transform="translate(0 -198.552)" fill="#a6a6a8"/>
      <path id="Rectangle_168" d="M0,0H.624V.624H0Z" transform="translate(43.368 6.088)" fill="#a6a6a8"/>
      <path id="Rectangle_169" d="M0,0H.624V.624H0Z" transform="translate(42.32 6.088)" fill="#a6a6a8"/>
      <path id="Path_10357" d="M189.673,200.638a2.431,2.431,0,0,0,.05-.624v-.149h7.684V194.5h-.6v4.766h-2.544l1.048-2.5a3.886,3.886,0,0,0-.5-.4,6.307,6.307,0,0,0-.549-.324,2.732,2.732,0,0,0-.574-.225,2.263,2.263,0,0,0-.574-.075,2.126,2.126,0,0,0-.574.075,2.289,2.289,0,0,0-.574.225,3.974,3.974,0,0,0-.549.324,3.888,3.888,0,0,0-.5.4l1.048,2.5h-2.221v-3.444h-.6v4.167a2.024,2.024,0,0,1-.025.424.7.7,0,0,1-.1.275.335.335,0,0,1-.175.149.9.9,0,0,1-.275.05h-.149a.635.635,0,0,1-.175-.05l-.149.574a1.7,1.7,0,0,0,.474.075,1.2,1.2,0,0,0,.549-.1.83.83,0,0,0,.349-.3A1.068,1.068,0,0,0,189.673,200.638ZM191.644,197a2.621,2.621,0,0,1,.7-.424,1.968,1.968,0,0,1,.748-.125,2.261,2.261,0,0,1,.8.149,2.19,2.19,0,0,1,.674.4l-.923,2.3h-1.073Z" transform="translate(-141.164 -194.5)" fill="#a6a6a8"/>
      <path id="Rectangle_170" d="M0,0H.624V.624H0Z" transform="translate(1.747 0.025)" fill="#a6a6a8"/>
      <path id="Path_10358" d="M6.018,231.8H5.095l-2.021,2.121V231.8H2.3v4.242h.774v-1.223l.647-.674,1.474,1.895h.9l-1.845-2.419Z" transform="translate(-1.726 -222.493)" fill="#a6a6a8"/>
      <path id="Rectangle_171" d="M0,0H.748V4.267H0Z" transform="translate(5.065 9.307)" fill="#a6a6a8"/>
      <path id="Path_10359" d="M30.894,234.744,28.6,231.8h-.7v4.242h.748v-3.019l2.346,3.019h.624V231.8h-.724Z" transform="translate(-20.938 -222.493)" fill="#a6a6a8"/>
      <path id="Path_10360" d="M48.844,234.093h1.1v.8a1.724,1.724,0,0,1-1.023.324,1.511,1.511,0,0,1-.05-3.019,1.68,1.68,0,0,1,1.2.449l.474-.574a2.316,2.316,0,0,0-1.647-.574,2.167,2.167,0,0,0-2.2,2.2,2.116,2.116,0,0,0,2.221,2.2,2.6,2.6,0,0,0,1.772-.674v-1.8H48.869v.674Z" transform="translate(-35.045 -222.265)" fill="#a6a6a8"/>
      <path id="Path_10361" d="M68.3,231.8H66.7v4.267h1.6a2.138,2.138,0,1,0,0-4.267Zm1.474,2.146a1.4,1.4,0,0,1-1.474,1.447h-.848v-2.895H68.3a1.368,1.368,0,0,1,1.474,1.447Z" transform="translate(-50.056 -222.488)" fill="#a6a6a8"/>
      <path id="Path_10362" d="M87.246,231.5a2.179,2.179,0,0,0-2.246,2.2,2.234,2.234,0,1,0,4.467,0,2.158,2.158,0,0,0-2.221-2.2Zm1.447,2.221a1.444,1.444,0,0,1-1.447,1.5A1.465,1.465,0,0,1,85.8,233.7a1.448,1.448,0,1,1,2.895.025Z" transform="translate(-63.79 -222.267)" fill="#a6a6a8"/>
      <path id="Path_10363" d="M108.8,233.8l-1.3-2h-.8v4.242h.724V233l1.347,2h.025l1.347-2v3.044h.748V231.8h-.8Z" transform="translate(-80.075 -222.493)" fill="#a6a6a8"/>
      <path id="Path_10364" d="M136.646,231.5a2.179,2.179,0,0,0-2.246,2.2,2.234,2.234,0,1,0,4.467,0,2.129,2.129,0,0,0-2.221-2.2Zm1.447,2.221a1.444,1.444,0,0,1-1.447,1.5,1.465,1.465,0,0,1-1.447-1.522,1.448,1.448,0,1,1,2.895.025Z" transform="translate(-100.863 -222.266)" fill="#a6a6a8"/>
      <path id="Path_10365" d="M156.1,236.042h.748V234.32h2.171v-.674h-2.171v-1.173h2.445V231.8H156.1Z" transform="translate(-117.148 -222.493)" fill="#a6a6a8"/>
      <path id="Path_10366" d="M180.322,233.411c-.824-.2-1.023-.349-1.023-.674,0-.275.249-.5.7-.5a1.808,1.808,0,0,1,1.148.449l.4-.574a2.323,2.323,0,0,0-1.547-.526,1.293,1.293,0,0,0-1.447,1.248c0,.8.526,1.048,1.421,1.273.8.175.973.349.973.649,0,.324-.3.526-.748.526a1.974,1.974,0,0,1-1.347-.549l-.449.526a2.666,2.666,0,0,0,1.772.674c.9,0,1.522-.474,1.522-1.273C181.694,233.958,181.219,233.636,180.322,233.411Z" transform="translate(-133.884 -222.332)" fill="#a6a6a8"/>
      <path id="Path_10367" d="M195.172,231.6l-1.872,4.292h.774l.449-1.023h2.021l.424,1.023h.8l-1.872-4.292Zm-.4,2.62.724-1.7.748,1.7Z" transform="translate(-145.066 -222.343)" fill="#a6a6a8"/>
      <path id="Path_10368" d="M215.895,234.17c0,.774-.4,1.2-1.073,1.2s-1.073-.424-1.073-1.223v-2.421H213v2.445a1.67,1.67,0,0,0,1.822,1.872,1.715,1.715,0,0,0,1.846-1.922V231.7h-.748v2.471Z" transform="translate(-159.85 -222.416)" fill="#a6a6a8"/>
      <path id="Path_10369" d="M233.6,231.8H232v4.267h1.6a2.137,2.137,0,1,0,0-4.267Zm1.474,2.146a1.4,1.4,0,0,1-1.474,1.447h-.848V232.5h.848a1.382,1.382,0,0,1,1.474,1.447Z" transform="translate(-174.109 -222.489)" fill="#a6a6a8"/>
      <path id="Rectangle_172" d="M0,0H.748V4.267H0Z" transform="translate(62.707 9.307)" fill="#a6a6a8"/>
      <path id="Path_10370" d="M266.572,231.6l-1.872,4.292h.774l.449-1.023h2.021l.424,1.023h.8l-1.872-4.292Zm-.374,2.62.724-1.7.748,1.7Z" transform="translate(-198.65 -222.343)" fill="#a6a6a8"/>
      <path id="Path_10371" d="M288.97,233.145a1.282,1.282,0,0,0-.349-.923,1.69,1.69,0,0,0-1.223-.424H285.5v4.267h.748v-1.5h.923l1.048,1.5h.873l-1.148-1.622a1.294,1.294,0,0,0,1.022-1.3Zm-2.745.748v-1.421h1.1c.549,0,.873.249.873.7,0,.424-.349.724-.873.724Z" transform="translate(-214.261 -222.49)" fill="#a6a6a8"/>
      <path id="Path_10372" d="M304.072,231.6l-1.872,4.292h.774l.449-1.023h2.021l.424,1.023h.8l-1.872-4.292Zm-.4,2.62.724-1.7.748,1.7Z" transform="translate(-226.792 -222.343)" fill="#a6a6a8"/>
      <path id="Path_10373" d="M325.52,233.918a1.017,1.017,0,0,0,.6-.947.98.98,0,0,0-.275-.7,1.526,1.526,0,0,0-1.123-.374H322.8v4.267h1.971c.947,0,1.572-.4,1.572-1.173A1,1,0,0,0,325.52,233.918Zm-1.971-1.4h1.073c.474,0,.748.2.748.549,0,.4-.324.574-.8.574h-1.023Zm2.071,2.346c0,.374-.3.574-.824.574h-1.248v-1.175h1.2c.574.025.873.249.873.6Z" transform="translate(-242.252 -222.564)" fill="#a6a6a8"/>
      <path id="Rectangle_173" d="M0,0H.748V4.267H0Z" transform="translate(85.04 9.307)" fill="#a6a6a8"/>
      <path id="Path_10374" d="M349.27,231.6h-.7l-1.872,4.292h.774l.449-1.023h2.021l.424,1.023h.8Zm-1.073,2.62.724-1.7.748,1.7Z" transform="translate(-260.188 -222.343)" fill="#a6a6a8"/>
    </g>
  </g>
</svg>
