<svg xmlns="http://www.w3.org/2000/svg" width="29.723" height="29.728" viewBox="0 0 29.723 29.728">
  <g id="yout" transform="translate(-68.734 -205.236)">
    <path id="Path_124931" data-name="Path 124931" d="M36.669,84.558v-.117a14.9,14.9,0,1,0-.066,1.367l-1.057.742v.005a13.924,13.924,0,1,1,.158-2.115c0,.269-.005.539-.025.8Z" transform="translate(61.788 135.659)" fill="#15484d"/>
    <path id="Path_377" data-name="Path 377" d="M14.5-11.93a1.793,1.793,0,0,0-1.262-1.27,42.369,42.369,0,0,0-5.575-.3,42.369,42.369,0,0,0-5.575.3A1.793,1.793,0,0,0,.823-11.93a18.808,18.808,0,0,0-.3,3.457,18.808,18.808,0,0,0,.3,3.457A1.766,1.766,0,0,0,2.085-3.767a42.369,42.369,0,0,0,5.575.3,42.369,42.369,0,0,0,5.575-.3A1.766,1.766,0,0,0,14.5-5.017a18.808,18.808,0,0,0,.3-3.457A18.808,18.808,0,0,0,14.5-11.93ZM6.2-6.352V-10.6L9.929-8.473Z" transform="translate(75.936 228.584)" fill="#004a4d"/>
  </g>
</svg>
